<svg id="custom-logo" viewBox="0 0 288 212" xmlns="http://www.w3.org/2000/svg" xml:space="preserve" style="fill-rule:evenodd;clip-rule:evenodd;stroke-linejoin:round;stroke-miterlimit:2"><g><path style="fill:#949599" d="M14.424 192.849H63.883V194.349H14.424zM222.574 192.849H272.033V194.349H222.574z"></path><path d="M80.604 187.815C80.616 187.671 80.54 187.582 80.396 187.582L78.33 187.582C78.204 187.582 78.118 187.654 78.105 187.779L77.341 193.726C77.193 194.858 77.137 195.632 77.16 196.583 77.188 196.816 76.977 196.906 76.894 196.655L76.308 195.163 73.837 189.612C73.574 188.929 73.331 188.3 73.146 187.761 73.104 187.636 73.03 187.582 72.886 187.582L70.353 187.582C70.227 187.582 70.141 187.654 70.128 187.779L68.542 199.996C68.53 200.14 68.606 200.23 68.75 200.23L70.798 200.23C70.923 200.23 71.01 200.158 71.023 200.032L71.789 194.121C71.918 192.972 71.974 192.199 71.95 191.229 71.958 191.013 72.17 190.923 72.27 191.157 72.433 191.588 72.597 192.073 72.798 192.54L75.308 198.2C75.569 198.829 75.793 199.421 76 200.05 76.042 200.176 76.116 200.23 76.259 200.23L78.793 200.23C78.918 200.23 79.005 200.158 79.018 200.032L80.604 187.815ZM92.026 192.648 92.385 189.756 98.044 189.756C98.17 189.756 98.24 189.702 98.289 189.594L99.02 187.833C99.068 187.689 99.009 187.582 98.848 187.582L90.386 187.582C90.26 187.582 90.173 187.654 90.161 187.779L88.574 199.996C88.562 200.14 88.638 200.23 88.782 200.23L97.19 200.23C97.316 200.23 97.403 200.158 97.415 200.032L97.662 198.29C97.674 198.146 97.598 198.056 97.455 198.056L91.31 198.056 91.726 194.822 96.451 194.822C96.577 194.822 96.663 194.75 96.676 194.624L96.905 192.882C96.917 192.738 96.841 192.648 96.697 192.648L92.026 192.648ZM117.812 187.815C117.824 187.671 117.748 187.582 117.605 187.582L107.759 187.582C107.633 187.582 107.547 187.654 107.534 187.779L107.305 189.522C107.293 189.666 107.369 189.756 107.513 189.756L111.178 189.756 109.864 199.996C109.853 200.14 109.928 200.23 110.072 200.23L112.12 200.23C112.246 200.23 112.333 200.158 112.345 200.032L113.675 189.756 117.358 189.756C117.484 189.756 117.571 189.684 117.583 189.558L117.812 187.815ZM142.894 187.833C142.96 187.689 142.883 187.582 142.722 187.582L140.566 187.582C140.44 187.582 140.37 187.636 140.321 187.743L138.072 193.421C137.653 194.535 137.211 195.918 137.003 196.924 136.958 197.14 136.707 197.14 136.733 196.924 136.706 195.882 136.646 194.517 136.473 193.421L135.544 187.779C135.52 187.654 135.445 187.582 135.319 187.582L133.631 187.582C133.505 187.582 133.435 187.636 133.386 187.743L131.011 193.421C130.557 194.553 130.115 195.937 129.852 196.924 129.789 197.14 129.537 197.14 129.565 196.924 129.593 195.918 129.55 194.535 129.412 193.421L128.608 187.779C128.585 187.654 128.509 187.582 128.384 187.582L126.354 187.582C126.21 187.582 126.125 187.671 126.149 187.815L127.378 196.619C127.535 197.751 127.639 198.9 127.706 200.014 127.712 200.158 127.787 200.23 127.931 200.23L130.679 200.23C130.804 200.23 130.875 200.176 130.905 200.05 131.239 199.062 131.575 198.11 131.928 197.14L133.258 193.852C133.418 193.421 133.64 192.738 133.813 192.181 133.875 191.947 134.091 191.947 134.101 192.181 134.107 192.738 134.156 193.439 134.192 193.852L134.693 197.104C134.843 198.056 134.921 199.026 134.982 200.014 134.988 200.158 135.063 200.23 135.207 200.23L137.956 200.23C138.082 200.23 138.151 200.176 138.181 200.05 138.527 198.918 138.962 197.769 139.415 196.619L142.894 187.833ZM156.548 187.402C151.607 187.402 150.057 192.217 150.197 195.433 150.332 198.523 152.14 200.428 155.158 200.428 160.081 200.428 161.648 195.577 161.507 192.361 161.372 189.27 159.584 187.402 156.548 187.402ZM156.554 189.612C158.064 189.612 158.934 190.618 159.013 192.433 159.107 194.571 158.169 198.2 155.169 198.2 153.642 198.2 152.77 197.158 152.691 195.361 152.596 193.187 153.536 189.612 156.554 189.612ZM171.629 187.582C171.504 187.582 171.417 187.654 171.404 187.779L169.818 199.996C169.806 200.14 169.882 200.23 170.026 200.23L172.074 200.23C172.2 200.23 172.286 200.158 172.299 200.032L172.875 195.541 173.773 195.541C175.732 195.541 176.433 196.385 176.879 197.948L177.492 200.05C177.533 200.176 177.607 200.23 177.751 200.23L179.799 200.23C179.961 200.23 180.029 200.14 179.987 199.996L179.081 196.942C178.849 196.17 178.456 195.379 177.698 194.894 177.513 194.786 177.509 194.678 177.791 194.571 179.347 193.978 180.503 192.882 180.417 190.923 180.332 188.965 179.013 187.582 176.588 187.582L171.629 187.582ZM173.175 193.349 173.629 189.756 176.288 189.756C177.258 189.756 177.893 190.313 177.934 191.247 177.987 192.468 176.876 193.349 175.043 193.349L173.175 193.349ZM200.657 187.851C200.758 187.707 200.699 187.582 200.519 187.582L198.148 187.582C198.04 187.582 197.952 187.618 197.902 187.707L196.006 190.384C195.043 191.786 194.019 192.612 192.816 192.612L192.456 192.612 193.073 187.815C193.085 187.671 193.009 187.582 192.865 187.582L190.817 187.582C190.692 187.582 190.605 187.654 190.592 187.779L189.006 199.996C188.994 200.14 189.07 200.23 189.214 200.23L191.262 200.23C191.388 200.23 191.474 200.158 191.487 200.032L192.16 194.876 192.537 194.876C193.957 194.876 194.928 195.739 195.568 197.23L196.806 200.068C196.865 200.176 196.939 200.23 197.065 200.23L199.167 200.23C199.329 200.23 199.396 200.122 199.336 199.978L197.678 196.17C197.219 195.11 196.483 194.301 195.456 193.834 195.346 193.78 195.376 193.654 195.483 193.618 196.331 193.295 197.292 192.684 198.089 191.588L200.657 187.851ZM213.552 195.145C214.52 195.523 214.971 195.972 214.998 196.583 215.044 197.643 213.99 198.2 212.535 198.2 211.565 198.2 210.749 198.038 209.856 197.733L208.907 197.391C208.778 197.337 208.672 197.373 208.624 197.499L207.869 199.134C207.802 199.26 207.843 199.368 207.988 199.403L209.028 199.763C210.269 200.194 211.339 200.428 212.435 200.428 216.477 200.428 217.563 198.128 217.476 196.152 217.412 194.678 216.461 193.888 214.578 193.151L212.897 192.504C211.892 192.109 211.534 191.732 211.513 191.247 211.469 190.241 212.34 189.612 213.777 189.612 214.496 189.612 215.184 189.738 215.877 189.971L216.843 190.295C216.953 190.348 217.06 190.313 217.108 190.187L217.918 188.57C217.983 188.426 217.925 188.318 217.797 188.282L216.74 187.923C215.737 187.582 214.83 187.402 213.878 187.402 210.069 187.402 208.946 189.648 209.03 191.57 209.092 193.007 209.896 193.726 211.779 194.463L213.552 195.145Z" style="fill:#9fce32;fill-rule:nonzero"></path><path d="M29.682 164.439C29.713 164.222 29.607 164.099 29.39 164.099L23.379 164.099C23.162 164.099 23.025 164.191 22.936 164.377L21.9 166.856C21.807 167.073 21.909 167.228 22.156 167.228L25.906 167.228 25.236 171.907 24.328 172.186C23.159 172.557 22.119 172.681 20.818 172.681 17.1 172.681 15.321 169.738 16.035 164.749 16.75 159.761 19.376 156.786 23.094 156.786 24.488 156.786 25.395 156.941 26.546 157.344L27.843 157.809C28.02 157.871 28.184 157.809 28.308 157.592L29.508 155.268C29.628 155.082 29.557 154.927 29.353 154.834L27.999 154.338C26.432 153.812 25.286 153.595 23.551 153.595 17.633 153.595 13.453 157.902 12.472 164.749 11.492 171.597 14.438 175.904 20.356 175.904 22.216 175.904 23.296 175.718 25.013 175.191L26.607 174.664 28.001 174.231C28.196 174.169 28.307 174.045 28.338 173.828L29.682 164.439ZM36.346 172.433 38.95 154.245C38.981 154.028 38.875 153.905 38.658 153.905L35.838 153.905C35.621 153.905 35.48 154.028 35.449 154.245L32.445 175.222C32.414 175.439 32.52 175.563 32.737 175.563L45.72 175.563C45.937 175.563 46.078 175.439 46.11 175.222L46.46 172.774C46.491 172.557 46.385 172.433 46.168 172.433L36.346 172.433ZM61.166 153.595C55.31 153.595 51.135 157.871 50.154 164.718 49.169 171.597 52.116 175.904 57.972 175.904 63.797 175.904 68.008 171.597 68.993 164.718 69.974 157.871 66.991 153.595 61.166 153.595ZM60.709 156.786C64.365 156.786 66.113 159.73 65.399 164.718 64.689 169.676 62.09 172.681 58.433 172.681 54.746 172.681 53.008 169.676 53.718 164.718 54.432 159.73 57.022 156.786 60.709 156.786ZM74.724 153.905C74.507 153.905 74.366 154.028 74.335 154.245L71.331 175.222C71.3 175.439 71.406 175.563 71.623 175.563L80.454 175.563C84.978 175.563 87.953 173.394 88.481 169.707 88.911 166.701 87.278 165.121 85.619 164.594 85.203 164.47 85.274 164.191 85.694 164.068 87.204 163.479 88.869 162.023 89.237 159.451 89.734 155.98 87.397 153.905 83.059 153.905L74.724 153.905ZM77.437 157.034 82.611 157.034C84.718 157.034 85.869 158.087 85.625 159.792 85.345 161.744 83.725 162.89 80.874 162.89L76.598 162.89 77.437 157.034ZM76.155 165.989 80.678 165.989C83.839 165.989 85.255 167.135 84.931 169.397 84.656 171.318 83.133 172.433 80.871 172.433L75.232 172.433 76.155 165.989ZM105.155 171.411 106.118 175.284C106.154 175.47 106.264 175.563 106.45 175.563L109.425 175.563C109.704 175.563 109.819 175.408 109.761 175.16L106.38 161.558C105.805 159.079 105.319 156.631 105.019 154.183 105.014 153.997 104.904 153.905 104.687 153.905L100.876 153.905C100.659 153.905 100.521 153.997 100.459 154.214 99.494 156.631 98.307 159.079 97.022 161.558L89.745 175.16C89.617 175.408 89.687 175.563 89.966 175.563L92.941 175.563C93.127 175.563 93.264 175.47 93.353 175.284L95.425 171.411 105.155 171.411ZM97.082 168.281 99.274 164.222C100.297 162.27 101.36 160.04 101.892 158.49 102.003 158.149 102.344 158.149 102.388 158.49 102.476 160.04 102.896 162.301 103.333 164.222L104.394 168.281 97.082 168.281ZM117.123 172.433 119.728 154.245C119.759 154.028 119.652 153.905 119.436 153.905L116.616 153.905C116.399 153.905 116.257 154.028 116.226 154.245L113.223 175.222C113.192 175.439 113.298 175.563 113.515 175.563L126.497 175.563C126.714 175.563 126.856 175.439 126.887 175.222L127.238 172.774C127.269 172.557 127.162 172.433 126.946 172.433L117.123 172.433ZM156.321 154.245C156.352 154.028 156.246 153.905 156.029 153.905L139.328 153.905C139.111 153.905 138.969 154.028 138.938 154.245L138.588 156.693C138.557 156.91 138.663 157.034 138.88 157.034L145.449 157.034 142.844 175.222C142.813 175.439 142.919 175.563 143.136 175.563L145.987 175.563C146.204 175.563 146.346 175.439 146.377 175.222L148.981 157.034 155.581 157.034C155.797 157.034 155.939 156.91 155.97 156.693L156.321 154.245ZM162.085 162.89 162.924 157.034 173.18 157.034C173.397 157.034 173.534 156.941 173.623 156.755L174.659 154.276C174.752 154.059 174.651 153.905 174.403 153.905L160.212 153.905C159.995 153.905 159.853 154.028 159.822 154.245L156.818 175.222C156.787 175.439 156.894 175.563 157.111 175.563L171.302 175.563C171.518 175.563 171.66 175.439 171.691 175.222L172.042 172.774C172.073 172.557 171.967 172.433 171.75 172.433L160.719 172.433 161.642 165.989 170.256 165.989C170.473 165.989 170.614 165.865 170.645 165.648L170.991 163.231C171.022 163.014 170.916 162.89 170.699 162.89L162.085 162.89ZM179.403 172.433 182.007 154.245C182.038 154.028 181.932 153.905 181.715 153.905L178.895 153.905C178.679 153.905 178.537 154.028 178.506 154.245L175.502 175.222C175.471 175.439 175.578 175.563 175.794 175.563L188.777 175.563C188.994 175.563 189.136 175.439 189.167 175.222L189.517 172.774C189.548 172.557 189.442 172.433 189.225 172.433L179.403 172.433ZM198.307 162.89 199.145 157.034 209.401 157.034C209.618 157.034 209.755 156.941 209.844 156.755L210.881 154.276C210.974 154.059 210.872 153.905 210.624 153.905L196.433 153.905C196.216 153.905 196.074 154.028 196.043 154.245L193.04 175.222C193.009 175.439 193.115 175.563 193.332 175.563L207.523 175.563C207.74 175.563 207.881 175.439 207.913 175.222L208.263 172.774C208.294 172.557 208.188 172.433 207.971 172.433L196.94 172.433 197.863 165.989 206.477 165.989C206.694 165.989 206.836 165.865 206.867 165.648L207.213 163.231C207.244 163.014 207.137 162.89 206.921 162.89L198.307 162.89ZM226.061 174.633C226.287 174.571 226.402 174.416 226.34 174.2L225.836 171.876C225.77 171.69 225.628 171.597 225.433 171.659L224.004 172.124C222.671 172.557 221.724 172.681 220.391 172.681 216.642 172.681 214.859 169.769 215.582 164.718 216.297 159.73 218.918 156.786 222.667 156.786 224.15 156.817 225.062 156.941 226.093 157.313L227.421 157.778C227.598 157.84 227.766 157.747 227.855 157.561L229.002 155.175C229.091 154.989 229.02 154.834 228.843 154.772L227.546 154.307C226.046 153.75 224.89 153.595 223.124 153.595 217.206 153.595 213 157.871 212.019 164.718 211.034 171.597 214.012 175.904 219.93 175.904 221.665 175.904 222.874 175.687 224.631 175.098L226.061 174.633ZM241.56 153.595C235.704 153.595 231.529 157.871 230.548 164.718 229.563 171.597 232.51 175.904 238.366 175.904 244.191 175.904 248.402 171.597 249.387 164.718 250.367 157.871 247.385 153.595 241.56 153.595ZM241.103 156.786C244.76 156.786 246.507 159.73 245.793 164.718 245.083 169.676 242.484 172.681 238.827 172.681 235.14 172.681 233.402 169.676 234.111 164.718 234.826 159.73 237.416 156.786 241.103 156.786ZM275.489 154.245C275.52 154.028 275.413 153.905 275.196 153.905L270.859 153.905C270.642 153.905 270.504 153.997 270.447 154.183 270.123 154.927 269.689 155.795 269.278 156.507L265.088 163.913C264.53 164.997 263.892 166.422 263.427 167.507 263.285 167.848 263.037 167.848 262.993 167.507 262.834 166.453 262.573 165.028 262.299 163.913L260.265 156.476C260.079 155.826 259.924 154.958 259.819 154.183 259.784 153.997 259.673 153.905 259.456 153.905L255.118 153.905C254.901 153.905 254.76 154.028 254.729 154.245L251.725 175.222C251.694 175.439 251.8 175.563 252.017 175.563L254.837 175.563C255.054 175.563 255.195 175.439 255.226 175.222L256.664 165.183C256.926 163.355 257.2 161 257.206 159.234 257.233 158.831 257.556 158.738 257.653 159.141 257.842 159.978 258.068 160.783 258.321 161.62L260.269 168.56C260.491 169.397 260.752 170.605 260.946 171.628 260.982 171.814 261.092 171.907 261.278 171.907L263.85 171.907C264.067 171.907 264.204 171.814 264.293 171.628 264.78 170.605 265.387 169.397 265.848 168.56L269.785 161.62C270.246 160.783 270.702 159.978 271.131 159.141 271.344 158.738 271.671 158.831 271.552 159.234 271.051 161 270.683 163.355 270.421 165.183L268.984 175.222C268.953 175.439 269.059 175.563 269.276 175.563L272.095 175.563C272.312 175.563 272.454 175.439 272.485 175.222L275.489 154.245Z" style="fill:#949599;fill-rule:nonzero"></path><path d="M183.104,26.549C171.758,17.029 157.42,11.81 142.609,11.81C127.797,11.81 113.459,17.029 102.113,26.549L108.045,33.619C117.729,25.493 129.966,21.039 142.609,21.039C155.25,21.039 167.488,25.493 177.172,33.619L183.104,26.549Z" style="fill:#9fce32"></path><path d="M86.983,45.234C82.141,54.34 79.609,64.496 79.609,74.81C79.609,109.581 107.838,137.81 142.609,137.81C177.379,137.81 205.609,109.581 205.609,74.81C205.609,64.868 203.256,55.067 198.742,46.209L190.519,50.399C194.371,57.959 196.38,66.325 196.38,74.81C196.38,104.487 172.286,128.581 142.609,128.581C112.931,128.581 88.837,104.487 88.837,74.81C88.837,66.007 90.999,57.339 95.131,49.566L86.983,45.234Z" style="fill:#949599"></path><path d="M170.6,41.348C162.757,34.767 152.846,31.16 142.609,31.16C132.371,31.16 122.46,34.767 114.617,41.348L120.158,47.951C126.448,42.673 134.397,39.78 142.609,39.78C150.82,39.78 158.769,42.673 165.059,47.951L170.6,41.348Z" style="fill:#9fce32"></path><path d="M104.159,54.262C100.812,60.557 99.062,67.577 99.062,74.706C99.062,98.74 118.575,118.253 142.609,118.253C166.643,118.253 186.155,98.74 186.155,74.706C186.155,67.834 184.529,61.06 181.409,54.937L173.481,58.976C175.964,63.848 177.258,69.238 177.258,74.706C177.258,93.83 161.732,109.355 142.609,109.355C123.485,109.355 107.959,93.83 107.959,74.706C107.959,69.034 109.352,63.448 112.015,58.44L104.159,54.262Z" style="fill:#949599"></path><path d="M157.942 56.555C153.646 52.95 148.217 50.974 142.609 50.974 137 50.974 131.571 52.95 127.275 56.555L132.646 62.956C135.438 60.614 138.965 59.33 142.609 59.33 146.252 59.33 149.779 60.614 152.571 62.956L157.942 56.555ZM157.414 79.442 142.609 79.442 142.609 70.517 166.463 70.517 166.463 74.858C166.448 88.01 155.765 98.683 142.609 98.683 129.442 98.683 118.754 87.995 118.754 74.829 118.754 70.924 119.713 67.078 121.546 63.63L128.918 67.55C127.727 69.791 127.104 72.29 127.104 74.829 127.104 83.386 134.051 90.334 142.609 90.334 149.56 90.334 155.449 85.749 157.414 79.442Z" style="fill:#9fce32"></path></g></svg>