<?xml version="1.0" encoding="UTF-8"?>
<svg version="1.1" xmlns="http://www.w3.org/2000/svg" width="1600" height="838">
<path d="M0 0 C528 0 1056 0 1600 0 C1600 276.54 1600 553.08 1600 838 C1072 838 544 838 0 838 C0 561.46 0 284.92 0 0 Z " fill="#FEFEFE" transform="translate(0,0)"/>
<path d="M0 0 C5.43535701 5.2800611 10.08658726 11.04709177 14.6875 17.0625 C15.57160109 18.21615618 16.45571604 19.36980173 17.33984375 20.5234375 C17.78440918 21.10448242 18.22897461 21.68552734 18.68701172 22.28417969 C25.28381894 30.90492367 31.93050424 39.48541558 38.60302734 48.04760742 C43.27897574 54.05528115 47.90382826 60.10069585 52.51782227 66.15600586 C55.98372521 70.69582046 59.51923305 75.17085771 63.109375 79.61328125 C66.08021634 83.36366153 68.91475958 87.2146516 71.7734375 91.05078125 C74.48076544 94.63680335 77.27995231 98.14037569 80.1015625 101.63671875 C82.51264379 104.63816769 84.86686627 107.68166389 87.22265625 110.7265625 C89.10215371 113.13066695 91.01799593 115.50274741 92.9375 117.875 C95.66285355 121.26863947 98.2729439 124.71535253 100.8125 128.25 C104.34425378 133.15713343 108.03425573 137.9150885 111.78344727 142.65600586 C114.9696253 146.68514644 118.12383939 150.73661971 121.25 154.8125 C123.9893876 158.38335484 126.73286509 161.9505676 129.5 165.5 C133.57701284 170.73232562 137.61626451 175.99362266 141.65771484 181.25341797 C143.97905606 184.27394818 146.30213062 187.29314494 148.625 190.3125 C149.47136169 191.41275463 150.31771657 192.51301449 151.1640625 193.61328125 C151.76992187 194.40089844 152.37578125 195.18851563 153 196 C157.90706429 194.7531736 161.88146063 193.15229269 166.3125 190.625 C170.09280937 188.53294243 173.76901783 186.58563602 177.8125 185.0625 C187.75454663 181.28194829 197.14354376 176.02609319 206.5 171 C217.16062496 165.27666264 227.91546088 159.85822902 239 155 C251.60164541 149.47418789 263.74812662 143.15362988 275.90917969 136.72680664 C281.14740386 133.96278247 286.40008555 131.23133752 291.6875 128.5625 C292.31011719 128.24474609 292.93273438 127.92699219 293.57421875 127.59960938 C304.74935316 122 304.74935316 122 309 122 C308.39713968 131.07102325 306.73665873 139.72413667 304.81640625 148.59570312 C303.51234019 154.81895327 302.68522562 160.87795377 302.23779297 167.21899414 C301.89588004 171.21769041 301.13238944 175.07624337 300.3125 179 C298.28517611 189.15301551 296.56261601 199.34880857 294.875 209.5625 C294.74703033 210.3361792 294.61906067 211.1098584 294.48721313 211.90698242 C293.87437437 215.61438908 293.26368655 219.32213808 292.65527344 223.03027344 C292.0989813 226.41450133 291.52283007 229.79510823 290.9453125 233.17578125 C289.60143644 241.22180845 288.57142205 249.31254922 287.5 257.3984375 C286.676544 263.49715851 285.75586116 269.52340235 284.49121094 275.54589844 C283.54478264 280.27427681 282.8603306 285.04761756 282.125 289.8125 C280.72712872 298.72747519 279.17177422 307.59207295 277.43237305 316.44628906 C276.15150076 323.02568827 275.06567604 329.62233663 274.12670898 336.25927734 C273.17302087 342.70746788 271.6090594 348.56376241 270 355 C90.81 355 -88.38 355 -273 355 C-276.36051184 334.83692893 -276.36051184 334.83692893 -277.4375 327.375 C-278.97794581 316.92603916 -280.72171548 306.51385706 -282.47949219 296.09960938 C-283.0053056 292.96840529 -283.5233886 289.83601391 -284.0390625 286.703125 C-284.21058838 285.66381836 -284.38211426 284.62451172 -284.55883789 283.55371094 C-284.87954669 281.60924868 -285.19916483 279.66460599 -285.51733398 277.71972656 C-286.31568488 272.89623171 -287.16777244 268.08852118 -288.09049988 263.28709412 C-289.60693605 255.38082299 -290.85495485 247.46424219 -291.96347046 239.48886108 C-294.1246879 224.01598059 -296.76057655 208.64869321 -299.58886719 193.28491211 C-301.19794747 184.54017054 -302.70645972 175.79828733 -304 167 C-304.4057944 164.28769113 -304.81199076 161.57544533 -305.21875 158.86328125 C-305.43101555 157.44726952 -305.64325499 156.03125387 -305.85546875 154.61523438 C-306.01474854 153.55308716 -306.01474854 153.55308716 -306.17724609 152.46948242 C-306.39320148 151.02624046 -306.60836512 149.58287981 -306.82275391 148.1394043 C-307.92975854 140.69190042 -309.04185086 133.26700554 -310.65039062 125.90698242 C-311 124 -311 124 -311 121 C-304.2813095 122.99613268 -298.19265192 125.7291421 -292 129 C-292 129.66 -292 130.32 -292 131 C-291.34 131.0825 -290.68 131.165 -290 131.25 C-287.41612689 131.89596828 -285.5948603 132.6240894 -283.2578125 133.82421875 C-282.55043945 134.18467285 -281.84306641 134.54512695 -281.11425781 134.91650391 C-280.41655273 135.27405762 -279.71884766 135.63161133 -279 136 C-277.84242188 136.57878906 -276.68484375 137.15757812 -275.4921875 137.75390625 C-274.90904785 138.04555664 -274.3259082 138.33720703 -273.72509766 138.63769531 C-272.43596695 139.28209055 -271.14655742 139.92592816 -269.85693359 140.56933594 C-265.70548332 142.64176702 -261.56092104 144.72711152 -257.421875 146.82421875 C-256.46168457 147.30882568 -255.50149414 147.79343262 -254.51220703 148.29272461 C-252.63651264 149.23945384 -250.76239306 150.18931196 -248.89013672 151.14282227 C-243.038861 154.08991301 -237.12298853 156.66947354 -231 159 C-231 159.66 -231 160.32 -231 161 C-230.28457031 161.11214844 -229.56914063 161.22429687 -228.83203125 161.33984375 C-225.79292495 162.04826991 -223.4549854 163.12591281 -220.6875 164.5625 C-219.10001953 165.37654297 -219.10001953 165.37654297 -217.48046875 166.20703125 C-216.33191406 166.79871094 -215.18335938 167.39039063 -214 168 C-211.50365645 169.25734202 -209.00182577 170.50360868 -206.5 171.75 C-201.95376266 174.01729087 -197.41343465 176.29538725 -192.8828125 178.59375 C-192.00947266 179.03493164 -191.13613281 179.47611328 -190.23632812 179.93066406 C-188.54843942 180.78344553 -186.86212463 181.63935259 -185.17773438 182.49902344 C-180.28966381 184.96304265 -175.3574886 187.07984977 -170.25830078 189.06689453 C-166.43484973 190.64670317 -162.98074463 192.7973068 -159.4453125 194.92578125 C-157.10846956 196.17672077 -157.10846956 196.17672077 -154.8046875 195.85546875 C-152.64163222 195.01955945 -152.64163222 195.01955945 -151 192 C-150.34 192 -149.68 192 -149 192 C-148.72397949 191.41387939 -148.44795898 190.82775879 -148.16357422 190.22387695 C-147.05065783 188.09681959 -145.84301614 186.31839218 -144.3828125 184.41796875 C-143.86436768 183.74088867 -143.34592285 183.06380859 -142.81176758 182.36621094 C-142.25513428 181.64723633 -141.69850098 180.92826172 -141.125 180.1875 C-140.54709717 179.43629883 -139.96919434 178.68509766 -139.3737793 177.91113281 C-135.08312905 172.35240512 -130.7166098 166.85731958 -126.31323242 161.38769531 C-122.71996265 156.91971286 -119.20205041 152.40012782 -115.72021484 147.8449707 C-112.66170801 143.84712654 -109.55727375 139.88766264 -106.4375 135.9375 C-103.01921015 131.60778557 -99.66507853 127.2412318 -96.375 122.8125 C-93.48961394 118.93445884 -90.52153562 115.15943017 -87.4375 111.4375 C-84.50590461 107.89726889 -81.73201362 104.30410745 -79.0625 100.5625 C-75.45521103 95.52658173 -71.54743192 90.8111655 -67.5546875 86.078125 C-63.69283932 81.46495587 -60.08224651 76.65635832 -56.43505859 71.87353516 C-53.66339344 68.25499851 -50.86180915 64.65966525 -48.0625 61.0625 C-47.46791992 60.29808594 -46.87333984 59.53367188 -46.26074219 58.74609375 C-42.52221295 53.94378857 -38.76653731 49.15535381 -35 44.375 C-31.80853033 40.32311283 -28.65587035 36.24841185 -25.578125 32.109375 C-18.93398446 23.22859309 -12.08425223 14.53457158 -5 6 C-4.44828125 5.33484375 -3.8965625 4.6696875 -3.328125 3.984375 C-2.22150962 2.65394977 -1.11136122 1.3264634 0 0 Z " fill="#FFDD0B" transform="translate(1164,38)"/>
<path d="M0 0 C2 1 2 1 2.97265625 3.65234375 C3.31167969 4.75707031 3.65070313 5.86179687 4 7 C4.79767542 9.19294925 5.61052882 11.38042962 6.4375 13.5625 C6.84871094 14.65691406 7.25992187 15.75132813 7.68359375 16.87890625 C8.91252265 19.79259821 10.36253919 22.30376218 12 25 C12.84721155 26.90157828 13.65862958 28.81942283 14.4375 30.75 C16.2549512 35.19811631 18.1341188 39.60481668 20.1015625 43.98828125 C21.43632342 46.97698505 22.71063309 49.9914772 24 53 C25.9208101 57.42831115 27.8801389 61.81858515 30.0625 66.125 C32.32499375 70.59675235 34.38174849 75.10402871 35.9375 79.875 C36.7842551 82.36545618 37.70753385 84.67314086 38.78125 87.06640625 C39.13759521 87.86175781 39.49394043 88.65710938 39.86108398 89.4765625 C40.98937969 91.97646914 42.12063049 94.47500344 43.25390625 96.97265625 C43.63353516 97.80990234 44.01316406 98.64714844 44.40429688 99.50976562 C45.1785693 101.21629862 45.95462154 102.92202518 46.73242188 104.62695312 C49.0254747 109.69354514 51.08045559 114.78106476 53 120 C53.64864441 121.52860685 54.31178541 123.05129546 55 124.5625 C56.15321754 127.11605313 57.28306084 129.6690529 58.375 132.25 C59.81532423 135.64223903 61.37909718 138.97306538 62.9375 142.3125 C65.13808473 147.05598265 67.17413824 151.82433225 69.08203125 156.69140625 C71.10463367 161.77803617 73.40065554 166.73929604 75.73828125 171.6875 C76.04854248 172.34596924 76.35880371 173.00443848 76.6784668 173.68286133 C77.29515641 174.98893262 77.91495965 176.2935397 78.53833008 177.59643555 C81.52285275 183.91077694 83.36884262 190.24234801 85 197 C85.66 197 86.32 197 87 197 C87.5345256 198.24420647 88.05208611 199.49570936 88.5625 200.75 C88.85253906 201.44609375 89.14257812 202.1421875 89.44140625 202.859375 C90.13835241 205.53018965 90.33088382 206.54525874 89 209 C86.51012837 210.31235111 84.17328954 211.36957333 81.5625 212.375 C75.88269909 214.6100315 70.81259475 217.25473491 65.61352539 220.45654297 C61.19985809 223.06310109 56.57651003 225.20349811 51.9375 227.375 C50.93380371 227.85050293 49.93010742 228.32600586 48.89599609 228.81591797 C44.38035428 230.9524822 39.85599789 233.06977871 35.32421875 235.171875 C33.92424195 235.8224064 32.5244932 236.47342887 31.125 237.125 C30.45476807 237.43703369 29.78453613 237.74906738 29.09399414 238.07055664 C23.22321021 240.83424044 17.49394237 243.84555431 11.79345703 246.94384766 C10.49091386 247.64836585 9.18259897 248.34233967 7.86816406 249.02441406 C6.63524309 249.66826563 5.4173749 250.34191314 4.21777344 251.04589844 C2.4765625 251.97265625 2.4765625 251.97265625 -1 253 C-3.89377097 252.04159295 -5.92798 251.13593341 -8.5 249.625 C-9.90501261 248.85840482 -11.31129572 248.09413429 -12.71875 247.33203125 C-13.42773438 246.93967285 -14.13671875 246.54731445 -14.8671875 246.14306641 C-18.17243955 244.37163897 -21.5812519 242.84957468 -25 241.3125 C-29.61817345 239.20375311 -33.91753182 236.89054047 -38.15625 234.09765625 C-40.15957294 232.90500001 -42.13461881 232.08162244 -44.3125 231.25 C-56.41464627 226.6237973 -68.02044006 220.60175097 -79.5 214.625 C-80.71030884 214.00020752 -80.71030884 214.00020752 -81.94506836 213.36279297 C-82.6953833 212.96721191 -83.44569824 212.57163086 -84.21875 212.1640625 C-85.2077832 211.64513428 -85.2077832 211.64513428 -86.21679688 211.11572266 C-88.09824687 209.93852845 -89.49623454 208.62404345 -91 207 C-88.74283734 199.7041207 -85.7975331 192.91179763 -82.5625 186 C-81.60500965 183.93771309 -80.64797124 181.87521629 -79.69140625 179.8125 C-79.23467529 178.82983154 -78.77794434 177.84716309 -78.30737305 176.8347168 C-75.01919021 169.7051013 -71.84297007 162.52073494 -68.87890625 155.25 C-66.50655879 149.45585542 -63.99998669 143.8110493 -61.11328125 138.25390625 C-59.93956569 135.87764702 -58.96786616 133.46649765 -58 131 C-57.40333106 129.64251302 -56.79913781 128.28830861 -56.1875 126.9375 C-54.09208386 122.26972598 -52.16025848 117.54149314 -50.24609375 112.796875 C-49.01901304 110.04267504 -47.56178986 107.57461271 -46 105 C-45.27488608 103.12129574 -44.55367868 101.24081492 -43.8671875 99.34765625 C-41.13037784 91.93854542 -37.95791192 84.78291392 -34.375 77.75 C-31.90236704 72.88484099 -29.8271449 68.13340709 -28 63 C-26.71305161 59.97894318 -25.35492672 56.99106465 -24 54 C-23.33212796 52.5005363 -22.6654558 51.00053758 -22 49.5 C-21.67 48.75878906 -21.34 48.01757812 -21 47.25390625 C-20.32946966 45.74259372 -19.66284301 44.2295436 -19 42.71484375 C-17.45026595 39.18556659 -15.86716349 35.71889294 -14.0625 32.3125 C-12.19150448 28.65121858 -10.85155255 24.88106376 -9.5 21 C-7.66519457 15.73196968 -5.63116259 10.9115035 -3 6 C-2.4225 4.845 -1.845 3.69 -1.25 2.5 C-0.8375 1.675 -0.425 0.85 0 0 Z " fill="#FFFEFD" transform="translate(1164,59)"/>
<path d="M0 0 C106.74516696 0 106.74516696 0 125 17 C136.11625299 28.54454995 139.17851087 40.77028589 139.1875 56.3125 C139.19974609 57.41529297 139.21199219 58.51808594 139.22460938 59.65429688 C139.25278426 75.38527384 133.87380172 87.57885927 123 99 C117.30057502 104.16376474 110.55442443 108.31195383 103 110 C104.28290011 112.67267796 105.67996636 115.12965511 107.35546875 117.57421875 C107.80986328 118.23768311 108.26425781 118.90114746 108.73242188 119.5847168 C109.21259766 120.27863525 109.69277344 120.97255371 110.1875 121.6875 C110.67927734 122.40139893 111.17105469 123.11529785 111.67773438 123.85083008 C114.82635082 128.39166732 118.07100173 132.81965462 121.5625 137.10546875 C123.23485843 139.30952809 124.57716641 141.62531708 126 144 C127.96595509 146.9816234 129.98158843 149.92870842 132 152.875 C132.57379395 153.71345459 133.14758789 154.55190918 133.73876953 155.41577148 C138.61621984 162.50847007 143.68024957 169.44946665 148.79833984 176.36914062 C150.61567386 178.83557525 152.40915415 181.31782647 154.1875 183.8125 C154.73792969 184.58207031 155.28835938 185.35164062 155.85546875 186.14453125 C157 188 157 188 157 190 C151.1286176 190.19822873 145.25919392 190.34314324 139.38525391 190.43945312 C137.38881495 190.47960859 135.39261017 190.53414767 133.39697266 190.60351562 C130.52187361 190.70092805 127.64988927 190.7460019 124.7734375 190.78125 C123.88570648 190.82254028 122.99797546 190.86383057 122.08334351 190.90637207 C118.35113099 190.90905547 115.9748616 190.89785663 113.1544342 188.30021667 C111.61107253 186.26237919 110.29314521 184.20322123 109 182 C108.11715425 180.71895422 107.22652364 179.44319627 106.32421875 178.17578125 C105.44364112 176.88916315 104.56477148 175.60137464 103.6875 174.3125 C102.72804023 172.91003607 101.76840226 171.50769404 100.80859375 170.10546875 C100.33663574 169.41501465 99.86467773 168.72456055 99.37841797 168.01318359 C97.34526551 165.04375831 95.29924136 162.08333672 93.25 159.125 C92.52425781 158.07699219 91.79851562 157.02898437 91.05078125 155.94921875 C89.18906638 153.27189546 87.31521951 150.60360738 85.4375 147.9375 C82.91858825 144.35066254 80.47850292 140.71940714 78.0625 137.0625 C73.69942939 130.48394023 69.16870501 124.00558647 64.26953125 117.8125 C63 116 63 116 63 114 C55.08 114 47.16 114 39 114 C39 139.08 39 164.16 39 190 C26.13 190 13.26 190 0 190 C0 127.3 0 64.6 0 0 Z " fill="#242021" transform="translate(543,441)"/>
<path d="M0 0 C12.87 0 25.74 0 39 0 C39 24.42 39 48.84 39 74 C68.7 74 98.4 74 129 74 C129 49.91 129 25.82 129 1 C141.54 1 154.08 1 167 1 C167 63.7 167 126.4 167 191 C154.46 191 141.92 191 129 191 C129 163.28 129 135.56 129 107 C99.3 107 69.6 107 39 107 C39 135.05 39 163.1 39 192 C26.13 192 13.26 192 0 192 C0 128.64 0 65.28 0 0 Z " fill="#242021" transform="translate(285,440)"/>
<path d="M0 0 C40.92 0 81.84 0 124 0 C124 10.23 124 20.46 124 31 C95.95 31 67.9 31 39 31 C39 45.85 39 60.7 39 76 C62.1 76 85.2 76 109 76 C109 85.9 109 95.8 109 106 C85.9 106 62.8 106 39 106 C39 124.15 39 142.3 39 161 C67.05 161 95.1 161 124 161 C124 171.23 124 181.46 124 192 C83.08 192 42.16 192 0 192 C0 128.64 0 65.28 0 0 Z " fill="#272324" transform="translate(711,440)"/>
<path d="M0 0 C-0.31082872 1.75029762 -0.62373179 3.50022694 -0.9375 5.25 C-1.11152344 6.22453125 -1.28554688 7.1990625 -1.46484375 8.203125 C-1.90379729 10.49721795 -2.40348592 12.74291971 -3 15 C-3.66 15 -4.32 15 -5 15 C-5.07347656 15.92232422 -5.07347656 15.92232422 -5.1484375 16.86328125 C-5.22320312 17.67152344 -5.29796875 18.47976563 -5.375 19.3125 C-5.44460937 20.11300781 -5.51421875 20.91351563 -5.5859375 21.73828125 C-6 24 -6 24 -8 27 C-11.66780827 25.93826603 -14.90402746 24.55034163 -18.25 22.75 C-23.10560444 20.26298309 -28.08686237 18.47243775 -33.25 16.75 C-34.40290527 16.36279785 -34.40290527 16.36279785 -35.57910156 15.96777344 C-43.11304938 13.51098021 -50.04157243 12.81833587 -57.9375 12.8125 C-59.23977539 12.79413086 -59.23977539 12.79413086 -60.56835938 12.77539062 C-69.68207372 12.75472461 -76.27973317 14.73380525 -83 21 C-86.50632321 25.60204922 -86.56426799 30.40833324 -86.41796875 36.0234375 C-85.62224457 41.69018356 -82.76367109 45.18445623 -78.875 49.1875 C-71.19357631 54.03013667 -63.22448758 56.58854624 -54.5 58.875 C-32.72233113 64.60061036 -11.39964818 71.77599509 1.9375 91.3125 C10.10270871 105.4249641 11.44145615 122.20287282 7.56591797 137.97314453 C6.79784971 140.72400851 5.88878896 143.39285575 4.875 146.0625 C4.52179688 147.00222656 4.16859375 147.94195313 3.8046875 148.91015625 C3.53914062 149.59980469 3.27359375 150.28945313 3 151 C2.34 151 1.68 151 1 151 C0.74863281 151.72574219 0.49726563 152.45148438 0.23828125 153.19921875 C-4.51673219 163.95424915 -15.6913402 171.1716784 -26.30078125 175.27734375 C-29.51284749 176.29674202 -32.73706077 177.1599149 -36 178 C-36.87140625 178.29777344 -37.7428125 178.59554687 -38.640625 178.90234375 C-60.94856282 185.97956964 -89.54477952 180.43627612 -109.92895508 170.1472168 C-116.44922235 166.72225643 -122.42514148 162.83456565 -128 158 C-127.3157196 151.28248676 -125.37116568 145.014434 -123.4375 138.5625 C-123.10814453 137.44939453 -122.77878906 136.33628906 -122.43945312 135.18945312 C-121.6306592 132.45830842 -120.81739587 129.72858014 -120 127 C-116.51749741 128.6534205 -113.97337799 130.64431186 -111.0625 133.1875 C-93.86850402 147.447054 -73.99609827 152.94942589 -52 151 C-45.77434253 149.7077623 -41.05195051 147.79985071 -36 144 C-35.34 144 -34.68 144 -34 144 C-33.71382813 143.4121875 -33.42765625 142.824375 -33.1328125 142.21875 C-32 140 -32 140 -30.9296875 138.28125 C-27.04475722 131.72003441 -27.11065829 125.0856531 -28.40234375 117.69921875 C-30.68534859 110.01459462 -37.39665162 105.74400531 -44.06948853 101.96914673 C-47.05114952 100.47230662 -50.11100135 99.65853976 -53.33203125 98.81640625 C-54.00868332 98.63416 -54.68533539 98.45191376 -55.38249207 98.2641449 C-58.23719658 97.49535323 -61.09760509 96.74901201 -63.95825195 96.00268555 C-71.60781466 93.99361204 -78.91727968 91.97956777 -85.89331055 88.12866211 C-88.20322026 86.89112444 -90.56084715 85.95320052 -93 85 C-100.12119567 81.35227497 -105.71104388 76.98577323 -111 71 C-111.54527344 70.40703125 -112.09054688 69.8140625 -112.65234375 69.203125 C-122.22810078 57.79993342 -123.99235599 42.3269173 -123 28 C-120.73079938 13.63435198 -113.14312991 2.51647172 -101.75 -6.25 C-71.00688043 -27.46233079 -29.23403698 -19.48935798 0 0 Z " fill="#252122" transform="translate(260,454)"/>
<path d="M0 0 C2.48307219 1.1353614 4.89264959 2.30654584 7.3125 3.5625 C8.73432455 4.28655741 10.15620111 5.0105127 11.578125 5.734375 C12.30580078 6.10755859 13.03347656 6.48074219 13.78320312 6.86523438 C17.36692121 8.69971914 20.96405791 10.50711797 24.5625 12.3125 C25.20421143 12.63742432 25.84592285 12.96234863 26.50708008 13.29711914 C30.61039624 15.36028385 34.7702508 17.20527769 39 19 C47.96674518 23.03014019 56.7708988 27.32710064 65.41748047 32.00317383 C76.90150053 38.20647424 88.6669851 43.83931892 100.46728516 49.41162109 C106.35306953 52.19459204 112.1853898 55.07152948 118 58 C119.49193244 58.74660366 120.984109 59.49271974 122.4765625 60.23828125 C126.31770833 62.15885417 130.15885417 64.07942708 134 66 C134 66.33 134 66.66 134 67 C43.91 67 -46.18 67 -139 67 C-136.82457626 63.7368644 -135.9240394 63.2700402 -132.44921875 61.765625 C-131.06887451 61.15666382 -131.06887451 61.15666382 -129.66064453 60.53540039 C-128.67950684 60.11121826 -127.69836914 59.68703613 -126.6875 59.25 C-119.13063112 55.91141565 -111.83612619 52.41174985 -104.62109375 48.38671875 C-102.32756432 47.17330154 -100.13270461 46.22448567 -97.6875 45.375 C-94.83420727 44.31106034 -92.96717819 43.43409434 -90.5 41.8125 C-73.97325466 31.09073431 -54.77779151 23.50067754 -36.9375 15.25 C-31.79633245 12.86282141 -26.69834207 10.40226507 -21.625 7.875 C-20.95033691 7.53960205 -20.27567383 7.2042041 -19.58056641 6.85864258 C-15.22586959 4.67264746 -11.00642834 2.33607346 -6.89453125 -0.28515625 C-4.17852164 -1.30995988 -2.77143757 -0.86010131 0 0 Z " fill="#FFFEFA" transform="translate(1166,320)"/>
<path d="M0 0 C12.87 0 25.74 0 39 0 C39 63.03 39 126.06 39 191 C26.13 191 13.26 191 0 191 C0 127.97 0 64.94 0 0 Z " fill="#262223" transform="translate(478,441)"/>
<path d="M0 0 C4.15240862 3.88864401 7.34244556 8.07261643 10.5625 12.75 C11.62884854 14.27868609 12.69525642 15.80733079 13.76171875 17.3359375 C14.30103027 18.11291992 14.8403418 18.88990234 15.39599609 19.69042969 C17.87589861 23.26118735 20.37211774 26.82032123 22.875 30.375 C23.3606543 31.06505127 23.84630859 31.75510254 24.34667969 32.46606445 C28.85259271 38.84162356 33.48674727 45.11988909 38.13134766 51.39477539 C41.59162848 56.07374411 44.99844238 60.77954574 48.30859375 65.56640625 C50.44962653 68.64692223 52.62972413 71.69901796 54.8125 74.75 C55.44913574 75.64005737 55.44913574 75.64005737 56.09863281 76.5480957 C56.96618173 77.7606702 57.83385858 78.97315318 58.70166016 80.18554688 C60.38797419 82.54220086 62.07229408 84.90027531 63.75634766 87.25854492 C64.58786831 88.42290237 65.41957514 89.58712689 66.25146484 90.7512207 C68.32552169 93.65368739 70.39741558 96.55765102 72.46484375 99.46484375 C72.87307373 100.0379126 73.28130371 100.61098145 73.7019043 101.20141602 C74.52151268 102.35301357 75.33940322 103.50583578 76.15551758 104.65991211 C78.41250881 107.83683137 80.72352877 110.95746702 83.109375 114.0390625 C83.62250244 114.71074463 84.13562988 115.38242676 84.66430664 116.07446289 C85.65876952 117.37241307 86.66532952 118.66120831 87.68530273 119.93920898 C89.58987249 122.44107592 90.95640226 124.2901394 91.15234375 127.48046875 C89.4468769 131.20937084 87.0020116 134.12438829 84.375 137.25 C83.26656973 138.60126945 82.15849434 139.95283007 81.05078125 141.3046875 C80.51791504 141.94889648 79.98504883 142.59310547 79.43603516 143.25683594 C74.94905663 148.70345727 70.7224152 154.36196708 66.44189453 159.97094727 C58.61881457 170.21997223 50.71469528 180.3972053 42.625 190.4375 C39.60273196 194.1997884 36.75565777 198.03874196 34 202 C32.05434841 199.08152261 31.62037022 197.81561381 31.08618164 194.47875977 C30.93584976 193.56252335 30.78551788 192.64628693 30.63063049 191.70228577 C30.47537399 190.70869553 30.32011749 189.71510529 30.16015625 188.69140625 C29.99253281 187.65547836 29.82490936 186.61955048 29.65220642 185.55223083 C29.11541749 182.22338473 28.58895095 178.89299496 28.0625 175.5625 C27.71223858 173.38466098 27.36133377 171.20692533 27.00976562 169.02929688 C25.28500473 158.30578346 23.62328619 147.57424112 22.0276947 136.83079529 C20.97230727 129.74866533 19.81896121 122.68509551 18.625 115.625 C18.19132938 113.04298166 17.75773798 110.46095001 17.32421875 107.87890625 C17.10556152 106.57969238 16.8869043 105.28047852 16.66162109 103.94189453 C16.00564026 100.03360428 15.35526488 96.1244259 14.70703125 92.21484375 C14.28389705 89.66405539 13.8607204 87.11327406 13.4375 84.5625 C13.12776245 82.69561523 13.12776245 82.69561523 12.81176758 80.79101562 C11.68633138 74.03394128 10.52720728 67.28422777 9.32983398 60.53955078 C7.78299784 51.82500152 6.45517874 43.14172194 5.42578125 34.3515625 C4.97179059 30.77794793 4.32643219 27.29770266 3.57421875 23.77734375 C2.77361655 19.90504331 2.0719074 16.01712347 1.375 12.125 C1.239729 11.38644775 1.10445801 10.64789551 0.96508789 9.88696289 C0.36429357 6.5131527 0 3.4402084 0 0 Z " fill="#FFFEFA" transform="translate(863,179)"/>
<path d="M0 0 C0.33 0 0.66 0 1 0 C-0.32720588 21.65441176 -0.32720588 21.65441176 -3 27 C-3.34918425 29.07749955 -3.6543272 31.16247822 -3.9375 33.25 C-4.11023437 34.4978125 -4.28296875 35.745625 -4.4609375 37.03125 C-4.64103004 38.35411159 -4.82071284 39.67702902 -5 41 C-5.35017012 43.5839268 -5.7049454 46.16706823 -6.0625 48.75 C-6.29646484 50.47476563 -6.29646484 50.47476563 -6.53515625 52.234375 C-7 55 -7 55 -8 57 C-8.25280619 58.48772282 -8.46237343 59.982934 -8.6484375 61.48046875 C-8.76509766 62.38925781 -8.88175781 63.29804688 -9.00195312 64.234375 C-9.12505859 65.20890625 -9.24816406 66.1834375 -9.375 67.1875 C-10.22288607 73.67821403 -11.13465144 80.09723388 -12.5 86.5 C-13.70436008 92.21299011 -14.56694737 97.90211851 -15.3125 103.6875 C-16.61211066 113.63877913 -18.16692241 123.53863374 -19.8125 133.4375 C-19.93996613 134.20498566 -20.06743225 134.97247131 -20.19876099 135.76321411 C-22.24910487 148.04679715 -24.58188855 160.26055949 -27.01733398 172.47265625 C-28.87602589 181.94829136 -30.23430239 191.37597321 -31 201 C-34.75065506 199.51622437 -36.30647147 197.5438991 -38.5625 194.25 C-41.64081147 189.87913786 -44.80548008 185.62494295 -48.125 181.4375 C-49.06259242 180.25137513 -50.0000891 179.06517458 -50.9375 177.87890625 C-51.42863281 177.25773926 -51.91976563 176.63657227 -52.42578125 175.99658203 C-60.07960613 166.28923404 -67.65439545 156.52411334 -75.04296875 146.61328125 C-76.92471976 144.10052391 -78.82783066 141.60694457 -80.75 139.125 C-81.30300781 138.41085937 -81.85601563 137.69671875 -82.42578125 136.9609375 C-83.87148805 135.16008188 -85.38756575 133.4605717 -86.9375 131.75 C-89 129 -89 129 -89.40625 126.703125 C-88.84882099 122.99407811 -86.90019546 120.79134809 -84.5625 118 C-83.63406926 116.8445719 -82.70834964 115.6869608 -81.78515625 114.52734375 C-81.31609863 113.94065918 -80.84704102 113.35397461 -80.36376953 112.74951172 C-78.29599839 110.09687154 -76.39881807 107.33769564 -74.5 104.5625 C-71.45713791 100.11524002 -68.38556022 95.69490211 -65.25 91.3125 C-64.8384668 90.73717529 -64.42693359 90.16185059 -64.00292969 89.5690918 C-61.66789291 86.31113839 -59.32173603 83.0614176 -56.96875 79.81640625 C-51.24645245 71.92234046 -45.57577032 63.9984371 -40 56 C-33.43892397 46.58909916 -26.74710366 37.27815376 -20 28 C-19.23816406 26.95070312 -18.47632813 25.90140625 -17.69140625 24.8203125 C-15.09244083 21.24356866 -12.48994655 17.66950339 -9.87890625 14.1015625 C-5.61317929 8.28181747 -5.61317929 8.28181747 -1.5625 2.3125 C-1.046875 1.549375 -0.53125 0.78625 0 0 Z " fill="#FFFEFB" transform="translate(1462,179)"/>
<path d="M0 0 C3.06825349 2.03015461 5.06130386 4.93922426 7.24853516 7.84350586 C7.98027954 8.79567993 7.98027954 8.79567993 8.72680664 9.76708984 C9.6986854 11.03241453 10.66759463 12.30002643 11.63330078 13.57006836 C13.23661799 15.67577432 14.86615582 17.7602789 16.49853516 19.84350586 C19.76186493 24.04592333 23.00305709 28.26535804 26.24487305 32.484375 C28.63253642 35.5906511 31.02753853 38.69085925 33.43603516 41.78100586 C33.97228516 42.47709961 34.50853516 43.17319336 35.06103516 43.89038086 C36.5580591 45.79908638 38.08086573 47.67523104 39.62353516 49.54663086 C40.56118699 50.70796662 41.49868738 51.86942467 42.43603516 53.03100586 C42.89429688 53.5743457 43.35255859 54.11768555 43.82470703 54.67749023 C45.82354441 57.18142674 46.94760896 58.67560667 46.88525391 61.93725586 C45.91292847 64.33805941 44.88051371 66.02637079 43.24853516 68.03100586 C41.07073428 70.79712261 39.03931229 73.57707016 37.12353516 76.53100586 C33.98587915 81.30749007 30.53906169 85.82559814 27.08837891 90.37866211 C25.30407526 92.78471947 23.62596186 95.20590656 21.99853516 97.71850586 C19.09735746 102.17998081 15.85501089 106.34466713 12.5378418 110.50146484 C10.4292292 113.18049112 8.53976841 115.86779052 6.88134766 118.83959961 C5.08388364 122.01945061 3.17842567 124.84106335 0.93603516 127.71850586 C0.27603516 128.5834668 -0.38396484 129.44842773 -1.06396484 130.33959961 C-3.06396484 132.28100586 -3.06396484 132.28100586 -7.06396484 132.28100586 C-7.36689453 131.47018555 -7.66982422 130.65936523 -7.98193359 129.82397461 C-10.43232082 123.34741269 -13.01533811 116.99077503 -15.95068359 110.71850586 C-17.07053635 108.26661772 -18.06638482 105.78473611 -19.06396484 103.28100586 C-19.8032573 101.60956204 -20.55386506 99.94309072 -21.31396484 98.28100586 C-21.96751953 96.85014648 -21.96751953 96.85014648 -22.63427734 95.39038086 C-24.1466444 92.10118913 -25.66756127 88.81602651 -27.18896484 85.53100586 C-30.17463824 79.05824826 -32.96300375 72.56754316 -35.50146484 65.90600586 C-38.19742591 58.8643165 -41.14241728 52.06142243 -44.56396484 45.34350586 C-48.02051682 38.48374376 -50.95961973 31.92307406 -52.06396484 24.28100586 C-39.07368259 17.29323442 -25.92437051 10.72982412 -12.55859375 4.48901367 C-10.93531816 3.70295303 -9.33116308 2.87566569 -7.75292969 2.00268555 C-2.52797023 -0.88063311 -2.52797023 -0.88063311 0 0 Z " fill="#FFFEFC" transform="translate(1316.06396484375,244.718994140625)"/>
<path d="M0 0 C4.38190603 0.72339991 7.84570607 2.83473269 11.69921875 4.9765625 C13.40419117 5.89983632 15.10993327 6.8216901 16.81640625 7.7421875 C17.6681543 8.20431641 18.51990234 8.66644531 19.39746094 9.14257812 C23.0046558 11.07566098 26.65759977 12.90940156 30.32421875 14.7265625 C30.97116699 15.04971436 31.61811523 15.37286621 32.28466797 15.70581055 C35.34727553 17.23242786 38.41891664 18.73469592 41.51171875 20.19921875 C42.60484375 20.72386719 43.69796875 21.24851562 44.82421875 21.7890625 C45.78199219 22.23894531 46.73976563 22.68882812 47.7265625 23.15234375 C49.88671875 24.4765625 49.88671875 24.4765625 50.88671875 27.4765625 C50.35546875 29.39453125 50.35546875 29.39453125 49.38671875 31.6640625 C48.82984375 32.98083984 48.82984375 32.98083984 48.26171875 34.32421875 C47.80796875 35.36449219 47.35421875 36.40476562 46.88671875 37.4765625 C46.32391839 38.78763152 45.76143751 40.09883772 45.19921875 41.41015625 C42.54361446 47.56899036 39.85574909 53.67556943 36.77734375 59.63671875 C35.32484335 62.63727879 34.16073965 65.74914923 32.9453125 68.8515625 C30.65453017 74.53202643 28.02350318 80.06766216 25.41015625 85.60546875 C22.86702721 91.02428986 20.47804986 96.42866463 18.38671875 102.0390625 C16.33993218 107.49936087 13.90049699 112.63808051 11.234375 117.8203125 C10.14012493 119.97709524 9.13284487 122.12259125 8.19921875 124.3515625 C6.889958 127.46885001 5.42762889 130.4681189 3.88671875 133.4765625 C-0.46379793 131.95638196 -2.44403613 128.62615942 -4.92578125 124.9765625 C-5.36519043 124.34580811 -5.80459961 123.71505371 -6.25732422 123.06518555 C-7.55006212 121.20731761 -8.83209336 119.34240515 -10.11328125 117.4765625 C-11.31989027 115.74619217 -12.52798918 114.01685876 -13.73828125 112.2890625 C-14.28355469 111.50789063 -14.82882812 110.72671875 -15.390625 109.921875 C-21.12856621 101.76134044 -21.12856621 101.76134044 -27.2265625 93.87109375 C-29.13840576 91.44467569 -30.55314817 89.03681439 -31.98828125 86.3203125 C-33.49061451 83.85815521 -35.29750166 81.718462 -37.11328125 79.4765625 C-39.03527533 76.97495282 -40.92036957 74.4470144 -42.80078125 71.9140625 C-43.29900391 71.25470703 -43.79722656 70.59535156 -44.31054688 69.91601562 C-44.78556641 69.27470703 -45.26058594 68.63339844 -45.75 67.97265625 C-46.18014404 67.39700928 -46.61028809 66.8213623 -47.0534668 66.22827148 C-48.24426129 64.26007281 -48.84975156 62.7656202 -49.11328125 60.4765625 C-47.54101386 58.26811756 -46.001539 56.392455 -44.17578125 54.4140625 C-43.14284679 53.24742914 -42.11292442 52.07812237 -41.0859375 50.90625 C-40.57562988 50.32584961 -40.06532227 49.74544922 -39.53955078 49.14746094 C-37.59535924 46.86980826 -35.84747482 44.47924302 -34.11328125 42.0390625 C-29.79212115 35.96655645 -25.1860871 30.1409512 -20.55859375 24.30126953 C-18.61024522 21.84147951 -16.66677615 19.3778841 -14.72631836 16.91186523 C-13.78647653 15.71835142 -12.84462557 14.5264166 -11.90063477 13.33618164 C-8.93281692 9.58024746 -6.13207855 5.75070801 -3.52734375 1.734375 C-2.11328125 0.4765625 -2.11328125 0.4765625 0 0 Z " fill="#FFFEFC" transform="translate(1012.11328125,244.5234375)"/>
<path d="M0 0 C0.33 0.99 0.66 1.98 1 3 C0.05023838 4.69579794 -0.95896909 6.35864921 -2 8 C-2.81022165 10.00536587 -3.57882691 12.02788082 -4.3125 14.0625 C-5.984392 18.52589935 -7.81264521 22.76586591 -10 27 C-12.67626558 32.1882591 -14.75809566 37.46889091 -16.796875 42.93359375 C-18.17497475 46.44595837 -19.81950957 49.73417781 -21.55078125 53.08203125 C-26.43718867 62.92070064 -30.67207914 73.11144395 -34.8515625 83.265625 C-36.38853145 86.92507488 -38.03005328 90.53233012 -39.69140625 94.13671875 C-42.73200053 100.78972057 -45.65255373 107.49370834 -48.55249023 114.20898438 C-52.41630493 123.15093413 -56.34445345 132.04631979 -60.52734375 140.84375 C-63.01163479 146.16817217 -65.228947 151.54730256 -67.25 157.0625 C-69.57626318 163.17422781 -72.35044466 168.9123976 -75.3515625 174.7109375 C-78.00178112 179.99881446 -80.1977575 185.46665356 -82.4375 190.9375 C-84.43234766 195.74326936 -86.60275953 200.38309242 -89 205 C-93.16635799 204.36744698 -96.49059202 202.96504579 -100.26953125 201.12109375 C-100.8637085 200.83300339 -101.45788574 200.54491302 -102.07006836 200.24809265 C-103.98699644 199.31682362 -105.89977396 198.37736498 -107.8125 197.4375 C-109.12373786 196.79824634 -110.4351805 196.15941256 -111.74682617 195.52099609 C-120.86252862 191.07725865 -129.95521214 186.58649085 -139 182 C-139 177.37326565 -138.3801951 176.77584575 -135.5 173.375 C-134.77296875 172.50101563 -134.0459375 171.62703125 -133.296875 170.7265625 C-132.53890625 169.82679688 -131.7809375 168.92703125 -131 168 C-129.57730579 166.25489667 -128.16040385 164.5050514 -126.75 162.75 C-125.76386719 161.52410156 -125.76386719 161.52410156 -124.7578125 160.2734375 C-123.27229104 158.35216307 -121.92371187 156.42407873 -120.625 154.375 C-119.820625 153.199375 -119.820625 153.199375 -119 152 C-118.34 152 -117.68 152 -117 152 C-116.77570313 151.30132812 -116.55140625 150.60265625 -116.3203125 149.8828125 C-114.70665997 146.359512 -112.42512944 143.73888543 -109.875 140.875 C-105.61251601 135.97143619 -101.6850218 130.95105344 -97.921875 125.6484375 C-95.26711482 121.99004847 -92.42687306 118.49470776 -89.56640625 114.99609375 C-87.95904996 113.08505924 -87.95904996 113.08505924 -87 111 C-86.34 111 -85.68 111 -85 111 C-84.76410156 110.29230469 -84.52820312 109.58460938 -84.28515625 108.85546875 C-82.77339735 105.49651507 -80.82026492 103.11597783 -78.4375 100.3125 C-75.40830054 96.86183949 -75.40830054 96.86183949 -73 93 C-72.34 93 -71.68 93 -71 93 C-70.7628125 92.2884375 -70.525625 91.576875 -70.28125 90.84375 C-68.783068 87.51851679 -66.89031553 85.25340143 -64.5 82.5 C-60.9008902 78.29263607 -57.41635382 74.03062238 -54.0625 69.625 C-50.57790497 65.05386983 -47.05957323 60.5130415 -43.5 56 C-39.85389783 51.37034614 -36.22361122 46.72919527 -32.625 42.0625 C-32.20927734 41.52407471 -31.79355469 40.98564941 -31.36523438 40.4309082 C-29.16470818 37.56619879 -27.04476845 34.66496985 -25 31.6875 C-24.34 30.800625 -23.68 29.91375 -23 29 C-22.34 29 -21.68 29 -21 29 C-20.79890625 28.33613281 -20.5978125 27.67226562 -20.390625 26.98828125 C-18.46267104 22.84534647 -15.67831087 19.669373 -12.75 16.1875 C-8.3452354 10.89671953 -4.07912122 5.54719732 0 0 Z " fill="#FFFEFA" transform="translate(1156,58)"/>
<path d="M0 0 C7.76442436 7.58796017 14.22768531 16.21578544 20.6953125 24.91015625 C26.64869626 32.89172668 32.76443522 40.73758114 39 48.5 C46.50063044 57.83977883 53.76879977 67.34141255 60.9375 76.9375 C66.06131935 83.79407512 71.30502716 90.54612016 76.61914062 97.25585938 C80.76336703 102.49036316 84.8884376 107.73981064 89 113 C89.66773438 113.85335937 90.33546875 114.70671875 91.0234375 115.5859375 C95 120.75733568 95 120.75733568 95 123 C95.66 123 96.32 123 97 123 C98.55859375 124.9140625 98.55859375 124.9140625 100.4375 127.625 C103.56306514 132.02997062 106.77127135 136.32903486 110.125 140.5625 C111.06254964 141.74865868 112.00004783 142.93485804 112.9375 144.12109375 C113.42863281 144.74226074 113.91976563 145.36342773 114.42578125 146.00341797 C119.65681726 152.63794224 124.83435556 159.31449988 130 166 C130.49435547 166.63905273 130.98871094 167.27810547 131.49804688 167.93652344 C132.79631612 169.61990341 134.08732294 171.30851077 135.375 173 C136.08398438 173.928125 136.79296875 174.85625 137.5234375 175.8125 C139 178 139 178 139 180 C129.37852853 185.21111707 119.6902822 190.18544264 109.77416992 194.81396484 C104.19532428 197.41869787 98.7039916 200.14520895 93.25 203.00390625 C91 204 91 204 88 204 C85.36933937 198.31329532 82.81557239 192.60997462 80.4375 186.8125 C79.06970869 183.48889494 77.66570832 180.24674562 76 177.0625 C74.2454407 173.67317058 72.90100531 170.19851728 71.5625 166.625 C70.05852614 162.62360165 68.470566 158.79287626 66.5 155 C64.07453149 150.31477821 62.23564368 145.50146287 60.3828125 140.56640625 C57.1203874 132.15229859 53.5154598 123.83301333 49.375 115.8125 C46.94839845 111.08617803 45.11261818 106.19742476 43.25 101.2265625 C41.73858444 97.32522108 40.01741934 93.55019487 38.25390625 89.7578125 C36.91022102 86.80254218 35.66841238 83.81637791 34.4375 80.8125 C32.75180565 76.71716105 30.91801447 72.77394475 28.890625 68.83984375 C27.7119824 66.40501628 26.82719488 63.87575716 25.9140625 61.33203125 C24.28169202 57.16739374 22.30670657 53.15485998 20.41015625 49.10546875 C19.31240323 46.68797941 18.32430435 44.31075454 17.4375 41.8125 C16.3797837 38.8434718 15.0740034 36.11181307 13.625 33.3125 C11.14254846 28.46616177 9.23692677 23.49599472 7.3359375 18.3984375 C5.48322182 13.68538885 3.32850213 9.14778656 1.13671875 4.58203125 C0 2 0 2 0 0 Z " fill="#FFFEFA" transform="translate(1172,59)"/>
<path d="M0 0 C0.2475 0.639375 0.495 1.27875 0.75 1.9375 C2.09497384 5.23268591 3.53771444 8.47430392 5 11.71875 C6.40353327 14.92056028 7.68047639 18.1649425 8.9296875 21.4296875 C10.42954414 25.30948194 11.92259368 29.0502906 14.0625 32.625 C15.83137217 35.70626119 17.03621165 38.57185555 18.21875 41.89453125 C19.32235212 44.86873896 20.62729413 47.74099414 21.9375 50.62890625 C22.76684535 52.47968796 23.57184491 54.34138476 24.3671875 56.20703125 C26.21930728 60.54351821 28.1766438 64.83112432 30.125 69.125 C33.89851628 77.46063391 37.53695833 85.8477547 41.08056641 94.28369141 C41.43425293 95.1194873 41.78793945 95.9552832 42.15234375 96.81640625 C42.46163818 97.55318604 42.77093262 98.28996582 43.08959961 99.04907227 C44.05508006 101.24599925 44.05508006 101.24599925 46 104 C46 105.32 46 106.64 46 108 C40.26317204 106.37032638 35.28390554 103.62254156 30.0625 100.8125 C22.87463113 96.99450328 15.6676603 93.38699507 8.265625 90.00390625 C-0.93553764 85.73845152 -9.94772641 81.05909491 -19.00683594 76.50244141 C-21.54562809 75.22807543 -24.08747349 73.96043824 -26.6328125 72.69921875 C-34.20991149 68.94265942 -41.71596424 65.07738455 -49.15649414 61.05566406 C-53.36232558 58.79875147 -57.59732427 56.84335331 -62 55 C-63.134375 54.4225 -64.26875 53.845 -65.4375 53.25 C-72.13491417 49.84137569 -79.10431402 46.97920414 -86 44 C-86 43.01 -86 42.02 -86 41 C-82.48085532 39.22579644 -78.9593881 37.45625064 -75.4375 35.6875 C-74.44685547 35.18798828 -73.45621094 34.68847656 -72.43554688 34.17382812 C-68.50997474 32.20452117 -64.6136541 30.25900531 -60.56640625 28.55078125 C-55.06249831 26.15751569 -49.8091123 23.29415097 -44.5 20.5 C-32.8407613 14.3939914 -21.0553989 8.60075349 -9.13696289 3.01464844 C-7.70890794 2.33659561 -6.29836683 1.62040245 -4.90795898 0.86816406 C-3 0 -3 0 0 0 Z " fill="#FFFEFB" transform="translate(1258,273)"/>
<path d="M0 0 C4.45793297 0.59607013 7.942855 2.39757811 11.8125 4.5625 C13.15267921 5.29474069 14.49385893 6.02515262 15.8359375 6.75390625 C16.52397461 7.12789551 17.21201172 7.50188477 17.92089844 7.88720703 C21.22731987 9.65689572 24.57854326 11.33272624 27.9375 13 C28.59613037 13.32726074 29.25476074 13.65452148 29.93334961 13.99169922 C31.27446821 14.65728537 32.61585938 15.32232258 33.95751953 15.98681641 C37.43442369 17.71155371 40.90422515 19.45047194 44.375 21.1875 C45.70442288 21.85157091 47.03384983 22.51563369 48.36328125 23.1796875 C50.57184191 24.28368123 52.77722095 25.39319435 54.98046875 26.5078125 C55.83253906 26.93835938 56.68460938 27.36890625 57.5625 27.8125 C58.26503906 28.16957031 58.96757813 28.52664063 59.69140625 28.89453125 C62.10993636 30.05264296 64.56726729 31.09859482 67.03540039 32.14575195 C70.70803168 33.74268707 74.31879167 35.47272219 77.9375 37.1875 C78.71673828 37.55552734 79.49597656 37.92355469 80.29882812 38.30273438 C82.19974355 39.20071283 84.09994634 40.10019956 86 41 C85 44 85 44 81.7109375 45.796875 C80.27029413 46.45818442 78.82457906 47.1085142 77.375 47.75 C76.60736328 48.10070557 75.83972656 48.45141113 75.04882812 48.81274414 C72.70305699 49.88386037 70.35192816 50.94248557 68 52 C65.49590051 53.13705934 62.99607012 54.28292418 60.5 55.4375 C59.89236816 55.71835449 59.28473633 55.99920898 58.65869141 56.28857422 C53.20483317 58.84171792 47.91399917 61.6719198 42.61279297 64.52539062 C36.57595334 67.75120355 30.4205392 70.6707371 24.21655273 73.55859375 C18.65347002 76.16725507 13.22281225 78.96439259 7.8125 81.875 C-0.39219344 86.27623874 -8.77823019 90.1846246 -17.26342773 94.01269531 C-23.99142672 97.05378355 -30.62762716 100.22466323 -37.18041992 103.62744141 C-40.08267141 105.11993652 -42.77495379 106.40927371 -46 107 C-44.16434267 101.06110865 -41.97566283 95.31258291 -39.625 89.5625 C-39.34519287 88.87164307 -39.06538574 88.18078613 -38.77709961 87.46899414 C-37.19201873 83.63027352 -35.47270041 79.90923842 -33.58203125 76.2109375 C-30.25397161 69.64880626 -27.57541916 62.83393963 -24.83789062 56.00976562 C-22.33333494 49.87656234 -19.53798568 44.0814503 -16.2565918 38.32397461 C-14.80456582 35.63855878 -13.8757185 32.91906167 -13 30 C-12.34 29.01 -11.68 28.02 -11 27 C-10.31105297 25.0075652 -9.64664176 23.00656395 -9 21 C-6.19099501 13.9201609 -3.13701813 6.93999542 0 0 Z " fill="#FFFEFB" transform="translate(1069,273)"/>
<path d="M0 0 C7.88513923 2.31620739 14.82030412 5.83754624 22.0625 9.6875 C23.87945792 10.64287946 25.69775868 11.59567049 27.51608276 12.54844666 C29.2851106 13.47578213 31.05296674 14.40535168 32.82080078 15.33496094 C43.07339757 20.70454396 53.48209636 25.72306342 63.95092773 30.65454102 C70.87982292 33.92502428 77.73425432 37.32853977 84.57470703 40.77929688 C90.84355838 43.9345472 97.12514462 47.06453108 103.40405273 50.19970703 C108.25719555 52.62397131 113.1089069 55.05029752 117.9453125 57.5078125 C119.02425781 58.05405273 119.02425781 58.05405273 120.125 58.61132812 C121.96244227 59.5426099 123.79773398 60.47813159 125.6328125 61.4140625 C129.36650109 63.17262116 133.11935248 64.59889094 137 66 C135.76276754 69.82417306 133.92931702 72.37134088 131.34008789 75.41162109 C129.33015744 77.79395076 127.45334754 80.27256371 125.5625 82.75 C117.04417651 93.87452876 108.47742898 104.96336402 99.6875 115.875 C97.05114564 119.19485363 94.51587965 122.58831472 92 126 C87.51103506 124.50025428 85.69807911 120.93269694 83.3125 117.125 C78.24027248 109.26749999 72.86762966 101.71412973 66.9296875 94.4765625 C65 92 65 92 63.62109375 89.6796875 C60.92396061 85.22129392 57.64775295 81.18291119 54.47070312 77.05859375 C52.06263215 73.8940449 49.79483936 70.77725308 47.86328125 67.296875 C46.15422635 64.27288688 44.34997414 61.77888482 42.125 59.125 C38.98504743 55.37485422 36.28769418 51.46014845 33.60205078 47.38232422 C30.98710085 43.49377173 28.17729336 39.75459813 25.375 36 C16.62943905 24.20469301 8.03207107 12.29598631 0 0 Z " fill="#FFFEFC" transform="translate(868,174)"/>
<path d="M0 0 C0.99 0.495 0.99 0.495 2 1 C-3.51737919 8.7467491 -9.05647301 16.47741878 -14.625 24.1875 C-15.46454224 25.35043579 -15.46454224 25.35043579 -16.32104492 26.53686523 C-19.19669066 30.51679965 -22.0894063 34.48302249 -25 38.4375 C-29.28954852 44.31271496 -33.35939502 50.33935903 -37.43359375 56.36499023 C-40.15557282 60.37587253 -42.94029302 64.23662324 -46 68 C-47.57550072 70.17957872 -49.13781904 72.36482621 -50.6875 74.5625 C-53.93076321 79.13917162 -57.22979456 83.65886321 -60.625 88.125 C-64.27624367 92.95489075 -67.63778921 97.92269652 -70.95703125 102.984375 C-73.80001573 107.18090276 -76.87766453 111.18516443 -79.9453125 115.21875 C-82.51804888 118.70123727 -84.78386862 122.28261833 -87 126 C-90.76619201 124.74460266 -91.39692784 123.3616645 -93.625 120.125 C-96.35924851 116.25437597 -99.15479764 112.51647687 -102.1875 108.875 C-106.69764032 103.43630138 -110.97855115 97.83859188 -115.25244141 92.21313477 C-118.30380179 88.20186164 -121.39065766 84.22996199 -124.5625 80.3125 C-128.23268943 75.76146511 -131.42304289 71.26595583 -134 66 C-132.48986328 65.30777344 -132.48986328 65.30777344 -130.94921875 64.6015625 C-123.14573703 60.99322804 -115.45601763 57.24379075 -107.875 53.1875 C-94.8682871 46.24448191 -81.50530631 40.0446521 -68.15649414 33.79345703 C-67.46547607 33.46974121 -66.77445801 33.14602539 -66.0625 32.8125 C-65.38243896 32.49394043 -64.70237793 32.17538086 -64.00170898 31.84716797 C-57.26572968 28.67853732 -50.61531143 25.34624715 -43.97070312 21.99121094 C-42.02046079 21.01029123 -40.06585619 20.03872153 -38.109375 19.0703125 C-29.85528964 14.97930937 -21.67843882 10.76260335 -13.55737305 6.41259766 C-9.11650146 4.04926841 -4.71772163 1.76088209 0 0 Z " fill="#FFFEFB" transform="translate(1456,174)"/>
<path d="M0 0 C33.66 0 67.32 0 102 0 C102 3.63 102 7.26 102 11 C72.3 11 42.6 11 12 11 C12 35.42 12 59.84 12 85 C36.75 85 61.5 85 87 85 C87 88.63 87 92.26 87 96 C61.92 96 36.84 96 11 96 C11 124.05 11 152.1 11 181 C41.03 181 71.06 181 102 181 C102 184.63 102 188.26 102 192 C68.34 192 34.68 192 0 192 C0 128.64 0 65.28 0 0 Z " fill="#FFDD09" transform="translate(1348,440)"/>
<path d="M0 0 C33.66 0 67.32 0 102 0 C102 3.63 102 7.26 102 11 C71.97 11 41.94 11 11 11 C11 35.75 11 60.5 11 86 C35.42 86 59.84 86 85 86 C85 89.3 85 92.6 85 96 C60.58 96 36.16 96 11 96 C11 124.05 11 152.1 11 181 C40.7 181 70.4 181 101 181 C101 184.3 101 187.6 101 191 C67.67 191 34.34 191 0 191 C0 127.97 0 64.94 0 0 Z " fill="#FFDC04" transform="translate(879,440)"/>
<path d="M0 0 C3.19932129 1.36330822 4.82393449 2.72578551 6.8125 5.5625 C8.92646748 8.50619971 11.07119351 11.40167301 13.3125 14.25 C16.06912558 17.77775212 18.762319 21.34760934 21.4375 24.9375 C24.86304002 29.52227522 28.38889888 34.00515235 31.984375 38.45703125 C34.12840695 41.16200179 36.19269528 43.91605893 38.25 46.6875 C42.29769393 52.13604801 46.51695794 57.42717547 50.83886719 62.66088867 C51.32129883 63.25361572 51.80373047 63.84634277 52.30078125 64.45703125 C52.72528564 64.97241455 53.14979004 65.48779785 53.5871582 66.01879883 C55.61663218 68.86469157 57.26579248 71.96513684 59 75 C22.37 75 -14.26 75 -52 75 C-50.27712022 70.69280055 -48.38832982 67.47734283 -45.6875 63.8125 C-45.03914185 62.91869629 -45.03914185 62.91869629 -44.37768555 62.00683594 C-43.43198664 60.70368783 -42.48405168 59.40216024 -41.53417969 58.10205078 C-38.77975086 54.32808004 -36.04798271 50.5377128 -33.3125 46.75 C-32.75369141 45.9775293 -32.19488281 45.20505859 -31.61914062 44.40917969 C-28.23370744 39.72552747 -24.89213014 35.01499483 -21.59375 30.26953125 C-19.17074886 26.81913011 -16.67725137 23.42089229 -14.19140625 20.015625 C-11.65272825 16.52211446 -9.13571428 13.0136367 -6.625 9.5 C-6.19598389 8.90026367 -5.76696777 8.30052734 -5.32495117 7.68261719 C-3.51269386 5.14379333 -1.73045326 2.59567988 0 0 Z " fill="#FFFEF9" transform="translate(1367,312)"/>
<path d="M0 0 C1.75390625 0.16015625 1.75390625 0.16015625 4 1 C5.90234375 3.30859375 5.90234375 3.30859375 7.9375 6.4375 C8.72307474 7.62124507 9.51097495 8.80344906 10.30078125 9.984375 C10.7282666 10.62697266 11.15575195 11.26957031 11.59619141 11.93164062 C14.18501791 15.74599508 16.91281762 19.46038389 19.625 23.1875 C23.55054244 28.60109429 27.44786865 34.02914402 31.265625 39.51953125 C41.64244903 54.58579362 41.64244903 54.58579362 52.72265625 69.1171875 C54 71 54 71 54 74 C17.7 74 -18.6 74 -56 74 C-54.16865693 69.42164233 -52.77635014 67.29268536 -49.625 63.6875 C-45.59274151 58.99060794 -41.80661186 54.16351316 -38.125 49.1875 C-34.18449127 43.87129199 -30.16183197 38.64484553 -26 33.5 C-21.27433028 27.65521491 -16.73035626 21.69483171 -12.24511719 15.6640625 C-8.28121556 10.34360215 -4.19916217 5.13779841 0 0 Z " fill="#FFFEF9" transform="translate(957,313)"/>
<path d="M0 0 C48.51 0 97.02 0 147 0 C147 3.63 147 7.26 147 11 C124.56 11 102.12 11 79 11 C79 70.4 79 129.8 79 191 C75.37 191 71.74 191 68 191 C68 131.6 68 72.2 68 11 C45.56 11 23.12 11 0 11 C0 7.37 0 3.74 0 0 Z " fill="#FFDC06" transform="translate(1177,440)"/>
<path d="M0 0 C8.3221875 -0.0928125 8.3221875 -0.0928125 16.8125 -0.1875 C19.40315308 -0.22846802 19.40315308 -0.22846802 22.04614258 -0.27026367 C33.77659467 -0.37753641 45.12391259 0.43364352 54.625 8.125 C57.65334928 11.7908965 59.2445222 15.61991079 61 20 C61.495 20.99 61.495 20.99 62 22 C62.66187724 32.18272681 62.45121669 41.45713682 56.9375 50.3125 C49.10977657 57.47403421 39.50315752 60.33006743 29.1015625 60.1953125 C28.36059326 60.19329834 27.61962402 60.19128418 26.85620117 60.18920898 C24.11240365 60.17881688 21.36869501 60.15089472 18.625 60.125 C9.405625 60.063125 9.405625 60.063125 0 60 C0 40.2 0 20.4 0 0 Z " fill="#FDFDFD" transform="translate(582,468)"/>
<path d="M0 0 C3.63 0 7.26 0 11 0 C11 59.73 11 119.46 11 181 C40.7 181 70.4 181 101 181 C101 184.3 101 187.6 101 191 C67.67 191 34.34 191 0 191 C0 127.97 0 64.94 0 0 Z " fill="#FFDC03" transform="translate(1016,440)"/>
<path d="M0 0 C32 0 32 0 42 7 C48.10664353 17.17773922 49.8966109 27.86053441 47.4609375 39.59765625 C45.02859876 46.53383102 40.42965799 53.2304292 34 57 C31.27734375 57.1640625 31.27734375 57.1640625 29 57 C32.87080974 64.9184585 36.7151187 72.77813557 41.34765625 80.28515625 C43.58816715 83.96637392 45.73912337 87.69482092 47.875 91.4375 C48.28097412 92.13681641 48.68694824 92.83613281 49.10522461 93.55664062 C52 98.65373279 52 98.65373279 52 102 C50.35 102 48.7 102 47 102 C41.73835696 92.47636789 36.47846474 82.95096387 31.3125 73.375 C30.80493164 72.44482056 30.80493164 72.44482056 30.28710938 71.49584961 C28 67.23169616 28 67.23169616 28 65 C27.34 65 26.68 65 26 65 C25.01 63.02 24.02 61.04 23 59 C17.06 58.67 11.12 58.34 5 58 C5 72.52 5 87.04 5 102 C3.35 102 1.7 102 0 102 C0 68.34 0 34.68 0 0 Z " fill="#FAFAFA" transform="translate(607,683)"/>
<path d="M0 0 C3.96 0 7.92 0 12 0 C12 63.36 12 126.72 12 192 C8.04 192 4.08 192 0 192 C0 128.64 0 65.28 0 0 Z " fill="#FFDD0B" transform="translate(1141,440)"/>
<path d="M0 0 C1.65 0 3.3 0 5 0 C9.39453125 13.18359375 9.39453125 13.18359375 10.19970703 15.60058594 C10.72554938 17.1771505 11.25253303 18.75333494 11.78076172 20.32910156 C13.39960837 25.1638633 14.97790065 30.00890372 16.5 34.875 C16.71648193 35.56480957 16.93296387 36.25461914 17.15600586 36.96533203 C18.38489103 40.91449911 19.52173269 44.87117383 20.5625 48.875 C21.44493476 52.21078274 22.49364198 55.33847341 23.8359375 58.515625 C26.27686371 64.52740172 28.17917158 70.66981389 30.0625 76.875 C30.40087891 77.96941406 30.73925781 79.06382812 31.08789062 80.19140625 C33.29570775 87.4084487 35.2433559 94.66035833 37 102 C35.35 102 33.7 102 32 102 C31.82984375 101.47792969 31.6596875 100.95585938 31.484375 100.41796875 C29.78528059 95.25742137 27.97281063 90.15260831 26.0625 85.06640625 C24.56918744 80.75666229 23.31063007 76.3687669 22 72 C2.2 71.505 2.2 71.505 -18 71 C-18.33 72.65 -18.66 74.3 -19 76 C-19.74022635 78.95160954 -20.56145154 81.88033577 -21.375 84.8125 C-21.58382812 85.58142578 -21.79265625 86.35035156 -22.0078125 87.14257812 C-23.41207399 92.21590088 -25.08733973 97.0953127 -27 102 C-28.65 102 -30.3 102 -32 102 C-31.73725854 100.51937458 -31.46421764 99.04057715 -31.1875 97.5625 C-31.03667969 96.73878906 -30.88585937 95.91507813 -30.73046875 95.06640625 C-29.96265985 91.84325124 -28.96311784 88.77731994 -27.89428711 85.64379883 C-26.88108899 82.648461 -25.91288078 79.64054417 -24.94921875 76.62890625 C-24.58344727 75.48647461 -24.21767578 74.34404297 -23.84082031 73.16699219 C-23.46022461 71.97750977 -23.07962891 70.78802734 -22.6875 69.5625 C-20.08524002 61.44336445 -17.46764475 53.33129796 -14.75 45.25 C-12.28743187 37.92142391 -9.96049638 30.556465 -7.67382812 23.17138672 C-6.37512227 18.98635416 -5.06376074 14.80532681 -3.75 10.625 C-3.49154297 9.79750244 -3.23308594 8.97000488 -2.96679688 8.11743164 C-1.11451707 2.22903414 -1.11451707 2.22903414 0 0 Z " fill="#353132" transform="translate(956,683)"/>
<path d="M0 0 C31.32179931 0 31.32179931 0 40 4 C40.75667969 4.30035156 41.51335937 4.60070312 42.29296875 4.91015625 C50.81639048 8.60417205 56.88671871 15.98736514 60.44921875 24.4375 C60.85785156 25.613125 61.26648437 26.78875 61.6875 28 C62.10386719 29.175625 62.52023437 30.35125 62.94921875 31.5625 C67.59702217 46.76721008 66.42177502 66.92388931 59.8125 81.4375 C53.69183698 92.16666224 46.20240046 97.36452395 35 102 C23.67705205 104.83073699 11.6714276 103 0 103 C0 69.01 0 35.02 0 0 Z M5 7 C5 36.7 5 66.4 5 97 C26.32451667 98.5327033 26.32451667 98.5327033 44.8125 91.1875 C45.72644531 90.52105469 46.64039063 89.85460937 47.58203125 89.16796875 C50.06680869 86.94009884 51.51897185 84.97681738 53 82 C53 81.34 53 80.68 53 80 C53.66 80 54.32 80 55 80 C61.39493679 62.36824572 63.40151591 42.18134508 55.3125 24.6875 C50.99757256 16.69495886 45.63078504 11.14769807 37 8 C26.53536685 5.90707337 15.67187373 7 5 7 Z " fill="#433F40" transform="translate(1053,682)"/>
<path d="M0 0 C5 1 5 1 6.6340332 3.00268555 C7.10156006 3.8719165 7.56908691 4.74114746 8.05078125 5.63671875 C8.58018311 6.59940674 9.10958496 7.56209473 9.6550293 8.55395508 C10.20199463 9.5880249 10.74895996 10.62209473 11.3125 11.6875 C12.47113614 13.81001486 13.62998944 15.9324112 14.7890625 18.0546875 C15.34368164 19.08432617 15.89830078 20.11396484 16.46972656 21.17480469 C18.31921212 24.58933036 20.24126686 27.95226891 22.1875 31.3125 C25.56738767 37.20781769 28.85426105 43.15181462 32.13818359 49.10083008 C35.10743761 54.45517586 38.18263914 59.73819643 41.3125 65 C44.41326038 70.2139152 47.36832572 75.43265818 49.96484375 80.921875 C51.17574973 83.35282588 52.60270914 85.6711819 54 88 C54.33 58.96 54.66 29.92 55 0 C56.32 0 57.64 0 59 0 C59 33.66 59 67.32 59 102 C55 101 55 101 53.03515625 98.41015625 C52.38417969 97.30542969 51.73320313 96.20070313 51.0625 95.0625 C50.54526367 94.18984497 50.54526367 94.18984497 50.01757812 93.29956055 C42 79.61160649 42 79.61160649 42 76 C41.34 76 40.68 76 40 76 C39.76539063 75.34386719 39.53078125 74.68773437 39.2890625 74.01171875 C37.28538886 69.33040853 34.6554858 65.01799932 32.1015625 60.61914062 C29 55.20651126 29 55.20651126 29 53 C28.34 53 27.68 53 27 53 C26.57589844 52.11699219 26.15179687 51.23398437 25.71484375 50.32421875 C22.89559556 44.52981925 20.05292495 38.88981132 16.5 33.5 C12.53656418 27.27174371 9.3015148 20.60302961 6 14 C5.67 43.04 5.34 72.08 5 102 C3.35 102 1.7 102 0 102 C0 68.34 0 34.68 0 0 Z " fill="#312D2E" transform="translate(1251,683)"/>
<path d="M0 0 C1.65 0 3.3 0 5 0 C5 15.18 5 30.36 5 46 C21.83 46 38.66 46 56 46 C56 30.82 56 15.64 56 0 C57.65 0 59.3 0 61 0 C61 33.99 61 67.98 61 103 C59.35 103 57.7 103 56 103 C56 86.17 56 69.34 56 52 C39.17 52 22.34 52 5 52 C5 68.83 5 85.66 5 103 C3.35 103 1.7 103 0 103 C0 69.01 0 35.02 0 0 Z " fill="#353132" transform="translate(266,682)"/>
<path d="M0 0 C32 0 32 0 42 7 C48.10664353 17.17773922 49.8966109 27.86053441 47.4609375 39.59765625 C45.02859876 46.53383102 40.42965799 53.2304292 34 57 C31.27734375 57.1640625 31.27734375 57.1640625 29 57 C32.87080974 64.9184585 36.7151187 72.77813557 41.34765625 80.28515625 C43.58816715 83.96637392 45.73912337 87.69482092 47.875 91.4375 C48.28097412 92.13681641 48.68694824 92.83613281 49.10522461 93.55664062 C52 98.65373279 52 98.65373279 52 102 C50.35 102 48.7 102 47 102 C41.73835696 92.47636789 36.47846474 82.95096387 31.3125 73.375 C30.80493164 72.44482056 30.80493164 72.44482056 30.28710938 71.49584961 C28 67.23169616 28 67.23169616 28 65 C27.34 65 26.68 65 26 65 C25.01 63.02 24.02 61.04 23 59 C17.06 58.67 11.12 58.34 5 58 C5 72.52 5 87.04 5 102 C3.35 102 1.7 102 0 102 C0 68.34 0 34.68 0 0 Z M5 5 C5 20.84 5 36.68 5 53 C23.8152679 54.71676854 23.8152679 54.71676854 38.3125 46.75 C43.58557366 38.15684293 43.91049806 29.8232624 43 20 C41.49754286 14.54753456 38.39147565 10.5550041 34 7 C25.41747324 3.78779356 25.41747324 3.78779356 5 5 Z " fill="#2D292A" transform="translate(607,683)"/>
<path d="M0 0 C1 1 1 1 1.0625 3.5625 C1.041875 4.366875 1.02125 5.17125 1 6 C-3.55095449 4.22421921 -7.95484044 2.18893034 -12.37890625 0.12109375 C-20.21143201 -3.22903277 -29.47068069 -3.31063534 -37.4375 -0.3125 C-48.95066295 5.04418971 -53.71532664 14.47848712 -58.01953125 25.88671875 C-63.18769967 42.29719775 -60.4635129 60.0392532 -52.82543945 75.06933594 C-50.20770721 79.93190408 -47.47804499 83.75103544 -43 87 C-42.12214844 87.64388672 -42.12214844 87.64388672 -41.2265625 88.30078125 C-33.66794916 92.64773082 -23.40698818 92.09711286 -15 91 C-10.70784166 89.76230243 -6.93628825 88.0843193 -3 86 C-1.515 85.505 -1.515 85.505 0 85 C0 74.77 0 64.54 0 54 C-5.61 54 -11.22 54 -17 54 C-17 52.35 -17 50.7 -17 49 C-10.07 49 -3.14 49 4 49 C4 62.2 4 75.4 4 89 C-9.67307084 95.83653542 -20.94673189 100.63813339 -35.98046875 97.34765625 C-46.61499598 93.50603634 -54.57731252 84.57785456 -59.69921875 74.734375 C-67.40921422 57.78358593 -68.90637421 37.80387577 -62.29980469 20.12646484 C-57.2392448 7.97157289 -50.03782769 -1.30903979 -38 -7 C-24.91261597 -12.13084942 -10.96668567 -8.08229711 0 0 Z " fill="#322E2F" transform="translate(1438,689)"/>
<path d="M0 0 C14.52 0 29.04 0 44 0 C44 1.65 44 3.3 44 5 C31.13 5 18.26 5 5 5 C5 18.2 5 31.4 5 45 C15.56 45 26.12 45 37 45 C37 46.98 37 48.96 37 51 C26.44 51 15.88 51 5 51 C5 65.85 5 80.7 5 96 C17.87 96 30.74 96 44 96 C44 97.98 44 99.96 44 102 C29.48 102 14.96 102 0 102 C0 68.34 0 34.68 0 0 Z " fill="#262223" transform="translate(393,683)"/>
<path d="M0 0 C14.19 0 28.38 0 43 0 C43 1.65 43 3.3 43 5 C30.46 5 17.92 5 5 5 C5 18.2 5 31.4 5 45 C15.56 45 26.12 45 37 45 C37 46.98 37 48.96 37 51 C26.44 51 15.88 51 5 51 C5 65.85 5 80.7 5 96 C17.87 96 30.74 96 44 96 C44 97.98 44 99.96 44 102 C29.48 102 14.96 102 0 102 C0 68.34 0 34.68 0 0 Z " fill="#1D191A" transform="translate(823,683)"/>
<path d="M0 0 C14.19 0 28.38 0 43 0 C43 1.65 43 3.3 43 5 C30.46 5 17.92 5 5 5 C5 18.53 5 32.06 5 46 C15.56 46 26.12 46 37 46 C37 47.65 37 49.3 37 51 C26.44 51 15.88 51 5 51 C5 65.85 5 80.7 5 96 C17.46083695 95.96039654 17.46083695 95.96039654 29.92163086 95.90991211 C31.47770113 95.90699295 33.03377216 95.90444439 34.58984375 95.90234375 C35.40521606 95.89722778 36.22058838 95.89211182 37.06066895 95.88684082 C39.04080523 95.8865306 41.02084654 95.93761904 43 96 C44 97 44 97 44 102 C29.48 102 14.96 102 0 102 C0 68.34 0 34.68 0 0 Z " fill="#322E2F" transform="translate(500,683)"/>
<path d="M0 0 C2.41128197 2.90733876 3.61391073 5.3756338 4.61328125 9.0078125 C4.88889893 9.98645264 5.1645166 10.96509277 5.44848633 11.97338867 C5.73361084 13.01342041 6.01873535 14.05345215 6.3125 15.125 C8.49904087 22.86590439 10.74807456 30.56257618 13.3125 38.1875 C13.55460205 38.91018066 13.7967041 39.63286133 14.04614258 40.37744141 C15.00027424 43.1903629 15.97923633 45.95243106 17.16796875 48.67578125 C18 51 18 51 18 56 C6.12 56 -5.76 56 -18 56 C-16.19139408 48.76557631 -14.77611088 43.18749391 -12.00390625 36.59033203 C-9.69500671 30.63278725 -8.26984599 24.36045407 -6.64453125 18.18945312 C-4.92640978 11.83395856 -2.90394027 5.9144212 0 0 Z " fill="#F8F7F7" transform="translate(958,693)"/>
<path d="M0 0 C1.875 1.3125 1.875 1.3125 3 3 C3.1875 6.1875 3.1875 6.1875 3 9 C2.47792969 8.68546875 1.95585937 8.3709375 1.41796875 8.046875 C-9.43112351 1.73882136 -20.16822721 -2.53242632 -32.8359375 0.73046875 C-41.84148704 4.04332106 -47.44780232 9.67781325 -52 18 C-56.34750043 27.95094544 -57.20153166 36.99002962 -57.25 47.75 C-57.270625 48.87921875 -57.29125 50.0084375 -57.3125 51.171875 C-57.37400936 64.45789705 -53.5014255 75.57245945 -44.5390625 85.5 C-37.43131714 92.42734574 -30.42419562 93.42261508 -21.03100586 93.44262695 C-12.59987246 93.26099133 -5.01481973 91.12254784 1 85 C1.66 85 2.32 85 3 85 C3.4375 87.6875 3.4375 87.6875 3 91 C-0.86515643 95.02893425 -6.23346309 97.8770428 -11.8125 98.125 C-12.534375 98.08375 -13.25625 98.0425 -14 98 C-14 98.66 -14 99.32 -14 100 C-26.68336412 100.57289976 -36.47313307 100.26989658 -46.5 91.5 C-49.29596209 88.84928269 -51.87055086 86.22147434 -54 83 C-54 82.34 -54 81.68 -54 81 C-54.66 81 -55.32 81 -56 81 C-56.79780561 79.00244091 -57.58792425 77.00181115 -58.375 75 C-58.81585938 73.88625 -59.25671875 72.7725 -59.7109375 71.625 C-62.60945738 63.47401076 -63.35728078 56.4936784 -63.3125 47.875 C-63.30758545 46.76640625 -63.3026709 45.6578125 -63.29760742 44.515625 C-63.12809717 32.63773726 -61.83432507 22.03791495 -55 12 C-54.54625 11.30261719 -54.0925 10.60523438 -53.625 9.88671875 C-50.12312717 4.83374465 -46.09850982 1.38838465 -41 -2 C-40.154375 -2.5775 -39.30875 -3.155 -38.4375 -3.75 C-25.79893912 -10.23131327 -11.77046787 -6.94155798 0 0 Z " fill="#322F30" transform="translate(200,687)"/>
<path d="M0 0 C1.65 0 3.3 0 5 0 C5 31.68 5 63.36 5 96 C17.87 96 30.74 96 44 96 C44 97.98 44 99.96 44 102 C29.48 102 14.96 102 0 102 C0 68.34 0 34.68 0 0 Z " fill="#373435" transform="translate(721,683)"/>
<path d="M0 0 C0.33 0 0.66 0 1 0 C1 1.65 1 3.3 1 5 C1.66 5 2.32 5 3 5 C3 35.03 3 65.06 3 96 C24.20286557 96.77747964 24.20286557 96.77747964 43.375 89.5625 C44.20773437 88.96566406 45.04046875 88.36882812 45.8984375 87.75390625 C48.20829977 85.99455347 48.20829977 85.99455347 50 83 C52.625 82.8125 52.625 82.8125 55 83 C53.84918483 88.85637055 50.28057735 92.44253254 45.4375 95.75 C31.17405781 103.99109993 16.90971656 101 0 101 C0 67.67 0 34.34 0 0 Z " fill="#1B1718" transform="translate(1054,683)"/>
<path d="M0 0 C1.32 0 2.64 0 4 0 C4 33.66 4 67.32 4 102 C0 101 0 101 -2 98.33984375 C-4.02016458 94.90319658 -6.03299705 91.4673958 -8 88 C-8.47566406 87.19820312 -8.95132812 86.39640625 -9.44140625 85.5703125 C-11.27821922 82.28068927 -12.02136426 80.29909965 -11.75 76.5 C-11.5025 75.675 -11.255 74.85 -11 74 C-6.03092525 78.40118049 -4.51953502 81.66483697 -1 88 C-0.67 58.96 -0.34 29.92 0 0 Z " fill="#272324" transform="translate(1306,683)"/>
<path d="M0 0 C1.65 0 3.3 0 5 0 C5 33.66 5 67.32 5 102 C3.35 102 1.7 102 0 102 C0 68.34 0 34.68 0 0 Z " fill="#383435" transform="translate(1180,683)"/>
<path d="M0 0 C0.33 0 0.66 0 1 0 C1 33.33 1 66.66 1 101 C1.33 99.35 1.66 97.7 2 96 C2.66 96 3.32 96 4 96 C4 80.82 4 65.64 4 50 C14.56 50 25.12 50 36 50 C36 48.68 36 47.36 36 46 C25.77 46 15.54 46 5 46 C5 45.67 5 45.34 5 45 C15.56 45 26.12 45 37 45 C37 46.98 37 48.96 37 51 C26.44 51 15.88 51 5 51 C5 65.85 5 80.7 5 96 C17.87 96 30.74 96 44 96 C44 97.98 44 99.96 44 102 C29.48 102 14.96 102 0 102 C0 68.34 0 34.68 0 0 Z " fill="#524F50" transform="translate(823,683)"/>
<path d="M0 0 C6.93 0 13.86 0 21 0 C21 13.2 21 26.4 21 40 C4.71830986 48.14084507 4.71830986 48.14084507 -1.328125 48.09765625 C-2.12734375 48.09443359 -2.9265625 48.09121094 -3.75 48.08789062 C-4.575 48.07951172 -5.4 48.07113281 -6.25 48.0625 C-7.09046875 48.05798828 -7.9309375 48.05347656 -8.796875 48.04882812 C-10.86461401 48.03707961 -12.93231624 48.01914522 -15 48 C-15 47.67 -15 47.34 -15 47 C-14.195625 46.87625 -13.39125 46.7525 -12.5625 46.625 C-11.716875 46.41875 -10.87125 46.2125 -10 46 C-9.67 45.34 -9.34 44.68 -9 44 C-7.03125 43.7265625 -7.03125 43.7265625 -4.5 43.625 C2.9996077 43.02417306 8.659489 39.84273394 15 36 C15.66 36 16.32 36 17 36 C17 25.77 17 15.54 17 5 C11.39 5 5.78 5 0 5 C0 3.35 0 1.7 0 0 Z " fill="#252122" transform="translate(1421,738)"/>
<path d="M0 0 C0.33 0 0.66 0 1 0 C1 13.2 1 26.4 1 40 C1.66 40 2.32 40 3 40 C3 41.65 3 43.3 3 45 C13.56 45 24.12 45 35 45 C35 46.32 35 47.64 35 49 C19.655 49.495 19.655 49.495 4 50 C3.67 64.52 3.34 79.04 3 94 C2.34 94 1.68 94 1 94 C1 95.65 1 97.3 1 99 C14.53 98.67 28.06 98.34 42 98 C42 98.66 42 99.32 42 100 C28.14 100 14.28 100 0 100 C0 67 0 34 0 0 Z " fill="#1E1A1B" transform="translate(394,684)"/>
<path d="M0 0 C0.33 0 0.66 0 1 0 C1 5.61 1 11.22 1 17 C1.99 16.01 2.98 15.02 4 14 C4.08636719 15.00417969 4.17273437 16.00835938 4.26171875 17.04296875 C5.75059453 32.25905476 10.01962399 46.44539199 21.99609375 56.7109375 C28.09186714 60.63219523 33.32775106 61.48698331 40.4375 61.6875 C41.26443359 61.72166016 42.09136719 61.75582031 42.94335938 61.79101562 C44.96178944 61.87268621 46.98086884 61.93803724 49 62 C49 62.33 49 62.66 49 63 C45.7 63 42.4 63 39 63 C38.67 63.99 38.34 64.98 38 66 C41.3 66.33 44.6 66.66 48 67 C48 67.33 48 67.66 48 68 C36.43977029 68.5163378 27.18845496 68.49185358 17.8125 60.8125 C5.63960132 49.20293466 -0.51208352 34.949567 -1.14453125 18.1640625 C-1.21129242 11.98562013 -0.97775938 6.10904061 0 0 Z " fill="#353132" transform="translate(1373,719)"/>
<path d="M0 0 C0.33 0 0.66 0 1 0 C1 33.33 1 66.66 1 101 C14.86 101 28.72 101 43 101 C41.78928204 99.56075132 41.78928204 99.56075132 38.21459961 99.88647461 C36.52717271 99.88663378 34.83974095 99.89233083 33.15234375 99.90234375 C32.2659169 99.9037587 31.37949005 99.90517365 30.46620178 99.90663147 C27.62326746 99.91224785 24.78041069 99.92480309 21.9375 99.9375 C20.01497509 99.94251289 18.09244896 99.94707616 16.16992188 99.95117188 C11.44658451 99.96222259 6.72330542 99.97949817 2 100 C2 98.35 2 96.7 2 95 C2.66 95 3.32 95 4 95 C4 80.48 4 65.96 4 51 C4.33 51 4.66 51 5 51 C5 65.85 5 80.7 5 96 C17.87 96 30.74 96 44 96 C44 97.98 44 99.96 44 102 C29.48 102 14.96 102 0 102 C0 68.34 0 34.68 0 0 Z " fill="#474344" transform="translate(393,683)"/>
<path d="M0 0 C2.625 -0.1875 2.625 -0.1875 5 0 C3.85236445 5.84018979 0.29052501 9.39160626 -4.4921875 12.75 C-14.87854069 18.87000415 -24.86111508 18.1329894 -36.625 17.5625 C-37.81996094 17.51029297 -39.01492188 17.45808594 -40.24609375 17.40429688 C-43.16441033 17.27589095 -46.08226918 17.14099488 -49 17 C-49 15.68 -49 14.36 -49 13 C-48.16339844 12.98018066 -47.32679687 12.96036133 -46.46484375 12.93994141 C-43.32609654 12.86129893 -40.18769914 12.77458997 -37.04931641 12.68261719 C-35.03694667 12.62603877 -33.02432773 12.57855912 -31.01171875 12.53125 C-18.05631683 12.1909312 -18.05631683 12.1909312 -6.625 6.5625 C-5.37589844 5.66724609 -5.37589844 5.66724609 -4.1015625 4.75390625 C-1.79170023 2.99455347 -1.79170023 2.99455347 0 0 Z " fill="#2D292A" transform="translate(1104,766)"/>
<path d="M0 0 C2.26158748 3.39238122 3.33623329 6.78199418 4.53125 10.6328125 C4.76783325 11.38408417 5.0044165 12.13535583 5.24816895 12.90939331 C5.74801643 14.50071463 6.2454761 16.09278767 6.74072266 17.68554688 C7.49131988 20.09711196 8.25089917 22.50570564 9.01171875 24.9140625 C9.49794076 26.46597521 9.98363425 28.01805362 10.46875 29.5703125 C10.69276489 30.28003204 10.91677979 30.98975159 11.14758301 31.72097778 C12.70744794 36.76200649 13.92364262 41.83489838 15 47 C13.35 47 11.7 47 10 47 C9.82984375 46.47792969 9.6596875 45.95585938 9.484375 45.41796875 C7.7548972 40.1651399 5.89352325 34.97467303 3.97265625 29.7890625 C2.73418397 26.23778053 1.74654432 22.63720622 0.80859375 18.99609375 C0.07303884 16.64214263 0.07303884 16.64214263 -3 15 C-2.67 14.34 -2.34 13.68 -2 13 C-13.88 12.67 -25.76 12.34 -38 12 C-38 11.67 -38 11.34 -38 11 C-26.12 11 -14.24 11 -2 11 C-1.67 9.68 -1.34 8.36 -1 7 C-0.34 7 0.32 7 1 7 C0.505 3.535 0.505 3.535 0 0 Z " fill="#353132" transform="translate(978,738)"/>
<path d="M0 0 C13.86 0 27.72 0 42 0 C42 1.65 42 3.3 42 5 C29.46 5 16.92 5 4 5 C4 18.2 4 31.4 4 45 C3.67 45 3.34 45 3 45 C3 31.8 3 18.6 3 5 C2.34 5 1.68 5 1 5 C0.67 3.35 0.34 1.7 0 0 Z " fill="#312D2E" transform="translate(824,683)"/>
<path d="M0 0 C0.99 0.66 1.98 1.32 3 2 C2.443125 2.598125 1.88625 3.19625 1.3125 3.8125 C-6.74728427 14.92193237 -8.02993075 27.74422444 -10 41 C-10.99 41 -11.98 41 -13 41 C-13.06776142 37.66463219 -13.05138332 34.33563379 -13 31 C-12.98453125 29.96488281 -12.9690625 28.92976562 -12.953125 27.86328125 C-12.5140384 17.7520927 -9.92322097 8.62797999 -3 1 C-2.34 1 -1.68 1 -1 1 C-0.67 0.67 -0.34 0.34 0 0 Z " fill="#333031" transform="translate(1386,696)"/>
<path d="M0 0 C0 13.2 0 26.4 0 40 C10.56 40 21.12 40 32 40 C32 41.98 32 43.96 32 46 C21.44 46 10.88 46 0 46 C0 45.67 0 45.34 0 45 C10.23 45 20.46 45 31 45 C31 43.68 31 42.36 31 41 C20.44 41 9.88 41 -1 41 C-1 39.35 -1 37.7 -1 36 C-1.66 36 -2.32 36 -3 36 C-3 24.45 -3 12.9 -3 1 C-1 0 -1 0 0 0 Z " fill="#4A4647" transform="translate(398,688)"/>
<path d="M0 0 C0.66 0 1.32 0 2 0 C2.4375 2.6875 2.4375 2.6875 2 6 C-1.86515643 10.02893425 -7.23346309 12.8770428 -12.8125 13.125 C-13.534375 13.08375 -14.25625 13.0425 -15 13 C-15 13.66 -15 14.32 -15 15 C-20.28 15 -25.56 15 -31 15 C-31 14.67 -31 14.34 -31 14 C-25.555 13.505 -25.555 13.505 -20 13 C-23.87189691 12.03202577 -27.73410138 11.30021344 -31.66015625 10.59765625 C-34 10 -34 10 -37 8 C-36.39639648 8.02618408 -35.79279297 8.05236816 -35.17089844 8.0793457 C-18.36759564 8.97809276 -18.36759564 8.97809276 -3 3 C-1.99766629 2.00233917 -0.99705451 1.00293684 0 0 Z " fill="#3A3637" transform="translate(201,772)"/>
<path d="M0 0 C12.21 0 24.42 0 37 0 C37.495 1.485 37.495 1.485 38 3 C34.30459598 4.23180134 30.89696622 4.12412112 27.05078125 4.09765625 C26.27816452 4.0962413 25.50554779 4.09482635 24.70951843 4.09336853 C22.24380611 4.08777466 19.77818485 4.07522333 17.3125 4.0625 C15.63997527 4.05748421 13.96744912 4.05292144 12.29492188 4.04882812 C8.19657954 4.03780724 4.09830521 4.02054684 0 4 C0 2.66666667 0 1.33333333 0 0 Z " fill="#1F1B1C" transform="translate(940,750)"/>
<path d="M0 0 C1.65 0 3.3 0 5 0 C5.70088156 1.74468372 6.38524009 3.49601161 7.0625 5.25 C7.44535156 6.22453125 7.82820312 7.1990625 8.22265625 8.203125 C9.01113787 11.04007395 9.02437812 12.29409552 8 15 C5.13275314 14.42655063 4.1385485 14.1385485 2 12 C1.34 13.98 0.68 15.96 0 18 C-0.99 17.01 -1.98 16.02 -3 15 C-3.99 15.495 -3.99 15.495 -5 16 C-4.54762239 14.08191891 -4.08785537 12.16557967 -3.625 10.25 C-3.24214844 8.64898438 -3.24214844 8.64898438 -2.8515625 7.015625 C-2.12466459 4.44147278 -1.2973776 2.32399814 0 0 Z " fill="#3A3637" transform="translate(956,683)"/>
<path d="M0 0 C2.07906423 3.11859635 3.0142133 5.74564048 4.125 9.3125 C4.47820313 10.42238281 4.83140625 11.53226563 5.1953125 12.67578125 C5.98188409 15.92516193 6.15099513 18.67307392 6 22 C5.01 22.33 4.02 22.66 3 23 C2.566875 22.05125 2.13375 21.1025 1.6875 20.125 C0.20697799 16.79958063 0.20697799 16.79958063 -3 15 C-2.67 14.34 -2.34 13.68 -2 13 C-13.88 12.67 -25.76 12.34 -38 12 C-38 11.67 -38 11.34 -38 11 C-26.12 11 -14.24 11 -2 11 C-1.67 9.68 -1.34 8.36 -1 7 C-0.34 7 0.32 7 1 7 C0.505 3.535 0.505 3.535 0 0 Z " fill="#423F40" transform="translate(978,738)"/>
<path d="M0 0 C0.99 0 1.98 0 3 0 C2.67 1.98 2.34 3.96 2 6 C2.66 6 3.32 6 4 6 C2.49740332 11.34256597 -1.05971727 15.23728366 -5 19 C-7.9375 20.5 -7.9375 20.5 -10 21 C-11.32 19.68 -12.64 18.36 -14 17 C-12 15 -12 15 -9.1875 13.875 C-4.51992484 11.12936755 -1.83638208 6.96068992 -0.36328125 1.74609375 C-0.24339844 1.16988281 -0.12351562 0.59367188 0 0 Z " fill="#343132" transform="translate(649,719)"/>
<path d="M0 0 C1.66666667 0 3.33333333 0 5 0 C5.17485419 3.49708374 4.94074512 6.22172794 4.03125 9.625 C2.83273925 14.24038301 2.56066357 18.75010689 2.375 23.5 C2.33632812 24.32242188 2.29765625 25.14484375 2.2578125 25.9921875 C2.16468308 27.9944701 2.08131015 29.99720262 2 32 C1.67 32 1.34 32 1 32 C0.67 28.04 0.34 24.08 0 20 C-0.33 20 -0.66 20 -1 20 C-2.51708428 6.3667426 -2.51708428 6.3667426 0 0 Z " fill="#454142" transform="translate(140,708)"/>
<path d="M0 0 C2.25837864 2.35247775 2.97182693 3.80278851 3.4375 7.0625 C2.84407029 12.40336735 1.00832799 17.04194027 -1 22 C-2.65 22 -4.3 22 -6 22 C-4.83693879 15.445808 -3.24216846 9.26525929 -1 3 C-0.67 2.01 -0.34 1.02 0 0 Z " fill="#413E3F" transform="translate(930,763)"/>
<path d="M0 0 C0.66 0.66 1.32 1.32 2 2 C1.5970985 6.88292565 0.46972603 11.52977351 -0.8125 16.25 C-1.12832031 17.45140625 -1.44414063 18.6528125 -1.76953125 19.890625 C-3.06482718 23.16381725 -4.00232294 24.26549503 -7 26 C-7.99352979 22.89194546 -7.97533266 20.94535507 -7.109375 17.8125 C-6.89410156 17.03132812 -6.67882812 16.25015625 -6.45703125 15.4453125 C-6.22371094 14.63835938 -5.99039063 13.83140625 -5.75 13 C-5.53214844 12.19304688 -5.31429687 11.38609375 -5.08984375 10.5546875 C-3.94288477 6.49002584 -2.93205047 3.17351345 0 0 Z " fill="#2E2A2B" transform="translate(953,696)"/>
<path d="M0 0 C2.0625 0.4375 2.0625 0.4375 4 1 C2.96232949 7.06732052 1.66038099 12.4373852 -1 18 C-2.32 17.34 -3.64 16.68 -5 16 C-4.34803772 12.51450935 -3.51695877 9.14664229 -2.5 5.75 C-2.2421875 4.87859375 -1.984375 4.0071875 -1.71875 3.109375 C-1 1 -1 1 0 0 Z " fill="#383435" transform="translate(945,719)"/>
<path d="M0 0 C0.33 0 0.66 0 1 0 C1 5.61 1 11.22 1 17 C1.99 16.01 2.98 15.02 4 14 C4.33 19.94 4.66 25.88 5 32 C4.01 32 3.02 32 2 32 C2 30.35 2 28.7 2 27 C1.34 27 0.68 27 0 27 C-1.0063902 22.83066916 -1.13368629 18.90734266 -1.125 14.625 C-1.12757812 13.35914063 -1.13015625 12.09328125 -1.1328125 10.7890625 C-1.00316698 7.09035208 -0.59347312 3.64562057 0 0 Z " fill="#535050" transform="translate(1373,719)"/>
<path d="M0 0 C1.36264859 2.72529718 0.76376333 4.24227497 0.22265625 7.2265625 C-0.05288086 8.7734375 -0.05288086 8.7734375 -0.33398438 10.3515625 C-0.53314453 11.43179688 -0.73230469 12.51203125 -0.9375 13.625 C-1.13279297 14.71296875 -1.32808594 15.8009375 -1.52929688 16.921875 C-2.01371122 19.61569136 -2.50418685 22.30826233 -3 25 C-3.99 25 -4.98 25 -6 25 C-6.09414525 19.98938065 -6.09382456 14.99779212 -5.6875 10 C-5.62949219 9.278125 -5.57148437 8.55625 -5.51171875 7.8125 C-5 6 -5 6 -2 4 C-0.80767387 1.94996045 -0.80767387 1.94996045 0 0 Z " fill="#1D191A" transform="translate(1379,712)"/>
<path d="M0 0 C0.66 0 1.32 0 2 0 C4.03120707 3.04681061 4.24659875 3.60118324 4.1953125 7.01171875 C4.18886719 7.76904297 4.18242187 8.52636719 4.17578125 9.30664062 C4.15902344 10.09232422 4.14226562 10.87800781 4.125 11.6875 C4.11597656 12.48478516 4.10695312 13.28207031 4.09765625 14.10351562 C4.07411585 16.069139 4.03824547 18.03460775 4 20 C3.34 20 2.68 20 2 20 C1.67 20.99 1.34 21.98 1 23 C-0.2263757 20.54724859 -0.11415314 18.9494219 -0.09765625 16.2109375 C-0.09443359 15.26992188 -0.09121094 14.32890625 -0.08789062 13.359375 C-0.07951172 12.37453125 -0.07113281 11.3896875 -0.0625 10.375 C-0.05798828 9.38242187 -0.05347656 8.38984375 -0.04882812 7.3671875 C-0.03702145 4.9113984 -0.020554 2.45572896 0 0 Z " fill="#221E1F" transform="translate(137,722)"/>
<path d="M0 0 C0.99 0 1.98 0 3 0 C3 0.66 3 1.32 3 2 C3.66 2 4.32 2 5 2 C5.50806447 3.72681437 6.00610467 5.45657979 6.5 7.1875 C6.91765625 8.63189453 6.91765625 8.63189453 7.34375 10.10546875 C7.96677608 12.85345876 8.12302812 15.19598416 8 18 C6.68 18 5.36 18 4 18 C3.32678716 15.75194998 2.66165877 13.50147776 2 11.25 C1.62875 9.99703125 1.2575 8.7440625 0.875 7.453125 C0 4 0 4 0 0 Z " fill="#363233" transform="translate(961,696)"/>
<path d="M0 0 C-0.66 0.66 -1.32 1.32 -2 2 C-1.67 2.66 -1.34 3.32 -1 4 C-6.94 4 -12.88 4 -19 4 C-19 3.67 -19 3.34 -19 3 C-18.195625 2.87625 -17.39125 2.7525 -16.5625 2.625 C-15.716875 2.41875 -14.87125 2.2125 -14 2 C-13.67 1.34 -13.34 0.68 -13 0 C-10.8203125 -0.44921875 -10.8203125 -0.44921875 -8.125 -0.6875 C-7.24070312 -0.77386719 -6.35640625 -0.86023438 -5.4453125 -0.94921875 C-3 -1 -3 -1 0 0 Z " fill="#1F1B1C" transform="translate(1425,782)"/>
<path d="M0 0 C1.5 1.375 1.5 1.375 3 3 C3 3.66 3 4.32 3 5 C-10.86 5 -24.72 5 -39 5 C-39 4.67 -39 4.34 -39 4 C-26.13 4 -13.26 4 0 4 C0 2.68 0 1.36 0 0 Z " fill="#3D3A3B" transform="translate(697,626)"/>
<path d="M0 0 C-1.24976756 3.65316671 -1.67098753 4.78065836 -5 7 C-8.1875 7.125 -8.1875 7.125 -11 7 C-10.34 6.01 -9.68 5.02 -9 4 C-9.33 3.34 -9.66 2.68 -10 2 C-8.71211992 1.46987262 -7.41953322 0.9511671 -6.125 0.4375 C-5.40570312 0.14746094 -4.68640625 -0.14257812 -3.9453125 -0.44140625 C-2 -1 -2 -1 0 0 Z " fill="#343132" transform="translate(1433,778)"/>
<path d="M0 0 C0.66 0 1.32 0 2 0 C1.40984815 5.50808397 0.43336231 10.64878069 -1 16 C-3.35448165 13.44931155 -3.98327924 12.28982642 -4.1875 8.75 C-4.125625 7.8425 -4.06375 6.935 -4 6 C-3.34 6 -2.68 6 -2 6 C-2 5.01 -2 4.02 -2 3 C-1.34 3 -0.68 3 0 3 C0 2.01 0 1.02 0 0 Z " fill="#201C1D" transform="translate(935,754)"/>
<path d="M0 0 C0.33 0.99 0.66 1.98 1 3 C0.05988318 4.70116376 -0.94895617 6.36504293 -2 8 C-2.69822617 9.65369357 -3.37498605 11.31727014 -4 13 C-4.99 13 -5.98 13 -7 13 C-8.68798827 14.43750191 -8.68798827 14.43750191 -10 16 C-10.66 15.67 -11.32 15.34 -12 15 C-11.38511719 14.25234375 -10.77023437 13.5046875 -10.13671875 12.734375 C-8.92435547 11.25710937 -8.92435547 11.25710937 -7.6875 9.75 C-6.88699219 8.77546875 -6.08648438 7.8009375 -5.26171875 6.796875 C-3.45557742 4.5633738 -1.70180085 2.31312737 0 0 Z " fill="#FFF6C0" transform="translate(1156,58)"/>
<path d="M0 0 C0.99 0 1.98 0 3 0 C3.33 0.66 3.66 1.32 4 2 C3.33333333 3.66666667 2.66666667 5.33333333 2 7 C2.33 7.66 2.66 8.32 3 9 C2.01 9.99 1.02 10.98 0 12 C0 11.34 0 10.68 0 10 C-0.99 10.33 -1.98 10.66 -3 11 C-3.33 10.01 -3.66 9.02 -4 8 C-3.67 7.34 -3.34 6.68 -3 6 C-2.34 6 -1.68 6 -1 6 C-0.67 4.02 -0.34 2.04 0 0 Z " fill="#3E3A3B" transform="translate(1109,756)"/>
<path d="M0 0 C7.26 0 14.52 0 22 0 C17.15941747 3.22705502 11.2136913 3.49711787 5.5 2.61328125 C3.64725094 2.1467855 1.81927891 1.58354229 0 1 C0 0.67 0 0.34 0 0 Z " fill="#302C2D" transform="translate(188,606)"/>
<path d="M0 0 C0.68620031 1.32338632 1.34786461 2.65949948 2 4 C2.350625 4.70125 2.70125 5.4025 3.0625 6.125 C4.28529555 9.87490636 4.21548905 13.41799051 4.125 17.3125 C4.11597656 18.05306641 4.10695313 18.79363281 4.09765625 19.55664062 C4.07424213 21.37123467 4.03837615 23.18566071 4 25 C3.67 25 3.34 25 3 25 C3 20.05 3 15.1 3 10 C2.34 10 1.68 10 1 10 C0.34 8.35 -0.32 6.7 -1 5 C-1.66 5 -2.32 5 -3 5 C-2.67 4.01 -2.34 3.02 -2 2 C-1.34 2 -0.68 2 0 2 C0 1.34 0 0.68 0 0 Z " fill="#4C494A" transform="translate(651,695)"/>
<path d="M0 0 C1.299375 -0.03867187 1.299375 -0.03867187 2.625 -0.078125 C5 0.25 5 0.25 8 3.25 C3.05 3.25 -1.9 3.25 -7 3.25 C-7.33 2.59 -7.66 1.93 -8 1.25 C-5.09458095 0.28152698 -3.03362546 0.05417188 0 0 Z " fill="#211D1E" transform="translate(175,782.75)"/>
<path d="M0 0 C1.32440261 2.64880522 0.8146285 3.99197266 0.25 6.875 C0.09015625 7.73867188 -0.0696875 8.60234375 -0.234375 9.4921875 C-1 12 -1 12 -4 16 C-4.33 12.7 -4.66 9.4 -5 6 C-4.01 5.34 -3.02 4.68 -2 4 C-0.80767387 1.94996045 -0.80767387 1.94996045 0 0 Z " fill="#231F20" transform="translate(1379,712)"/>
<path d="M0 0 C0.33 0 0.66 0 1 0 C0.88556397 2.0839403 0.75804453 4.16716493 0.625 6.25 C0.55539062 7.41015625 0.48578125 8.5703125 0.4140625 9.765625 C0 13 0 13 -2 17 C-2 13.7 -2 10.4 -2 7 C-3.32 7.99 -4.64 8.98 -6 10 C-4.34784004 6.42032008 -2.26875648 3.22017048 0 0 Z " fill="#FFF5BB" transform="translate(1462,179)"/>
<path d="M0 0 C0.66 0.66 1.32 1.32 2 2 C1.625 5.625 1.625 5.625 1 9 C-0.32 9.33 -1.64 9.66 -3 10 C-3.36923077 4.58461538 -3.36923077 4.58461538 -1.5 1.625 C-1.005 1.08875 -0.51 0.5525 0 0 Z " fill="#272324" transform="translate(953,696)"/>
<path d="M0 0 C3 1 3 1 4.75 3.4375 C5.36875 4.7059375 5.36875 4.7059375 6 6 C5.67 6.66 5.34 7.32 5 8 C4.67 8.99 4.34 9.98 4 11 C3.34 11 2.68 11 2 11 C2 10.34 2 9.68 2 9 C1.34 9 0.68 9 0 9 C0.185625 8.071875 0.37125 7.14375 0.5625 6.1875 C1.24123881 2.98656229 1.24123881 2.98656229 0 0 Z " fill="#3B3839" transform="translate(1291,750)"/>
<path d="M0 0 C0.66 0.33 1.32 0.66 2 1 C2.59355614 3.64860427 2.74209269 6.29197322 3 9 C2.01 9.33 1.02 9.66 0 10 C-2.08207071 5.59090909 -2.08207071 5.59090909 -1.6875 2.75 C-1 1 -1 1 0 0 Z " fill="#201C1D" transform="translate(976,736)"/>
<path d="M0 0 C0.66 0.33 1.32 0.66 2 1 C-1.96 4.96 -5.92 8.92 -10 13 C-10 8.83248505 -7.76127698 6.85829482 -5 4 C-3.36927384 2.62294236 -1.7133562 1.27277889 0 0 Z " fill="#DBDADA" transform="translate(1396,690)"/>
<path d="M0 0 C0.66 0.33 1.32 0.66 2 1 C-1.63 4.63 -5.26 8.26 -9 12 C-9 9 -9 9 -6.75 6.5625 C-5.8425 5.716875 -4.935 4.87125 -4 4 C-3.236875 3.236875 -2.47375 2.47375 -1.6875 1.6875 C-1.130625 1.130625 -0.57375 0.57375 0 0 Z " fill="#DFDEDE" transform="translate(160,690)"/>
<path d="M0 0 C1.66666667 0 3.33333333 0 5 0 C6.2077558 3.62326739 5.54311128 4.64146369 4 8 C1.84622436 5.37801226 0.59927826 3.35595828 0 0 Z " fill="#2A2627" transform="translate(1260,700)"/>
<path d="M0 0 C0.33 0 0.66 0 1 0 C2.0257259 4.41062136 2.03684712 6.92630576 0 11 C-0.99 10.67 -1.98 10.34 -3 10 C-2.67 8.68 -2.34 7.36 -2 6 C-1.34 6 -0.68 6 0 6 C0 4.02 0 2.04 0 0 Z " fill="#1E1A1B" transform="translate(930,767)"/>
<path d="M0 0 C2.10814567 4.21629134 2.17700355 6.39790775 2 11 C1.01 11 0.02 11 -1 11 C-0.67 7.37 -0.34 3.74 0 0 Z " fill="#1F1B1C" transform="translate(1376,740)"/>
<path d="M0 0 C2 1.8125 2 1.8125 4 4 C4 4.99 4 5.98 4 7 C2.35 6.67 0.7 6.34 -1 6 C-0.67 4.02 -0.34 2.04 0 0 Z " fill="#252122" transform="translate(1295,757)"/>
<path d="M0 0 C1.32 0.33 2.64 0.66 4 1 C4 2.65 4 4.3 4 6 C2.68 6 1.36 6 0 6 C0 4.02 0 2.04 0 0 Z " fill="#262223" transform="translate(965,708)"/>
<path d="M0 0 C0.99 0 1.98 0 3 0 C3.625 2.3125 3.625 2.3125 4 5 C3.01 6.485 3.01 6.485 2 8 C0.23537317 4.91190305 0 3.76687864 0 0 Z " fill="#1F1B1C" transform="translate(961,696)"/>
<path d="M0 0 C0.33 0.66 0.66 1.32 1 2 C1.99 2.33 2.98 2.66 4 3 C3.67 5.31 3.34 7.62 3 10 C0.64551835 7.44931155 0.01672076 6.28982642 -0.1875 2.75 C-0.125625 1.8425 -0.06375 0.935 0 0 Z " fill="#322E2F" transform="translate(931,760)"/>
<path d="M0 0 C0.66 0.66 1.32 1.32 2 2 C1.625 4.125 1.625 4.125 1 6 C0.34 5.67 -0.32 5.34 -1 5 C-1.66 5.66 -2.32 6.32 -3 7 C-2.67 5.35 -2.34 3.7 -2 2 C-1.34 2 -0.68 2 0 2 C0 1.34 0 0.68 0 0 Z " fill="#413D3E" transform="translate(984,758)"/>
<path d="M0 0 C2.62386487 3.06117568 3 3.73173127 3 8 C2.01 8.33 1.02 8.66 0 9 C0 6.03 0 3.06 0 0 Z " fill="#1E1A1B" transform="translate(981,752)"/>
</svg>
