<?xml version="1.0" encoding="UTF-8"?>
<svg version="1.1" xmlns="http://www.w3.org/2000/svg" width="716" height="354">
<path d="M0 0 C69.63 0 139.26 0 211 0 C209.9270073 7.51094891 209.9270073 7.51094891 205 12 C204.0762705 13.45386991 203.15996057 14.91247285 202.25 16.375 C199.66877911 19.85603581 199.66877911 19.85603581 197.00390625 20.4296875 C192.78037334 20.08337286 188.9919425 18.65353335 185.0703125 17.12109375 C178.52569736 14.71426898 171.87871768 13.23485437 165.0625 11.8125 C163.87720703 11.55275391 162.69191406 11.29300781 161.47070312 11.02539062 C151.29887364 8.866039 141.51264356 7.93726532 131.12133789 7.97973633 C130.08919537 7.9819305 130.08919537 7.9819305 129.03620148 7.98416901 C127.35746362 7.98795026 125.67873054 7.99376365 124 8 C123.9770814 36.80700712 123.95943608 65.61401314 123.94893467 94.42102761 C123.94768428 97.83854642 123.94638993 101.25606521 123.94506836 104.67358398 C123.94480605 105.35381838 123.94454374 106.03405277 123.94427348 106.73490033 C123.93994755 117.68254065 123.93207732 128.6301756 123.9228472 139.57781275 C123.91342439 150.84982599 123.90800096 162.12183659 123.90591151 173.39385396 C123.90461871 179.70883001 123.90162512 186.02379397 123.89426994 192.3387661 C123.76879782 236.74712225 123.76879782 236.74712225 125.87099552 281.09549427 C126.21881828 286.67177257 126.21881828 286.67177257 124 290 C121.26953125 290.35644531 121.26953125 290.35644531 117.8125 290.328125 C116.55566406 290.32296875 115.29882812 290.3178125 114.00390625 290.3125 C113.34535645 290.3021875 112.68680664 290.291875 112.00830078 290.28125 C110.0356587 290.25055486 108.06270888 290.24225858 106.08984375 290.234375 C100.61237198 290.18979741 95.2147008 290.05033567 89.76464844 289.4899292 C88.42342926 289.35289141 88.42342926 289.35289141 87.05511475 289.21308517 C86.03783295 289.10760801 86.03783295 289.10760801 85 289 C85.05841757 287.68390904 85.11683514 286.36781809 85.17702293 285.01184559 C86.64469614 251.46050207 87.32956646 217.96586679 87.40471697 184.38435912 C87.42077027 178.1078837 87.44741567 171.83145152 87.4727478 165.55500793 C87.5188129 153.7668143 87.55589679 141.97861183 87.58942068 130.19037658 C87.61653555 120.76956067 87.64799215 111.34876945 87.68261719 101.92797852 C87.68507874 101.25788087 87.68754028 100.58778323 87.69007643 99.8973796 C87.70245723 96.53337068 87.71491256 93.16936203 87.72740483 89.80535352 C87.82964429 62.2036021 87.91924153 34.60182208 88 7 C84.99199064 7.14373321 81.98426298 7.29145205 78.9765625 7.44140625 C78.13424072 7.48124634 77.29191895 7.52108643 76.42407227 7.56213379 C66.10351493 8.08390362 56.04717152 9.58207083 46 12 C44.6396228 12.30472726 43.27891125 12.60796369 41.91796875 12.91015625 C40.40357491 13.25229041 38.88925274 13.59474192 37.375 13.9375 C36.29931763 14.17412354 36.29931763 14.17412354 35.2019043 14.41552734 C31.73759977 15.21255321 28.52276341 16.1251612 25.26953125 17.5703125 C21.17257506 19.36181305 17.48159283 20.28717003 13 20 C10.33393995 18.17585365 9.26008685 16.43741879 7.625 13.6875 C5.79960991 10.66858561 3.62858399 8.29726732 1.20703125 5.74609375 C0 4 0 4 0 0 Z " fill="#FC2020" transform="translate(0,2)"/>
<path d="M0 0 C1.11286629 -0.00503792 1.11286629 -0.00503792 2.24821472 -0.01017761 C4.71562355 -0.01971675 7.18296446 -0.02163363 9.65039062 -0.02270508 C11.37561063 -0.02592071 13.10083036 -0.02928501 14.8260498 -0.03279114 C18.45777007 -0.03879333 22.08946653 -0.04063043 25.72119141 -0.04003906 C30.32450507 -0.03993854 34.92766064 -0.05347051 39.53093719 -0.07081127 C43.10541448 -0.08207107 46.67985558 -0.08395388 50.25434875 -0.08342934 C51.94762201 -0.08459317 53.64089671 -0.08892265 55.33415222 -0.0967617 C65.6168992 -0.13982756 75.64086424 0.37062677 85.84631348 1.66093445 C89.51916309 2.11010653 93.18049311 2.42505926 96.86914062 2.70776367 C116.89097081 5.44782017 138.53590483 14.67473757 152.80664062 29.14526367 C153.43054688 29.74725586 154.05445313 30.34924805 154.69726562 30.96948242 C167.9511113 44.71314413 170.41575866 64.36135964 170.28149414 82.55224609 C169.94629692 95.26652746 167.64658063 107.19023781 160.80664062 118.14526367 C160.491203 118.71704346 160.17576538 119.28882324 159.85076904 119.87792969 C158.63743872 121.86904253 157.47299424 123.50947574 155.80664062 125.14526367 C152.78976544 125.7952027 150.8676192 125.97916851 147.88085938 125.82885742 C146.75947319 125.81400047 146.75947319 125.81400047 145.61543274 125.79884338 C143.23962816 125.75981429 140.868535 125.67204109 138.49414062 125.58276367 C136.87897325 125.54763374 135.26373304 125.51569764 133.6484375 125.48706055 C129.69937085 125.41009355 125.75380286 125.28941319 121.80664062 125.14526367 C122.41521364 121.14147585 123.11524415 118.16914353 125.11914062 114.64526367 C129.87165604 105.49839341 132.42568432 95.4310839 132.80664062 85.14526367 C132.85820312 84.18620117 132.90976562 83.22713867 132.96289062 82.23901367 C133.52436528 63.33603348 128.32979992 45.45649377 117.55664062 29.89526367 C94.18953833 6.52816138 59.47086566 8.87536427 28.80664062 8.14526367 C28.80664062 46.75526367 28.80664062 85.36526367 28.80664062 125.14526367 C25.86063203 126.61826797 23.22055651 126.27515672 19.93554688 126.27807617 C19.2574144 126.2790329 18.57928192 126.27998962 17.88059998 126.28097534 C16.44570829 126.28165607 15.01081351 126.27980921 13.57592773 126.27563477 C11.38127703 126.27029321 9.18683175 126.27557902 6.9921875 126.28198242 C5.59830684 126.28132146 4.20442631 126.28003992 2.81054688 126.27807617 C1.54025635 126.27694824 0.26996582 126.27582031 -1.03881836 126.2746582 C-4.19335938 126.14526367 -4.19335938 126.14526367 -7.19335938 125.14526367 C-7.20882057 123.84552612 -7.20882057 123.84552612 -7.22459412 122.51953125 C-7.32328648 114.28341917 -7.42589074 106.04736657 -7.53269863 97.81135559 C-7.58745354 93.57893082 -7.64078773 89.34649885 -7.69067383 85.11401367 C-7.73902952 81.01609369 -7.79137972 76.91824112 -7.84630013 72.82040405 C-7.86640687 71.27063719 -7.88516435 69.72085211 -7.9024334 68.17105103 C-8.00586591 58.98224889 -8.35502659 49.85701698 -8.97520447 40.68847656 C-9.24203891 36.3546238 -9.32279742 32.04819522 -9.29101562 27.70776367 C-9.28960068 26.93134521 -9.28818573 26.15492676 -9.28672791 25.35498047 C-9.2812717 22.95169674 -9.26875132 20.54851768 -9.25585938 18.14526367 C-9.25082564 16.48380671 -9.2462661 14.82234825 -9.2421875 13.16088867 C-9.23135024 9.15564197 -9.21419312 5.15047033 -9.19335938 1.14526367 C-6.23808963 -0.3323712 -3.24006569 -0.00208799 0 0 Z " fill="#FC2020" transform="translate(252.193359375,0.854736328125)"/>
<path d="M0 0 C1.3921875 0.12181641 1.3921875 0.12181641 2.8125 0.24609375 C5 0.5625 5 0.5625 6 1.5625 C6.10213476 4.50938815 6.13850745 7.42812422 6.125 10.375 C6.13080078 11.57672852 6.13080078 11.57672852 6.13671875 12.80273438 C6.12992514 17.09289953 5.9485558 21.29915159 5.50708008 25.56665039 C4.7887559 33.97041005 4.81460768 42.37955658 4.77020454 50.80815506 C4.7536137 53.84256945 4.73038006 56.87686885 4.70530701 59.91122437 C4.63496004 68.52881053 4.57407598 77.14643704 4.52319336 85.76416016 C4.49148797 91.0559486 4.45026319 96.34759189 4.40299797 101.63926315 C4.3869611 103.65274853 4.37464735 105.66626707 4.36609077 107.67979813 C4.35399884 110.48020595 4.3298844 113.28026752 4.30297852 116.08056641 C4.30238937 116.91479126 4.30180023 117.74901611 4.30119324 118.60852051 C4.22792538 124.33457462 4.22792538 124.33457462 2 126.5625 C-0.58103306 126.73752995 -3.05308163 126.79412279 -5.6328125 126.7578125 C-6.76056595 126.75356766 -6.76056595 126.75356766 -7.91110229 126.74923706 C-10.31589578 126.73802874 -12.72031881 126.71292352 -15.125 126.6875 C-16.75390088 126.67747102 -18.38280758 126.66834503 -20.01171875 126.66015625 C-24.00795556 126.63808735 -28.00391494 126.60355351 -32 126.5625 C-34.17097606 120.42166268 -34.24523105 114.84115115 -34.16015625 108.3671875 C-34.15454681 107.27790451 -34.14893738 106.18862152 -34.14315796 105.06632996 C-34.13069362 102.73292537 -34.11400568 100.39954019 -34.09347534 98.06619263 C-34.04132567 91.95697453 -34.02435213 85.84768448 -34.0078125 79.73828125 C-34.00408127 78.52327438 -34.00035004 77.30826752 -33.99650574 76.05644226 C-33.97551941 65.57357233 -34.13389731 55.10314217 -34.4375 44.625 C-34.45732941 43.8991571 -34.47715881 43.17331421 -34.49758911 42.42547607 C-34.73475015 33.91770541 -35.16154468 25.43766906 -35.78881836 16.95043945 C-36.10750206 11.83786876 -36.30959262 6.67988386 -36 1.5625 C-34.46521175 0.02771175 -32.98142621 0.34715803 -30.84375 0.24609375 C-29.98523438 0.20419922 -29.12671875 0.16230469 -28.2421875 0.11914062 C-27.33726562 0.07982422 -26.43234375 0.04050781 -25.5 0 C-24.18902344 -0.06477539 -24.18902344 -0.06477539 -22.8515625 -0.13085938 C-15.21687682 -0.48767332 -7.62062421 -0.70360877 0 0 Z " fill="#FC2020" transform="translate(484,0.4375)"/>
<path d="M0 0 C5.67830078 -0.02464705 11.35657069 -0.04283462 17.03491211 -0.05493164 C18.96818585 -0.05997256 20.90145576 -0.06680519 22.8347168 -0.07543945 C25.60726872 -0.08751565 28.37977041 -0.09323057 31.15234375 -0.09765625 C32.45702858 -0.10539818 32.45702858 -0.10539818 33.78807068 -0.11329651 C35.85905814 -0.11349185 37.92994324 -0.06208168 40 0 C41.7190463 1.7190463 41.13227512 3.89876191 41.13671875 6.18945312 C41.13285156 6.89005859 41.12898437 7.59066406 41.125 8.3125 C41.13080078 9.29959961 41.13080078 9.29959961 41.13671875 10.30664062 C41.12929869 14.21330016 40.90826584 18.03645863 40.50708008 21.92211914 C39.77500299 30.53676805 39.81423476 39.1614721 39.77020454 47.80124283 C39.75362246 50.93647035 39.73038863 54.07158617 39.70530701 57.20675659 C39.63493833 66.11108766 39.57408241 75.01545815 39.52319336 83.91992188 C39.49148901 89.38677162 39.45026356 94.85348083 39.40299797 100.32021713 C39.38695937 102.40068943 39.37464642 104.48119383 39.36609077 106.56171036 C39.35399979 109.45551238 39.32988542 112.3489792 39.30297852 115.24267578 C39.30238937 116.10495285 39.30180023 116.96722992 39.30119324 117.8556366 C39.22792441 123.77207559 39.22792441 123.77207559 37 126 C34.51433457 126.19948557 32.1424925 126.27989743 29.65625 126.265625 C28.93135376 126.26753845 28.20645752 126.2694519 27.45959473 126.27142334 C25.92634738 126.27278487 24.3930885 126.26909064 22.85986328 126.26074219 C20.50917741 126.25004178 18.15925577 126.26063808 15.80859375 126.2734375 C14.32031081 126.2721159 12.83202834 126.26955349 11.34375 126.265625 C10.63851196 126.26967346 9.93327393 126.27372192 9.20666504 126.27789307 C4.22992486 126.22992486 4.22992486 126.22992486 2 124 C1.78774115 121.53297512 1.69905907 119.17526001 1.69702148 116.70581055 C1.68436249 115.57555702 1.68436249 115.57555702 1.67144775 114.42247009 C1.64551208 111.91054668 1.63346537 109.39874261 1.62109375 106.88671875 C1.60489178 105.1205811 1.58770902 103.35445221 1.56959534 101.58833313 C1.52373842 96.90591627 1.48909748 92.22348627 1.45739746 87.54095459 C1.4059518 80.16323674 1.3398975 72.78562997 1.27125931 65.40805435 C1.25447295 63.60116078 1.23811346 61.7942632 1.22217941 59.98736191 C1.10862191 47.40893205 0.85387921 34.84988187 0.33335876 22.28092957 C0.02846554 14.84943007 -0.0515124 7.43760499 0 0 Z " fill="#FC2020" transform="translate(608,1)"/>
<path d="M0 0 C0.73024887 0.00718552 1.46049774 0.01437103 2.21287537 0.02177429 C3.3370713 0.02246162 3.3370713 0.02246162 4.48397827 0.02316284 C6.06851281 0.02618493 7.65304438 0.03406998 9.23753357 0.0464325 C11.6714777 0.06469621 14.10504173 0.06694215 16.53904724 0.06669617 C18.07615993 0.07161104 19.61327002 0.07743922 21.15037537 0.08427429 C21.88264847 0.08538712 22.61492157 0.08649994 23.36938477 0.08764648 C28.49916673 0.13619066 28.49916673 0.13619066 29.61521912 1.25224304 C29.73379447 3.24776785 29.78264222 5.24746045 29.80467224 7.24638367 C29.82138977 8.53282776 29.8381073 9.81927185 29.85533142 11.1446991 C29.8620134 11.83829025 29.86869537 12.53188141 29.87557983 13.24649048 C29.89665022 15.42723685 29.92368673 17.60783772 29.95225525 19.78849792 C30.01207132 24.44302186 30.06389505 29.09761898 30.11521912 33.75224304 C30.17492666 39.09557924 30.2380466 44.43884999 30.30709839 49.78207397 C30.33310059 51.900242 30.35427974 54.01841824 30.37510681 56.13664246 C30.47357652 64.63458103 30.84126468 73.08334404 31.39338684 81.56266785 C31.66804018 86.13077743 31.76508298 90.67729137 31.74021912 95.25224304 C31.7460199 96.41239929 31.7460199 96.41239929 31.75193787 97.59599304 C31.74220324 103.12525892 31.74220324 103.12525892 30.61521912 104.25224304 C27.75426288 104.3533369 24.91795855 104.39193733 22.05662537 104.38505554 C20.76739418 104.38649063 20.76739418 104.38649063 19.45211792 104.38795471 C17.6304263 104.38863661 15.80873227 104.38678166 13.98704529 104.38261414 C11.19312591 104.3772725 8.39936779 104.38255543 5.60545349 104.38896179 C3.83917709 104.38830088 2.0729008 104.38701946 0.30662537 104.38505554 C-0.5329924 104.38707977 -1.37261017 104.389104 -2.2376709 104.39118958 C-8.15487144 104.36719777 -8.15487144 104.36719777 -10.38478088 103.25224304 C-10.29390198 101.80784851 -10.29390198 101.80784851 -10.20118713 100.33427429 C-9.03313103 81.05192881 -8.44972017 61.75733663 -8.16993713 42.44364929 C-8.15131622 41.22609955 -8.13269531 40.0085498 -8.11351013 38.75410461 C-8.0187223 32.55595749 -7.93373445 26.35796421 -7.86524963 20.1594696 C-7.83182989 17.85314816 -7.797994 15.54683271 -7.76368713 13.24052429 C-7.75531326 12.1616243 -7.74693939 11.0827243 -7.73831177 9.97113037 C-7.71328835 8.48860023 -7.71328835 8.48860023 -7.6877594 6.97612 C-7.67745193 6.10872696 -7.66714447 5.24133392 -7.65652466 4.34765625 C-7.05047725 -0.32556853 -3.99810551 0.01816064 0 0 Z " fill="#FC2020" transform="translate(617.3847808837891,187.7477569580078)"/>
<path d="M0 0 C4.96622349 -0.02465098 9.93241166 -0.04283649 14.89868164 -0.05493164 C16.58944316 -0.0599719 18.28020029 -0.06680405 19.97094727 -0.07543945 C22.39600707 -0.08751857 24.82100944 -0.09323123 27.24609375 -0.09765625 C28.38672523 -0.10539818 28.38672523 -0.10539818 29.55039978 -0.11329651 C31.3673257 -0.11349238 33.18413127 -0.06197277 35 0 C38.32669042 3.32669042 37.02681672 13.19352857 37.04638672 17.8125 C37.03911479 22.52186535 37.00069664 27.23099503 36.96118164 31.94018555 C36.80401694 52.24683686 37.368945 72.39316118 38.81640625 92.64648438 C39.00572004 96.10448205 39.03085577 99.53754157 39 103 C35.73886087 104.63056957 32.14520683 104.14171523 28.5625 104.1328125 C27.72662354 104.13376923 26.89074707 104.13472595 26.02954102 104.13571167 C24.26090418 104.13639268 22.49226485 104.13454391 20.72363281 104.13037109 C18.01101079 104.12502171 15.29855435 104.13031875 12.5859375 104.13671875 C10.8697913 104.13605795 9.1536452 104.13477676 7.4375 104.1328125 C6.2155896 104.13584885 6.2155896 104.13584885 4.96899414 104.13894653 C-0.77008072 104.11495964 -0.77008072 104.11495964 -3 103 C-2.85766469 98.68737742 -2.71044319 94.37493355 -2.5625 90.0625 C-2.52318359 88.86947266 -2.48386719 87.67644531 -2.44335938 86.44726562 C-2.22335692 80.101041 -1.92647244 73.7732637 -1.5 67.4375 C-0.70269419 54.95840307 -0.65322005 42.44574409 -0.46777344 29.94610596 C-0.41673445 26.55973092 -0.36148718 23.1734245 -0.30664062 19.78710938 C-0.2006391 13.19146158 -0.09869029 6.59576104 0 0 Z " fill="#FC2020" transform="translate(245,188)"/>
<path d="M0 0 C1.84658203 0.00773438 1.84658203 0.00773438 3.73046875 0.015625 C5.01824219 0.03625 6.30601562 0.056875 7.6328125 0.078125 C8.91285156 0.08328125 10.19289063 0.0884375 11.51171875 0.09375 C16.74888876 0.1375299 21.62895151 0.23885863 26.7578125 1.328125 C26.76811996 2.11278641 26.77842743 2.89744781 26.78904724 3.70588684 C26.88803515 11.19054235 26.99066947 18.67513565 27.09715176 26.159688 C27.1517408 30.00527996 27.2050396 33.85087977 27.25512695 37.6965332 C27.54484522 60.20199059 27.54484522 60.20199059 28.55053711 82.68481445 C28.80369241 87.13456306 28.87760068 91.5603674 28.8203125 96.015625 C28.81580078 96.74072266 28.81128906 97.46582031 28.80664062 98.21289062 C28.79534845 99.91800904 28.77746088 101.6230824 28.7578125 103.328125 C25.28449221 104.48589843 22.55783229 104.45761822 18.89453125 104.4609375 C17.89012749 104.46237259 17.89012749 104.46237259 16.86543274 104.46383667 C15.4491059 104.46451658 14.03277592 104.46267545 12.61645508 104.45849609 C10.46363185 104.45317032 8.31101966 104.45843436 6.15820312 104.46484375 C4.77864538 104.46418244 3.39908776 104.46290019 2.01953125 104.4609375 C0.77131592 104.45980957 -0.47689941 104.45868164 -1.76293945 104.45751953 C-5.01415409 104.33660565 -8.05164234 103.94426825 -11.2421875 103.328125 C-11.27019479 100.86970756 -11.28948471 98.41163329 -11.3046875 95.953125 C-11.31306641 95.293125 -11.32144531 94.633125 -11.33007812 93.953125 C-11.34988197 89.59627806 -11.18671761 85.27849465 -10.89894104 80.93089294 C-10.28315598 71.44213346 -10.11752527 61.96299693 -10.03125 52.45703125 C-10.01692795 51.02284641 -10.00249756 49.58866266 -9.98796082 48.15447998 C-9.92937443 42.21525925 -9.87373585 36.27609553 -9.84082031 30.33666992 C-9.81992002 26.65881405 -9.78471384 22.98133473 -9.74006271 19.30369377 C-9.72593095 17.91346569 -9.71718665 16.52317171 -9.71400833 15.13287544 C-9.70911742 13.20511949 -9.68438148 11.27744449 -9.65869141 9.34985352 C-9.65060455 8.25608902 -9.6425177 7.16232452 -9.63418579 6.03541565 C-9.2421875 3.328125 -9.2421875 3.328125 -7.89312744 1.4740448 C-5.32410126 -0.30911999 -3.08806446 -0.02564177 0 0 Z " fill="#FC2020" transform="translate(460.2421875,187.671875)"/>
<path d="M0 0 C0 2.64 0 5.28 0 8 C3.96 8 7.92 8 12 8 C14.64 15.59 17.28 23.18 20 31 C20.78375 28.504375 21.5675 26.00875 22.375 23.4375 C22.61782715 22.66591553 22.8606543 21.89433105 23.11083984 21.09936523 C24.47324707 16.74997161 25.76616026 12.38762638 27 8 C28.32 8 29.64 8 31 8 C30.40699628 14.12053585 29.08828515 19.66428606 27.27734375 25.53125 C27.01240616 26.40777222 26.74746857 27.28429443 26.47450256 28.18737793 C25.63489877 30.96013601 24.78635938 33.73006316 23.9375 36.5 C23.36333743 38.39044443 22.78976379 40.28106784 22.21679688 42.171875 C20.81799907 46.78334739 19.41118615 51.39230429 18 56 C16.02 56 14.04 56 12 56 C12.20496094 55.41992188 12.40992188 54.83984375 12.62109375 54.2421875 C12.89050781 53.46101563 13.15992188 52.67984375 13.4375 51.875 C13.70433594 51.10929687 13.97117187 50.34359375 14.24609375 49.5546875 C16.00178086 43.60536434 16.0265572 39.97533243 13.91015625 34.0703125 C13.68678085 33.43511688 13.46340546 32.79992126 13.23326111 32.14547729 C12.52251375 30.13380773 11.79291299 28.12960194 11.0625 26.125 C10.57490678 24.75565815 10.0885653 23.38586989 9.60351562 22.015625 C8.41678161 18.67179626 7.21305145 15.33438509 6 12 C4.02 12 2.04 12 0 12 C0 20.58 0 29.16 0 38 C2.475 37.505 2.475 37.505 5 37 C5.33 38.32 5.66 39.64 6 41 C2.29584707 43.46943529 0.37855495 43.46913089 -4 43 C-6.37351912 40.72496573 -6.95946187 39.34906378 -7.34057617 36.06738281 C-7.32486572 34.95717773 -7.30915527 33.84697266 -7.29296875 32.703125 C-7.28330078 31.49785156 -7.27363281 30.29257813 -7.26367188 29.05078125 C-7.23853516 27.79652344 -7.21339844 26.54226562 -7.1875 25.25 C-7.16719727 23.34541016 -7.16719727 23.34541016 -7.14648438 21.40234375 C-7.1111324 18.26780156 -7.06178248 15.13411455 -7 12 C-8.32 12 -9.64 12 -11 12 C-11 10.68 -11 9.36 -11 8 C-9.68 8 -8.36 8 -7 8 C-7 6.35 -7 4.7 -7 3 C-1.125 0 -1.125 0 0 0 Z " fill="#1E1A1F" transform="translate(512,136)"/>
<path d="M0 0 C2.31 0 4.62 0 7 0 C7 6.27 7 12.54 7 19 C11.29 19 15.58 19 20 19 C20 12.73 20 6.46 20 0 C22.31 0 24.62 0 27 0 C27 14.19 27 28.38 27 43 C24.69 43 22.38 43 20 43 C20 36.4 20 29.8 20 23 C15.71 23 11.42 23 7 23 C7 29.6 7 36.2 7 43 C4.69 43 2.38 43 0 43 C0 28.81 0 14.62 0 0 Z " fill="#1E1A1F" transform="translate(561,135)"/>
<path d="M0 0 C4.22621069 3.33648212 5.02971963 7.76779269 5.8203125 12.87890625 C6.19239982 19.34190127 5.71106997 27.47050575 2 33 C-2.13038926 35.80654655 -6.17753991 35.14183706 -11 35 C-11.33 39.29 -11.66 43.58 -12 48 C-14.31 48 -16.62 48 -19 48 C-19 32.16 -19 16.32 -19 0 C-17.68 0 -16.36 0 -15 0 C-14.34 0.66 -13.68 1.32 -13 2 C-12.34 1.484375 -11.68 0.96875 -11 0.4375 C-7.01866281 -1.47022407 -4.1656505 -1.37981715 0 0 Z M-12 6 C-12.41709358 8.61690757 -12.41709358 8.61690757 -12.29296875 11.6640625 C-12.28330078 12.78554687 -12.27363281 13.90703125 -12.26367188 15.0625 C-12.23853516 16.238125 -12.21339844 17.41375 -12.1875 18.625 C-12.17396484 19.80835938 -12.16042969 20.99171875 -12.14648438 22.2109375 C-12.11103916 25.14107539 -12.06162769 28.07031459 -12 31 C-7.31612437 31.35992038 -7.31612437 31.35992038 -3.125 29.75 C0.31652655 24.39651426 -0.58545791 17.07492593 -1 11 C-1.92160258 7.30147095 -1.92160258 7.30147095 -4 5 C-7.78878514 3.48448594 -8.52774429 3.68516286 -12 6 Z " fill="#1E1A1F" transform="translate(444,144)"/>
<path d="M0 0 C1.2890625 7.734375 1.2890625 7.734375 -1 12 C-6.87157893 12.02477942 -12.74312718 12.04289766 -18.61474609 12.05493164 C-20.61084524 12.05995022 -22.60694073 12.06676651 -24.60302734 12.07543945 C-27.47754826 12.08761356 -30.35202044 12.09325316 -33.2265625 12.09765625 C-34.55815903 12.10539818 -34.55815903 12.10539818 -35.91665649 12.11329651 C-40.39600242 12.11369908 -44.59071138 11.9115053 -49 11 C-49 7.37 -49 3.74 -49 0 C-43.57400466 -0.14358324 -38.14797947 -0.28596008 -32.72192383 -0.42724609 C-30.87816525 -0.47542146 -29.03441507 -0.52391959 -27.19067383 -0.57275391 C-24.53208556 -0.64311352 -21.87346868 -0.71229111 -19.21484375 -0.78125 C-18.39789536 -0.80312378 -17.58094696 -0.82499756 -16.73924255 -0.84753418 C-3.55728626 -1.18576209 -3.55728626 -1.18576209 0 0 Z " fill="#1E1A1F" transform="translate(406,297)"/>
<path d="M0 0 C1.98 0 3.96 0 6 0 C6.33 3.63 6.66 7.26 7 11 C8.8253125 10.6596875 8.8253125 10.6596875 10.6875 10.3125 C13.71744135 9.94312553 14.89591901 9.9583676 17.8125 11.125 C21.37257945 14.17649667 23.10755335 17.45011576 24 22 C24.56881515 30.26969713 24.93116207 38.34084495 19.3125 45 C15.87919192 46.48467377 12.68521215 46.47305001 9 46 C7.65909241 45.34870203 6.32407669 44.68486725 5 44 C2.525 44.495 2.525 44.495 0 45 C0 30.15 0 15.3 0 0 Z M6 16 C5.55077108 18.38609555 5.55077108 18.38609555 5.63671875 21.15625 C5.63736328 22.17847656 5.63800781 23.20070312 5.63867188 24.25390625 C5.65478516 25.32511719 5.67089844 26.39632812 5.6875 27.5 C5.68427734 28.57121094 5.68105469 29.64242187 5.67773438 30.74609375 C5.32919872 36.43185847 5.32919872 36.43185847 8 41 C10.95746492 41.58345476 10.95746492 41.58345476 14 41 C17.32361435 36.96029076 17.45845739 33.02598952 17.375 28 C17.38660156 27.30132812 17.39820313 26.60265625 17.41015625 25.8828125 C17.38495371 21.43036321 16.78329323 18.50908022 14 15 C10.18966533 13.5711245 9.4802327 13.67984487 6 16 Z " fill="#1E1A1F" transform="translate(628,133)"/>
<path d="M0 0 C1.89746094 -0.36749268 1.89746094 -0.36749268 4.234375 -0.35644531 C5.10868164 -0.35944641 5.98298828 -0.36244751 6.88378906 -0.36553955 C8.30256348 -0.34701935 8.30256348 -0.34701935 9.75 -0.328125 C11.2035791 -0.32531525 11.2035791 -0.32531525 12.68652344 -0.32244873 C14.73766514 -0.31571894 16.78879381 -0.30178617 18.83984375 -0.28125 C21.98709987 -0.25012757 25.13385535 -0.24028375 28.28125 -0.234375 C30.27083947 -0.22520399 32.26042382 -0.2148279 34.25 -0.203125 C35.66877441 -0.19675018 35.66877441 -0.19675018 37.11621094 -0.19024658 C37.99051758 -0.18063904 38.86482422 -0.17103149 39.765625 -0.16113281 C40.92239746 -0.15089081 40.92239746 -0.15089081 42.10253906 -0.14044189 C44 0 44 0 46 1 C46 4.3 46 7.6 46 11 C40.19633321 12.00035843 34.56997184 12.15387103 28.6875 12.125 C27.73214355 12.12306641 26.77678711 12.12113281 25.79248047 12.11914062 C16.84028907 12.06570357 7.92910018 11.61732051 -1 11 C-2.38550197 8.22899606 -2.1877467 6.0665294 -2 3 C-1.34 2.01 -0.68 1.02 0 0 Z " fill="#1E1A1F" transform="translate(466,297)"/>
<path d="M0 0 C1.98 0 3.96 0 6 0 C6.33 3.96 6.66 7.92 7 12 C8.65 11.34 10.3 10.68 12 10 C15.7673922 10.1321892 18.13401293 10.35948616 21.19042969 12.62011719 C23.64769477 15.85182523 23.45891518 17.92400459 23.390625 21.953125 C23.38496521 22.61334656 23.37930542 23.27356812 23.37347412 23.95379639 C23.3511623 26.05328263 23.30098314 28.1510337 23.25 30.25 C23.22992794 31.6770586 23.21167839 33.10414408 23.1953125 34.53125 C23.15131693 38.02139293 23.08232876 41.51052699 23 45 C21.02 45 19.04 45 17 45 C16.67 35.43 16.34 25.86 16 16 C9.68516016 16.52565835 9.68516016 16.52565835 7 18 C6.67 26.91 6.34 35.82 6 45 C4.02 45 2.04 45 0 45 C0 30.15 0 15.3 0 0 Z " fill="#1E1A1F" transform="translate(274,133)"/>
<path d="M0 0 C6.37206172 -0.02529825 12.74411054 -0.04284496 19.11621094 -0.05493164 C21.28516117 -0.05996891 23.454108 -0.06679891 25.62304688 -0.07543945 C28.73568563 -0.08753151 31.8482796 -0.09323428 34.9609375 -0.09765625 C35.934935 -0.10281754 36.9089325 -0.10797882 37.91244507 -0.11329651 C38.81322784 -0.11337204 39.71401062 -0.11344757 40.64208984 -0.11352539 C41.43706879 -0.115746 42.23204773 -0.11796661 43.05111694 -0.12025452 C45 0 45 0 47 1 C47 4.63 47 8.26 47 12 C40.64584918 11.9312346 34.29236345 11.84332213 27.9387207 11.73754883 C25.77668625 11.70426678 23.61456423 11.67624515 21.45239258 11.65356445 C18.34678782 11.62007892 15.24198802 11.567766 12.13671875 11.51171875 C11.16788254 11.50532883 10.19904633 11.4989389 9.20085144 11.49235535 C8.3001442 11.47256119 7.39943695 11.45276703 6.47143555 11.43237305 C5.67867722 11.42126999 4.88591888 11.41016693 4.06913757 11.39872742 C1.46994624 10.89785746 0.56599096 10.10847143 -1 8 C-1.25265405 4.90498792 -1.39935013 2.79870027 0 0 Z " fill="#1E1A1F" transform="translate(412,297)"/>
<path d="M0 0 C14 0 14 0 20 3 C23.62103688 7.9487504 23.68992985 13.0983028 23 19 C22.15488996 22.33757226 21.20683833 25.20073427 18.21875 27.1796875 C15.59078343 28.15129486 13.54386712 28.19852282 10.75 28.125 C9.1825 28.08375 7.615 28.0425 6 28 C6 32.95 6 37.9 6 43 C4.02 43 2.04 43 0 43 C0 28.81 0 14.62 0 0 Z M6 4 C6 10.6 6 17.2 6 24 C12.52936007 24.755959 12.52936007 24.755959 14.91015625 22.375 C16.25856755 19.43652664 16.43346271 17.22983302 16.4375 14 C16.45683594 12.96875 16.47617187 11.9375 16.49609375 10.875 C16.19570292 7.92396506 16.19570292 7.92396506 14.34765625 5.625 C11.6536237 3.43086117 11.6536237 3.43086117 6 4 Z " fill="#1E1A1F" transform="translate(348,135)"/>
<path d="M0 0 C2.31 0 4.62 0 7 0 C7.02505615 0.83772949 7.0501123 1.67545898 7.07592773 2.53857422 C7.17100357 5.64352256 7.27024025 8.74830181 7.37231445 11.85302734 C7.43698251 13.85894807 7.49683106 15.86502228 7.55664062 17.87109375 C7.61948242 19.75634766 7.61948242 19.75634766 7.68359375 21.6796875 C7.72025146 22.84226074 7.75690918 24.00483398 7.79467773 25.20263672 C7.81821659 27.9535501 7.81821659 27.9535501 9 30 C11.3431213 29.74438677 13.67843403 29.40729228 16 29 C17.36839363 26.26321275 17.21634818 23.95735576 17.31640625 20.8984375 C17.35830078 19.68671875 17.40019531 18.475 17.44335938 17.2265625 C17.48267578 15.95554688 17.52199219 14.68453125 17.5625 13.375 C17.60568359 12.09625 17.64886719 10.8175 17.69335938 9.5 C17.79969886 6.33344652 17.90172833 3.16681247 18 0 C19.98 0 21.96 0 24 0 C24 11.22 24 22.44 24 34 C22.35 34 20.7 34 19 34 C19 33.34 19 32.68 19 32 C18.360625 32.495 17.72125 32.99 17.0625 33.5 C12.98119982 35.49900417 9.46867235 35.89373447 5 35 C1.54091505 31.97330067 0.67683548 29.42607924 0 25 C-0.07869838 23.01561604 -0.10784044 21.02888652 -0.09765625 19.04296875 C-0.09443359 17.93115234 -0.09121094 16.81933594 -0.08789062 15.67382812 C-0.07951172 14.52333984 -0.07113281 13.37285156 -0.0625 12.1875 C-0.05798828 11.01767578 -0.05347656 9.84785156 -0.04882812 8.64257812 C-0.0370693 5.76166642 -0.02063426 2.88085956 0 0 Z " fill="#1E1A1F" transform="translate(595,144)"/>
<path d="M0 0 C4.12535294 3.1388555 5.98790005 5.93950025 7 11 C7.66679495 19.44210035 7.52951362 26.72180167 1.9375 33.5 C-2.3755633 35.7024153 -6.25320736 35.77291525 -11 35 C-14.12450072 33.24246835 -15.48889503 31.8944337 -17.25 28.8125 C-19.41350095 20.69937143 -20.14560582 11.77662545 -16.3125 4.0625 C-12.12302274 -1.48572664 -6.3788313 -2.02544334 0 0 Z M-8 3 C-13.07721607 9.40170722 -12.53294972 16.09457917 -12 24 C-11.27041126 26.68929804 -10.38955267 28.56828283 -9 31 C-6.12635209 31.41746608 -6.12635209 31.41746608 -3 31 C0.70452078 26.69241769 0.4210593 22.31769884 0.3125 16.9375 C0.31572266 16.13505859 0.31894531 15.33261719 0.32226562 14.50585938 C0.38160593 8.90748727 0.38160593 8.90748727 -2 4 C-5.05908413 3.18415432 -5.05908413 3.18415432 -8 3 Z " fill="#1E1A1F" transform="translate(412,144)"/>
<path d="M0 0 C3.1786241 2.5699514 4.70728109 4.12184327 6 8 C6.13143471 11.33844165 6.04340976 14.65744868 6 18 C0.39 18 -5.22 18 -11 18 C-10.690625 19.794375 -10.38125 21.58875 -10.0625 23.4375 C-9.88847656 24.44683594 -9.71445312 25.45617187 -9.53515625 26.49609375 C-9.25248903 28.9287438 -9.25248903 28.9287438 -8 30 C-6.00041636 30.04080783 -3.99954746 30.04254356 -2 30 C-1.01 28.02 -0.02 26.04 1 24 C2.65 24 4.3 24 6 24 C5.74277844 27.68684241 5.14419243 29.78603703 3.0625 32.875 C-1.19712717 35.83065967 -4.94989478 35.78009755 -10 35 C-13.19946071 33.76332902 -13.86064528 33.23225787 -15.6875 30.1875 C-19.08465818 21.93725871 -19.0445903 13.19944669 -15.921875 4.84765625 C-14.70448956 2.40772696 -13.43306518 1.21653259 -11 0 C-7.14822667 -1.28392444 -3.85543123 -1.11228815 0 0 Z M-8.625 4 C-10.78235055 7.13796443 -10.69134656 10.23442808 -11 14 C-7.37 14 -3.74 14 0 14 C-0.26315145 8.68619626 -0.26315145 8.68619626 -2.375 4 C-4.69945834 2.5695641 -6.30054166 2.5695641 -8.625 4 Z " fill="#1E1A1F" transform="translate(472,144)"/>
<path d="M0 0 C4.06507778 3.4396812 5.26227804 7.87477378 6 13 C6 14.65 6 16.3 6 18 C0.06 18 -5.88 18 -12 18 C-11.690625 19.60875 -11.38125 21.2175 -11.0625 22.875 C-10.88847656 23.77992188 -10.71445312 24.68484375 -10.53515625 25.6171875 C-10.10036299 27.99956317 -10.10036299 27.99956317 -9 30 C-7.02 30 -5.04 30 -3 30 C-2.01 28.02 -1.02 26.04 0 24 C1.65 24 3.3 24 5 24 C4.77407627 27.91601134 4.53572471 30.32602376 2.0625 33.4375 C-2.31760802 35.67224899 -6.17578476 35.79345645 -11 35 C-14.67976862 32.85346831 -16.34361825 30.84617458 -18 27 C-19.65412612 19.63647084 -19.9654788 9.75691139 -15.85546875 3.1640625 C-11.24599062 -1.65430437 -6.07380421 -1.57346739 0 0 Z M-9.625 4.5625 C-11.37947593 7.67270734 -11.66090842 10.47344754 -12 14 C-8.37 14 -4.74 14 -1 14 C-1.103125 12.55625 -1.20625 11.1125 -1.3125 9.625 C-1.37050781 8.81289062 -1.42851562 8.00078125 -1.48828125 7.1640625 C-1.82990528 4.62078662 -1.82990528 4.62078662 -5 3 C-8.01530615 2.65344564 -8.01530615 2.65344564 -9.625 4.5625 Z " fill="#1E1A1F" transform="translate(322,144)"/>
<path d="M0 0 C6.37204425 -0.07400528 12.74383989 -0.12853333 19.11621094 -0.16479492 C21.28520056 -0.179907 23.4541595 -0.20039735 25.62304688 -0.22631836 C28.73575396 -0.26259534 31.84805805 -0.2797019 34.9609375 -0.29296875 C36.42193375 -0.31619453 36.42193375 -0.31619453 37.91244507 -0.33988953 C38.81322784 -0.34011612 39.71401062 -0.34034271 40.64208984 -0.34057617 C41.43706879 -0.34723801 42.23204773 -0.35389984 43.05111694 -0.36076355 C43.69424835 -0.24171158 44.33737976 -0.12265961 45 0 C47 3 47 3 46.75 6.125 C46.5025 7.07375 46.255 8.0225 46 9 C43.72565824 10.13717088 42.47417045 10.12666384 39.94921875 10.12939453 C38.69782104 10.13412277 38.69782104 10.13412277 37.42114258 10.13894653 C36.51904053 10.1369223 35.61693848 10.13489807 34.6875 10.1328125 C33.76283936 10.13376923 32.83817871 10.13472595 31.88549805 10.13571167 C29.92854749 10.13639283 27.97159467 10.134543 26.01464844 10.13037109 C23.01231836 10.12502195 20.0101379 10.13031825 17.0078125 10.13671875 C15.10937467 10.13605796 13.21093693 10.13477677 11.3125 10.1328125 C10.41039795 10.13483673 9.5082959 10.13686096 8.57885742 10.13894653 C7.74459229 10.13579437 6.91032715 10.13264221 6.05078125 10.12939453 C4.94730347 10.12820114 4.94730347 10.12820114 3.8215332 10.12698364 C2 10 2 10 0 9 C0 6.03 0 3.06 0 0 Z " fill="#1E1A1F" transform="translate(41,296)"/>
<path d="M0 0 C1.98 0 3.96 0 6 0 C6 5.28 6 10.56 6 16 C9.63 16 13.26 16 17 16 C17 10.72 17 5.44 17 0 C18.98 0 20.96 0 23 0 C23 11.22 23 22.44 23 34 C21.02 34 19.04 34 17 34 C17 29.05 17 24.1 17 19 C13.37 19 9.74 19 6 19 C6 23.95 6 28.9 6 34 C4.02 34 2.04 34 0 34 C0 22.78 0 11.56 0 0 Z " fill="#1E1A1F" transform="translate(584,318)"/>
<path d="M0 0 C0.09765625 6.15234375 0.09765625 6.15234375 0 8 C-1 9 -1 9 -2.82862854 9.12025452 C-3.62582809 9.11803391 -4.42302765 9.11581329 -5.24438477 9.11352539 C-6.14524307 9.11344986 -7.04610138 9.11337433 -7.97425842 9.11329651 C-8.95341721 9.10813522 -9.93257599 9.10297394 -10.94140625 9.09765625 C-11.93881332 9.0962413 -12.9362204 9.09482635 -13.96385193 9.09336853 C-17.16343124 9.08775114 -20.36294169 9.07519571 -23.5625 9.0625 C-25.72591045 9.05748724 -27.88932199 9.05292395 -30.05273438 9.04882812 C-35.36851629 9.03777606 -40.68424646 9.02049979 -46 9 C-46 6.03 -46 3.06 -46 0 C-30.56885589 -1.21028581 -15.43443556 -1.04640241 0 0 Z " fill="#1E1A1F" transform="translate(140,297)"/>
<path d="M0 0 C0 11.88 0 23.76 0 36 C-1.98 36 -3.96 36 -6 36 C-6.99 36.495 -6.99 36.495 -8 37 C-13.20479705 37.50369004 -13.20479705 37.50369004 -16 37 C-19.27850572 33.88962278 -20.82716283 31.08734121 -21.203125 26.546875 C-21.30402247 20.52665938 -20.92998132 16.29650469 -18 11 C-16 9 -16 9 -13.8359375 8.8046875 C-12.61777344 8.83949219 -12.61777344 8.83949219 -11.375 8.875 C-10.14910156 8.90207031 -10.14910156 8.90207031 -8.8984375 8.9296875 C-7.95871094 8.96449219 -7.95871094 8.96449219 -7 9 C-6.87625 7.700625 -6.7525 6.40125 -6.625 5.0625 C-6.4140625 2.84765625 -6.4140625 2.84765625 -6 1 C-4 0 -4 0 0 0 Z M-11 12 C-13.74588072 14.62649461 -14.91763831 15.99815776 -15.23828125 19.8984375 C-15.26277344 21.04570312 -15.28726562 22.19296875 -15.3125 23.375 C-15.34988281 24.51710938 -15.38726562 25.65921875 -15.42578125 26.8359375 C-14.92206337 30.57916209 -13.89537207 31.68141802 -11 34 C-8.3593351 33.12744839 -8.3593351 33.12744839 -6 31 C-5.34885376 28.09411543 -5.52968097 25.27221374 -5.6875 22.3125 C-5.71005859 21.51521484 -5.73261719 20.71792969 -5.75585938 19.89648438 C-5.81473056 17.93018666 -5.90441245 15.96485509 -6 14 C-8.475 13.01 -8.475 13.01 -11 12 Z " fill="#1E1A1F" transform="translate(316,316)"/>
<path d="M0 0 C6.37203593 -0.0505963 12.7440203 -0.08568957 19.11621094 -0.10986328 C21.28517594 -0.11993789 23.45412731 -0.13359798 25.62304688 -0.15087891 C28.73571126 -0.17506323 31.84819651 -0.18646832 34.9609375 -0.1953125 C35.934935 -0.20563507 36.9089325 -0.21595764 37.91244507 -0.22659302 C39.26361923 -0.22681961 39.26361923 -0.22681961 40.64208984 -0.22705078 C41.43706879 -0.231492 42.23204773 -0.23593323 43.05111694 -0.24050903 C45 0 45 0 47 2 C46.67 4.31 46.34 6.62 46 9 C30.82 9 15.64 9 0 9 C-1 2 -1 2 0 0 Z " fill="#1E1A1F" transform="translate(200,297)"/>
<path d="M0 0 C4.92553348 -0.02497151 9.851029 -0.04298678 14.77661133 -0.05493164 C16.44751631 -0.05991846 18.11841702 -0.06671031 19.78930664 -0.07543945 C28.91178123 -0.12185731 37.92833871 -0.12303748 47 1 C47.04241723 3.33294775 47.04092937 5.66702567 47 8 C44.74377425 10.25622575 39.99690423 9.97446821 36.90997314 10.05352783 C34.618013 10.03675692 32.3300378 9.98319642 30.0390625 9.9140625 C29.2078891 9.89282318 28.3767157 9.87158386 27.52035522 9.84970093 C25.77732661 9.80371576 24.03437272 9.75481342 22.29150391 9.703125 C19.61245891 9.62463256 16.93329468 9.55778919 14.25390625 9.4921875 C12.55727277 9.44600169 10.86065723 9.3991507 9.1640625 9.3515625 C7.95793808 9.32178818 7.95793808 9.32178818 6.72744751 9.29141235 C1.11521902 9.11521902 1.11521902 9.11521902 0 8 C-0.14115161 5.32941149 -0.04247107 2.67567762 0 0 Z " fill="#1E1A1F" transform="translate(624,299)"/>
<path d="M0 0 C1.34644592 -0.00472824 1.34644592 -0.00472824 2.72009277 -0.009552 C4.18412537 -0.00651566 4.18412537 -0.00651566 5.67773438 -0.00341797 C6.67276978 -0.00437469 7.66780518 -0.00533142 8.69299316 -0.00631714 C10.80135155 -0.00699907 12.90971203 -0.0051439 15.01806641 -0.00097656 C18.25753465 0.0043715 21.49686423 -0.00092114 24.73632812 -0.00732422 C26.77929718 -0.00666344 28.82226615 -0.00538228 30.86523438 -0.00341797 C31.8412561 -0.0054422 32.81727783 -0.00746643 33.82287598 -0.009552 C34.72050659 -0.00639984 35.61813721 -0.00324768 36.54296875 0 C37.73424377 0.00119339 37.73424377 0.00119339 38.94958496 0.00241089 C40.77148438 0.12939453 40.77148438 0.12939453 41.77148438 1.12939453 C42.00677849 6.6588063 42.00677849 6.6588063 40.77148438 9.12939453 C34.38111207 9.15466515 27.99075255 9.1722277 21.6003418 9.18432617 C19.42455565 9.18936761 17.24877291 9.1962006 15.07299805 9.20483398 C11.95295371 9.21690791 8.83295399 9.22262458 5.71289062 9.22705078 C4.24415245 9.23479271 4.24415245 9.23479271 2.7457428 9.24269104 C1.84488449 9.24276657 0.94402618 9.2428421 0.01586914 9.24291992 C-1.17993019 9.24625084 -1.17993019 9.24625084 -2.39988708 9.24964905 C-4.22851562 9.12939453 -4.22851562 9.12939453 -5.22851562 8.12939453 C-5.35351562 4.62939453 -5.35351562 4.62939453 -5.22851562 1.12939453 C-3.6694478 -0.42967329 -2.16697281 0.00217082 0 0 Z " fill="#1E1A1F" transform="translate(576.228515625,298.87060546875)"/>
<path d="M0 0 C15.18 0 30.36 0 46 0 C46 2.97 46 5.94 46 9 C30.82 9 15.64 9 0 9 C0 6.03 0 3.06 0 0 Z " fill="#1E1A1F" transform="translate(147,297)"/>
<path d="M0 0 C1.35618942 0.00303635 1.35618942 0.00303635 2.73977661 0.00613403 C4.12533249 0.00469894 4.12533249 0.00469894 5.53887939 0.00323486 C7.49761015 0.00255285 9.45634314 0.00440862 11.41506958 0.00857544 C14.41528411 0.01391131 17.4153481 0.00863743 20.41555786 0.00222778 C22.31529778 0.0028888 24.2150376 0.00417045 26.11477661 0.00613403 C27.01485443 0.0041098 27.91493225 0.00208557 28.84228516 0 C30.0984111 0.00472824 30.0984111 0.00472824 31.37991333 0.009552 C32.11636078 0.0103476 32.85280823 0.01114319 33.61157227 0.01196289 C35.56008911 0.13894653 35.56008911 0.13894653 38.56008911 1.13894653 C38.56008911 3.77894653 38.56008911 6.41894653 38.56008911 9.13894653 C23.38008911 9.13894653 8.20008911 9.13894653 -7.43991089 9.13894653 C-7.43991089 0.02821734 -7.43991089 0.02821734 0 0 Z " fill="#1E1A1F" transform="translate(260.4399108886719,296.8610534667969)"/>
<path d="M0 0 C0.80182205 -0.00095673 1.6036441 -0.00191345 2.42976379 -0.00289917 C4.13034137 -0.00358051 5.83092154 -0.00172942 7.53149414 0.00244141 C10.11675995 0.00775542 12.70184924 0.00251308 15.28710938 -0.00390625 C16.94140663 -0.00324478 18.59570378 -0.00196218 20.25 0 C21.01692673 -0.00202423 21.78385345 -0.00404846 22.57402039 -0.00613403 C27.13515897 0.01345954 31.45631342 0.38411788 35.95703125 1.1328125 C35.95703125 3.7728125 35.95703125 6.4128125 35.95703125 9.1328125 C20.77703125 9.1328125 5.59703125 9.1328125 -10.04296875 9.1328125 C-10.04296875 6.4928125 -10.04296875 3.8528125 -10.04296875 1.1328125 C-6.87792789 -0.44970793 -3.47448368 -0.00905112 0 0 Z " fill="#1E1A1F" transform="translate(316.04296875,296.8671875)"/>
<path d="M0 0 C1.34644592 -0.00472824 1.34644592 -0.00472824 2.72009277 -0.009552 C4.18412537 -0.00651566 4.18412537 -0.00651566 5.67773438 -0.00341797 C6.67276978 -0.00437469 7.66780518 -0.00533142 8.69299316 -0.00631714 C10.80135155 -0.00699907 12.90971203 -0.0051439 15.01806641 -0.00097656 C18.25753465 0.0043715 21.49686423 -0.00092114 24.73632812 -0.00732422 C26.77929718 -0.00666344 28.82226615 -0.00538228 30.86523438 -0.00341797 C31.8412561 -0.0054422 32.81727783 -0.00746643 33.82287598 -0.009552 C34.72050659 -0.00639984 35.61813721 -0.00324768 36.54296875 0 C37.73424377 0.00119339 37.73424377 0.00119339 38.94958496 0.00241089 C40.77148438 0.12939453 40.77148438 0.12939453 41.77148438 1.12939453 C41.05148437 7.84939453 41.05148437 7.84939453 39.77148438 9.12939453 C38.31068698 9.22932001 36.8450691 9.2602044 35.38085938 9.26220703 C34.45281494 9.26414062 33.52477051 9.26607422 32.56860352 9.26806641 C31.5630542 9.26355469 30.55750488 9.25904297 29.52148438 9.25439453 C28.49982178 9.25246094 27.47815918 9.25052734 26.42553711 9.24853516 C16.19058668 9.19184492 5.98773905 8.7198076 -4.22851562 8.12939453 C-4.60914783 5.80330883 -4.94121507 3.46884189 -5.22851562 1.12939453 C-3.6694478 -0.42967329 -2.16697281 0.00217082 0 0 Z " fill="#1E1A1F" transform="translate(523.228515625,298.87060546875)"/>
<path d="M0 0 C3.65071496 2.53314916 4.75599629 4.00521566 5.8125 8.3125 C5.874375 9.199375 5.93625 10.08625 6 11 C4.35 11.33 2.7 11.66 1 12 C0.5875 10.865625 0.175 9.73125 -0.25 8.5625 C-1.58222125 4.97157229 -1.58222125 4.97157229 -4 3.9375 C-6.32314652 3.83377942 -6.32314652 3.83377942 -9 6 C-9.2502157 9.08365871 -9.2502157 9.08365871 -9 12 C-8.40832031 12.24234375 -7.81664062 12.4846875 -7.20703125 12.734375 C3.67494824 17.34989648 3.67494824 17.34989648 6 22 C6.3506291 27.34709374 6.44403637 30.62872307 3 35 C-0.94119444 36.97059722 -5.70276381 36.44498008 -10 36 C-12.625 34.4375 -12.625 34.4375 -14 32 C-14.75 28.25 -14.75 28.25 -15 25 C-13.68 25 -12.36 25 -11 25 C-10.4121875 26.4540625 -10.4121875 26.4540625 -9.8125 27.9375 C-8.3221241 31.16592007 -8.3221241 31.16592007 -5.5 32 C-2.74576241 32.23112508 -2.74576241 32.23112508 0 30 C0.2502157 26.91634129 0.2502157 26.91634129 0 24 C-0.60328125 23.73445313 -1.2065625 23.46890625 -1.828125 23.1953125 C-2.62734375 22.84210938 -3.4265625 22.48890625 -4.25 22.125 C-5.03890625 21.77695312 -5.8278125 21.42890625 -6.640625 21.0703125 C-12.78090767 18.28482003 -12.78090767 18.28482003 -14.25 16.375 C-15.75671928 11.60372228 -15.71375716 7.52484485 -13.625 3.0625 C-10.22012196 -1.25907597 -5.0948124 -0.7049426 0 0 Z " fill="#1E1A1F" transform="translate(447,317)"/>
<path d="M0 0 C0 3.3 0 6.6 0 10 C0.66 9.67 1.32 9.34 2 9 C4.05859375 8.796875 4.05859375 8.796875 6.4375 8.75 C7.21996094 8.72421875 8.00242187 8.6984375 8.80859375 8.671875 C11.60930389 9.09123267 12.30159252 9.75496826 14 12 C14.34057617 14.54370117 14.34057617 14.54370117 14.29296875 17.54296875 C14.28330078 18.61611328 14.27363281 19.68925781 14.26367188 20.79492188 C14.23853516 21.91447266 14.21339844 23.03402344 14.1875 24.1875 C14.16719727 25.88422852 14.16719727 25.88422852 14.14648438 27.61523438 C14.11109958 30.41063317 14.06172948 33.20507892 14 36 C12.35 36 10.7 36 9 36 C8.67 28.41 8.34 20.82 8 13 C5.36 13.33 2.72 13.66 0 14 C0 21.26 0 28.52 0 36 C-1.98 36 -3.96 36 -6 36 C-6 24.45 -6 12.9 -6 1 C-3 0 -3 0 0 0 Z " fill="#1E1A1F" transform="translate(552,316)"/>
<path d="M0 0 C8.25 0 16.5 0 25 0 C25 1.32 25 2.64 25 4 C22.03 4 19.06 4 16 4 C16 16.87 16 29.74 16 43 C13.69 43 11.38 43 9 43 C9 30.13 9 17.26 9 4 C6.03 4 3.06 4 0 4 C0 2.68 0 1.36 0 0 Z " fill="#1E1A1F" transform="translate(245,135)"/>
<path d="M0 0 C1.1539325 -0.00143509 1.1539325 -0.00143509 2.33117676 -0.00289917 C3.95857831 -0.00358004 5.58598257 -0.00173223 7.21337891 0.00244141 C9.70872073 0.007791 12.20388255 0.00249331 14.69921875 -0.00390625 C16.27864623 -0.00324545 17.8580736 -0.00196425 19.4375 0 C20.56097839 -0.00303635 20.56097839 -0.00303635 21.70715332 -0.00613403 C26.98882757 0.01785128 26.98882757 0.01785128 29.21875 1.1328125 C29.21875 3.7728125 29.21875 6.4128125 29.21875 9.1328125 C23.82528012 9.15746099 18.43184275 9.17564781 13.03833008 9.18774414 C11.20206125 9.19278481 9.36579646 9.19961727 7.52954102 9.20825195 C4.89598599 9.22032922 2.26248384 9.22604331 -0.37109375 9.23046875 C-1.61015724 9.23821068 -1.61015724 9.23821068 -2.87425232 9.24610901 C-4.84361368 9.24630455 -6.81286614 9.19485402 -8.78125 9.1328125 C-9.78125 8.1328125 -9.78125 8.1328125 -9.84375 4.5703125 C-9.823125 3.4359375 -9.8025 2.3015625 -9.78125 1.1328125 C-6.68038331 -0.41762084 -3.40224234 -0.009195 0 0 Z " fill="#1E1A1F" transform="translate(686.78125,298.8671875)"/>
<path d="M0 0 C3.62760012 2.6651756 5.19345847 4.64786993 6 9 C6.55788678 15.40496943 6.17272936 20.35959225 3 26 C-1.24248554 28.8283237 -5.01997795 28.64601271 -10 28 C-13.29553596 25.94029002 -13.87998416 24.31804197 -15.25 20.6875 C-16.62341584 13.9348721 -16.39810131 8.08302087 -13 2 C-8.7659782 -0.8226812 -4.97182497 -0.785025 0 0 Z M-9 5 C-10.06385483 8.19156448 -10.16677982 10.58497476 -10.1875 13.9375 C-10.20167969 14.97777344 -10.21585937 16.01804687 -10.23046875 17.08984375 C-10.00188218 19.97623346 -9.58615378 21.60401419 -8 24 C-6.10231241 24.99530794 -6.10231241 24.99530794 -4 25 C-0.75150023 23.27773504 -0.75150023 23.27773504 0 20 C0.17032265 17.8584021 0.26617837 15.71036073 0.3125 13.5625 C0.34988281 12.42941406 0.38726562 11.29632813 0.42578125 10.12890625 C0.25634897 6.9074894 0.25634897 6.9074894 -1.89453125 4.58984375 C-5.14309007 2.13685036 -5.56029328 2.70686219 -9 5 Z " fill="#1E1A1F" transform="translate(368,325)"/>
<path d="M0 0 C0.7734375 -0.02835937 1.546875 -0.05671875 2.34375 -0.0859375 C4.5 0.375 4.5 0.375 6.11645508 2.06494141 C7.80002199 4.87593666 7.84726177 6.53929392 7.79296875 9.796875 C7.78330078 10.82167969 7.77363281 11.84648437 7.76367188 12.90234375 C7.73853516 13.96582031 7.71339844 15.02929688 7.6875 16.125 C7.66719727 17.74341797 7.66719727 17.74341797 7.64648438 19.39453125 C7.61116584 22.0551942 7.56184199 24.71484296 7.5 27.375 C5.52 27.375 3.54 27.375 1.5 27.375 C1.17 20.115 0.84 12.855 0.5 5.375 C-2.64061025 4.02986576 -2.64061025 4.02986576 -6.5 5.375 C-6.5 12.635 -6.5 19.895 -6.5 27.375 C-8.48 27.375 -10.46 27.375 -12.5 27.375 C-12.5 18.795 -12.5 10.215 -12.5 1.375 C-10.025 1.87 -10.025 1.87 -7.5 2.375 C-4.42643725 0.32595817 -3.52401425 0.05873357 0 0 Z " fill="#1E1A1F" transform="translate(282.5,324.625)"/>
<path d="M0 0 C3.05310382 2.23397841 3.80089945 3.86599252 4.44921875 7.55859375 C4.71927032 10.03114386 4.86753472 12.51627601 5 15 C0.05 15 -4.9 15 -10 15 C-9.34 17.64 -8.68 20.28 -8 23 C-6.68 23.33 -5.36 23.66 -4 24 C-2.0418364 22.47698387 -1.10886989 21.21773977 0 19 C1.65 19 3.3 19 5 19 C3.375 25.75 3.375 25.75 0 28 C-5.06220572 28.81510092 -8.83444575 28.83253875 -13.0625 25.8125 C-16.40615437 20.95880818 -16.60639505 15.79798773 -16 10 C-13.64412297 0.75521357 -9.13148286 -1.39217689 0 0 Z M-6 3 C-6.99 3.66 -7.98 4.32 -9 5 C-9.73606499 8.56769552 -9.73606499 8.56769552 -10 12 C-7.03 12 -4.06 12 -1 12 C-1.18129815 8.56206661 -1.18129815 8.56206661 -2 5 C-3.93597032 3.48705712 -3.93597032 3.48705712 -6 3 Z " fill="#1E1A1F" transform="translate(472,325)"/>
<path d="M0 0 C3.31988129 2.12812903 3.92036499 3.77702198 5.25 7.5 C6 11 6 11 6 15 C1.05 15 -3.9 15 -9 15 C-8.34 17.64 -7.68 20.28 -7 23 C-3.25308553 24.39770584 -3.25308553 24.39770584 -1 23 C0.13350534 20.98330173 0.13350534 20.98330173 1 19 C2.32 19 3.64 19 5 19 C4.3920033 24.47197032 4.3920033 24.47197032 2.76171875 26.66796875 C-0.17357122 28.88733433 -2.98894344 28.52457675 -6.55078125 28.42578125 C-10.27503066 27.77834395 -11.84041369 25.9955552 -14 23 C-15.90024092 17.29927723 -15.9479241 10.55897356 -13.6875 4.9375 C-10.39720537 -0.79004991 -6.02615542 -0.86243891 0 0 Z M-5 3 C-8.28814599 5.72606304 -8.28814599 5.72606304 -9.25 9.75 C-9.1675 10.4925 -9.085 11.235 -9 12 C-6.03 12 -3.06 12 0 12 C-0.18129815 8.56206661 -0.18129815 8.56206661 -1 5 C-2.93597032 3.48705712 -2.93597032 3.48705712 -5 3 Z " fill="#1E1A1F" transform="translate(627,325)"/>
<path d="M0 0 C2.87411615 2.59371457 3.78516202 4.35548606 5 8 C5 10.31 5 12.62 5 15 C0.05 15 -4.9 15 -10 15 C-9.34 17.64 -8.68 20.28 -8 23 C-6.68 23.33 -5.36 23.66 -4 24 C-0.75150023 22.27773504 -0.75150023 22.27773504 0 19 C1.65 19 3.3 19 5 19 C4.5104007 24.50799212 4.5104007 24.50799212 2.265625 26.671875 C-1.62357464 28.95175065 -5.63073623 28.67610904 -10 28 C-12.57637471 26.11484777 -13.59667428 24.80665143 -15 22 C-15.1501182 19.58656122 -15.2215537 17.1679357 -15.25 14.75 C-15.27578125 13.44546875 -15.3015625 12.1409375 -15.328125 10.796875 C-14.98152326 6.78619774 -14.11928849 4.39497671 -12 1 C-8.29334017 -0.85332991 -4.03613229 -0.59335709 0 0 Z M-6 3 C-7.83115894 3.99515224 -7.83115894 3.99515224 -9 6 C-9.7269226 9.10839021 -9.7269226 9.10839021 -10 12 C-6.7 12 -3.4 12 0 12 C-0.66 9.36 -1.32 6.72 -2 4 C-3.32 3.67 -4.64 3.34 -6 3 Z " fill="#1E1A1F" transform="translate(668,325)"/>
<path d="M0 0 C2.60883687 2.07725193 3.86481754 3.23629179 4.45410156 6.56542969 C4.42268066 7.97937012 4.42268066 7.97937012 4.390625 9.421875 C4.37128906 10.95908203 4.37128906 10.95908203 4.3515625 12.52734375 C4.31804687 13.59082031 4.28453125 14.65429688 4.25 15.75 C4.23195313 16.82894531 4.21390625 17.90789062 4.1953125 19.01953125 C4.14821415 21.68058788 4.082456 24.33984254 4 27 C2.68 27 1.36 27 0 27 C0 26.34 0 25.68 0 25 C-0.495 25.495 -0.99 25.99 -1.5 26.5 C-5.22645843 28.73587506 -7.67911757 28.41151261 -12 28 C-14 27 -14 27 -15 25 C-15.39284279 21.90636305 -15.61393217 19.95641122 -15 17 C-12.16670924 13.43553743 -9.5376333 12.76460567 -5.1875 12.25 C-3.805625 12.1675 -2.42375 12.085 -1 12 C-1.99 9.36 -2.98 6.72 -4 4 C-5.32 4.33 -6.64 4.66 -8 5 C-9.29660434 7.49034386 -9.29660434 7.49034386 -10 10 C-11.32 10 -12.64 10 -14 10 C-14.30719041 6.62090549 -14.34529892 4.59642541 -12.625 1.625 C-8.67932995 -0.81755765 -4.5142718 -0.98387975 0 0 Z M-10 18 C-10 19.65 -10 21.3 -10 23 C-8.02 23.99 -8.02 23.99 -6 25 C-3.37842577 23.40406384 -3.37842577 23.40406384 -1 21 C-0.58190799 17.83151973 -0.58190799 17.83151973 -1 15 C-4.69418201 15 -6.77836178 16.28179295 -10 18 Z " fill="#1E1A1F" transform="translate(496,325)"/>
<path d="M0 0 C1.65 0 3.3 0 5 0 C5.01981934 0.59014893 5.03963867 1.18029785 5.06005859 1.78833008 C5.15534659 4.46350096 5.26500939 7.13789498 5.375 9.8125 C5.4059375 10.74126953 5.436875 11.67003906 5.46875 12.62695312 C5.50742187 13.51962891 5.54609375 14.41230469 5.5859375 15.33203125 C5.6173584 16.15421143 5.6487793 16.9763916 5.68115234 17.82348633 C5.88373622 20.28952937 5.88373622 20.28952937 8 23 C9.65 22.34 11.3 21.68 13 21 C13.33 14.07 13.66 7.14 14 0 C15.98 0 17.96 0 20 0 C20 8.58 20 17.16 20 26 C17.66666667 26 15.33333333 26 13 26 C12.34 26.33 11.68 26.66 11 27 C3.63890568 27.46737107 3.63890568 27.46737107 1.39501953 25.82592773 C-0.53418689 23.30080789 -0.3430109 21.60968672 -0.29296875 18.45703125 C-0.28330078 17.38388672 -0.27363281 16.31074219 -0.26367188 15.20507812 C-0.23853516 14.08552734 -0.21339844 12.96597656 -0.1875 11.8125 C-0.16719727 10.11577148 -0.16719727 10.11577148 -0.14648438 8.38476562 C-0.11109958 5.58936683 -0.06172948 2.79492108 0 0 Z " fill="#1E1A1F" transform="translate(379,326)"/>
<path d="M0 0 C0.86625 -0.01675781 1.7325 -0.03351563 2.625 -0.05078125 C5 0.3125 5 0.3125 6.76953125 1.6015625 C8.69399367 4.27748167 8.69661222 7.09658948 9 10.3125 C7.35 10.3125 5.7 10.3125 4 10.3125 C3.731875 9.508125 3.46375 8.70375 3.1875 7.875 C2.795625 7.029375 2.40375 6.18375 2 5.3125 C1.01 4.9825 0.02 4.6525 -1 4.3125 C-1.99 4.8075 -1.99 4.8075 -3 5.3125 C-4.07427471 8.53532413 -4.1332963 10.92761153 -4.125 14.3125 C-4.12757813 15.364375 -4.13015625 16.41625 -4.1328125 17.5 C-4.12353635 20.39376878 -4.12353635 20.39376878 -3 23.3125 C-1.09291157 24.22678339 -1.09291157 24.22678339 1 24.3125 C3.1385485 22.1739515 3.42655063 21.17974686 4 18.3125 C5.65 18.3125 7.3 18.3125 9 18.3125 C8.39057886 24.77236404 8.39057886 24.77236404 6.765625 27.01953125 C4.43246908 28.7281034 2.93323481 28.71340137 0.0625 28.6875 C-0.79214844 28.69523437 -1.64679687 28.70296875 -2.52734375 28.7109375 C-5.48940523 28.23363849 -6.83837779 27.36867722 -9 25.3125 C-11.57300358 18.75134086 -11.96265251 12.55939126 -9.6875 5.9375 C-7.34253952 0.90017749 -5.30194596 0.0236694 0 0 Z " fill="#1E1A1F" transform="translate(532,324.6875)"/>
<path d="M0 0 C5.61 0 11.22 0 17 0 C17 0.99 17 1.98 17 3 C13.04 3 9.08 3 5 3 C5 6.96 5 10.92 5 15 C8.63 15 12.26 15 16 15 C16 15.99 16 16.98 16 18 C12.37 18 8.74 18 5 18 C5 22.29 5 26.58 5 31 C8.96 31 12.92 31 17 31 C17 31.99 17 32.98 17 34 C11.39 34 5.78 34 0 34 C0 22.78 0 11.56 0 0 Z " fill="#1F1A1F" transform="translate(248,318)"/>
<path d="M0 0 C4 1 4 1 5.25 3.0625 C5.4975 3.701875 5.745 4.34125 6 5 C6.556875 4.360625 7.11375 3.72125 7.6875 3.0625 C10.22066561 0.80319013 11.68341424 0.36850953 15 0 C15 1.98 15 3.96 15 6 C14.030625 6.474375 13.06125 6.94875 12.0625 7.4375 C9.19522563 8.70193947 9.19522563 8.70193947 8 10 C7.84235595 11.77869726 7.74899323 13.56318476 7.68359375 15.34765625 C7.64169922 16.42724609 7.59980469 17.50683594 7.55664062 18.61914062 C7.51732422 19.75544922 7.47800781 20.89175781 7.4375 22.0625 C7.37272461 23.77276367 7.37272461 23.77276367 7.30664062 25.51757812 C7.20017161 28.34492195 7.09815793 31.17235738 7 34 C4.69 34 2.38 34 0 34 C0 22.78 0 11.56 0 0 Z " fill="#1E1A1F" transform="translate(376,144)"/>
<path d="M0 0 C1.98 0 3.96 0 6 0 C6.42152344 1.07121094 6.84304688 2.14242188 7.27734375 3.24609375 C7.83059319 4.64328302 8.38398602 6.04041551 8.9375 7.4375 C9.21529297 8.14455078 9.49308594 8.85160156 9.77929688 9.58007812 C10.96222034 13.04673881 10.96222034 13.04673881 13 16 C13.56267578 14.39318359 13.56267578 14.39318359 14.13671875 12.75390625 C14.65258464 11.35637866 15.16957027 9.95926404 15.6875 8.5625 C15.93177734 7.85544922 16.17605469 7.14839844 16.42773438 6.41992188 C17.19921875 4.37890625 17.19921875 4.37890625 19 1 C21.61254883 0.28881836 21.61254883 0.28881836 24 0 C23.7326001 0.6391333 23.4652002 1.2782666 23.18969727 1.93676758 C21.96494511 4.88910971 20.76370373 7.85050293 19.5625 10.8125 C19.14162109 11.81732422 18.72074219 12.82214844 18.28710938 13.85742188 C15.56747941 20.62386123 14.21519343 26.70593306 14 34 C12.35 34 10.7 34 9 34 C9.020625 33.36578125 9.04125 32.7315625 9.0625 32.078125 C8.83523943 21.79458431 4.79088489 13.17486619 0.71850586 3.87255859 C0 2 0 2 0 0 Z " fill="#1E1A1F" transform="translate(330,318)"/>
<path d="M0 0 C4 1 4 1 6 4 C6.556875 3.525625 7.11375 3.05125 7.6875 2.5625 C10.18346074 0.87604004 12.0446237 0.41046893 15 0 C15 1.98 15 3.96 15 6 C14.05125 6.2475 13.1025 6.495 12.125 6.75 C8.98522894 7.66379059 8.98522894 7.66379059 7.83056641 9.75292969 C6.87596233 12.33557986 6.681877 14.45285928 6.5859375 17.203125 C6.52792969 18.67265625 6.52792969 18.67265625 6.46875 20.171875 C6.42234375 21.69554687 6.42234375 21.69554687 6.375 23.25 C6.33632813 24.28125 6.29765625 25.3125 6.2578125 26.375 C6.16368326 28.9164894 6.07805021 31.45797433 6 34 C4.02 34 2.04 34 0 34 C0 22.78 0 11.56 0 0 Z " fill="#1E1A1F" transform="translate(485,144)"/>
<path d="M0 0 C0.99 0 1.98 0 3 0 C3.66 0.99 4.32 1.98 5 3 C5.391875 2.505 5.78375 2.01 6.1875 1.5 C8.55091715 -0.45593143 10.01435003 -0.24207973 13 0 C13 1.32 13 2.64 13 4 C12.030625 4.433125 11.06125 4.86625 10.0625 5.3125 C6.72268235 6.7014861 6.72268235 6.7014861 6 10 C5.77202438 12.73289293 5.58331813 15.45042204 5.4375 18.1875 C5.39431641 18.93708984 5.35113281 19.68667969 5.30664062 20.45898438 C5.20077315 22.30578375 5.0999024 24.15286834 5 26 C3.35 26 1.7 26 0 26 C0 17.42 0 8.84 0 0 Z " fill="#1E1A1F" transform="translate(638,326)"/>
<path d="M0 0 C0.99 0 1.98 0 3 0 C3.66 0.99 4.32 1.98 5 3 C5.391875 2.505 5.78375 2.01 6.1875 1.5 C8.55091715 -0.45593143 10.01435003 -0.24207973 13 0 C13 1.32 13 2.64 13 4 C12.030625 4.433125 11.06125 4.86625 10.0625 5.3125 C6.72268235 6.7014861 6.72268235 6.7014861 6 10 C5.77202438 12.73289293 5.58331813 15.45042204 5.4375 18.1875 C5.39431641 18.93708984 5.35113281 19.68667969 5.30664062 20.45898438 C5.20077315 22.30578375 5.0999024 24.15286834 5 26 C3.35 26 1.7 26 0 26 C0 17.42 0 8.84 0 0 Z " fill="#1E1A1F" transform="translate(507,326)"/>
<path d="M0 0 C0.99 0 1.98 0 3 0 C3.66 0.99 4.32 1.98 5 3 C5.391875 2.505 5.78375 2.01 6.1875 1.5 C8.55091715 -0.45593143 10.01435003 -0.24207973 13 0 C13 1.32 13 2.64 13 4 C12.030625 4.433125 11.06125 4.86625 10.0625 5.3125 C6.72268235 6.7014861 6.72268235 6.7014861 6 10 C5.77202438 12.73289293 5.58331813 15.45042204 5.4375 18.1875 C5.39431641 18.93708984 5.35113281 19.68667969 5.30664062 20.45898438 C5.20077315 22.30578375 5.0999024 24.15286834 5 26 C3.35 26 1.7 26 0 26 C0 17.42 0 8.84 0 0 Z " fill="#1E1A1F" transform="translate(406,326)"/>
</svg>
