<?xml version="1.0" encoding="UTF-8"?>
<svg version="1.1" xmlns="http://www.w3.org/2000/svg" width="1877" height="763">
<path d="M0 0 C33.33 0 66.66 0 101 0 C112.1468503 27.28044941 123.26240466 54.56779553 134.1875 81.9375 C136.1845565 86.94023974 138.18177161 91.94291592 140.1796875 96.9453125 C140.44019457 97.59758631 140.70070164 98.24986012 140.96910286 98.9218998 C153.60630101 130.55787576 166.3533159 162.15003958 179.08051205 193.74988461 C181.45143906 199.63691058 183.82057675 205.5246544 186.18887615 211.41273785 C188.26243844 216.56765434 190.3385282 221.72154858 192.41610718 226.87484741 C193.21418985 228.85547775 194.01142798 230.83644862 194.80776978 232.81777954 C195.86165785 235.43938132 196.9186202 238.05971977 197.9765625 240.6796875 C198.27577103 241.42610001 198.57497955 242.17251251 198.883255 242.94154358 C200.04243601 246.2136413 200.04243601 246.2136413 202 249 C202.20614929 248.42056137 202.41229858 247.84112274 202.62469482 247.24412537 C212.33180665 219.9649538 222.07828365 192.70199796 232 165.5 C238.73831544 147.02515177 245.40293006 128.52575293 252 110 C259.61958439 88.60333917 267.33350827 67.24251706 275.11523438 45.90429688 C275.50381622 44.83867523 275.89239807 43.77305359 276.29275513 42.67514038 C277.05547716 40.58361749 277.81839196 38.49216489 278.58151245 36.40078735 C281.81407244 27.53275898 285.0092921 18.65143334 288.186203 9.76332092 C288.71822075 8.27934059 288.71822075 8.27934059 289.26098633 6.76538086 C289.72979973 5.45409462 289.72979973 5.45409462 290.20808411 4.11631775 C291 2 291 2 292 0 C323.35 0 354.7 0 387 0 C386.19592702 4.82443786 385.10130155 8.72729272 383.2890625 13.17578125 C383.00962296 13.87640182 382.73018341 14.5770224 382.442276 15.2988739 C381.83141729 16.8290822 381.21793197 18.35824396 380.60214233 19.88647461 C378.88715633 24.14440046 377.19308668 28.41065994 375.49609375 32.67578125 C375.13322769 33.58635284 374.77036163 34.49692444 374.39649963 35.43508911 C370.08781236 46.26197461 365.88951731 57.13138462 361.6875 68 C355.4915803 84.01313815 349.26605216 100.01417563 343 116 C336.75860409 131.92476707 330.5527823 147.86294697 324.375 163.8125 C318.53799427 178.88173245 312.69057929 193.94673651 306.8125 209 C306.4866391 209.83455719 306.1607782 210.66911438 305.82504272 211.52896118 C303.22804755 218.17951973 300.62963158 224.82952292 298.03112793 231.47949219 C295.74923392 237.31939416 293.46796411 243.1595395 291.1875 249 C290.6983461 250.25268173 290.6983461 250.25268173 290.1993103 251.53067017 C284.24624535 266.77896465 278.32962662 282.04128181 272.41732788 297.30541992 C266.27468362 313.16176455 260.094493 329.00303344 253.88882446 344.83480835 C248.40201129 358.83434931 242.95184392 372.84768416 237.52444458 386.87036133 C235.14721531 393.00914752 232.76444263 399.14578419 230.38148499 405.28234863 C228.54945465 410.00142328 226.72046504 414.72161241 224.90039062 419.4453125 C201.36587117 480.50396575 201.36587117 480.50396575 181 504 C180.50242187 504.63035156 180.00484375 505.26070312 179.4921875 505.91015625 C161.54409161 528.42219653 131.63232475 538.80028222 104 542 C95.58314481 542.80468872 87.23612275 543.14254096 78.78393555 543.11352539 C77.0693364 543.11374443 77.0693364 543.11374443 75.32009888 543.1139679 C71.59228528 543.11327869 67.86452347 543.10553341 64.13671875 543.09765625 C61.5321302 543.09578854 58.9275413 543.0943663 56.32295227 543.09336853 C50.19995575 543.09027975 44.07697742 543.08209995 37.95398885 543.07201904 C30.28768879 543.0596754 22.62138567 543.05425582 14.95507812 543.04882812 C1.30337131 543.03913269 -12.34829592 543.01909329 -26 543 C-26 515.61 -26 488.22 -26 460 C-18.32878906 459.97421875 -10.65757813 459.9484375 -2.75390625 459.921875 C2.13610007 459.89667783 7.0260463 459.87032267 11.91601562 459.83984375 C19.65991359 459.79168524 27.40367225 459.74757443 35.14770508 459.72900391 C41.39839656 459.7137444 47.64872104 459.67913539 53.89924812 459.63169098 C56.27154392 459.6169725 58.64389214 459.60896453 61.01623344 459.60811615 C80.92910342 459.59384692 101.95368465 459.04631535 117 444 C121.99752858 437.53029006 125.94594375 430.74925165 129.4375 423.375 C129.92903564 422.34463623 130.42057129 421.31427246 130.92700195 420.25268555 C135.89704007 409.59998512 140.30937454 398.71909903 144.6875 387.8125 C145.22417801 386.48094879 145.22417801 386.48094879 145.771698 385.12249756 C146.79703864 382.57037726 147.81259321 380.01461503 148.82421875 377.45703125 C149.1309552 376.69233017 149.43769165 375.92762909 149.75372314 375.13975525 C152.50509558 368.1087595 153.66022312 363.61076241 150.65042114 356.4803772 C150.28367279 355.65411835 149.91692444 354.8278595 149.5390625 353.9765625 C149.16240448 353.09559906 148.78574646 352.21463562 148.39767456 351.30697632 C147.15394987 348.40680701 145.88947477 345.51617503 144.625 342.625 C143.74785026 340.58918674 142.87221876 338.55271872 141.99804688 336.515625 C140.20670092 332.34615104 138.40782399 328.18005874 136.60253906 324.01660156 C133.20171887 316.16670542 129.8615391 308.29138527 126.52386475 300.41448975 C125.49048508 297.97756181 124.45486316 295.54159926 123.41845703 293.10595703 C117.68309369 279.62722823 111.98518121 266.13281641 106.29199219 252.63623047 C100.71470678 239.41558025 95.11830092 226.20327043 89.5 213 C83.07037028 197.89006886 76.67420226 182.76624748 70.29199219 167.63623047 C64.71470678 154.41558025 59.11830092 141.20327043 53.5 128 C47.47603415 113.84339798 41.47968233 99.6753628 35.5 85.5 C29.30940779 70.82577001 23.10441457 56.15779454 16.875 41.5 C16.52067902 40.66587585 16.16635803 39.83175171 15.80130005 38.97235107 C12.53273091 31.27840171 9.26031258 23.5864553 5.94140625 15.9140625 C5.50779785 14.91052734 5.07418945 13.90699219 4.62744141 12.87304688 C3.86620686 11.11505426 3.10185533 9.35840598 2.33349609 7.60351562 C0 2.21907106 0 2.21907106 0 0 Z " fill="#F89A2F" transform="translate(1490,219)"/>
<path d="M0 0 C33.99 0 67.98 0 103 0 C102.2798993 3.60050351 101.60410059 6.29874983 100.27050781 9.61547852 C99.90794388 10.52329071 99.54537994 11.43110291 99.17182922 12.36642456 C98.76965683 13.36054352 98.36748444 14.35466248 97.953125 15.37890625 C97.52368088 16.45036896 97.09423676 17.52183167 96.65177917 18.62576294 C95.44614317 21.63119367 94.23657671 24.6350084 93.02540207 27.6382103 C91.69745668 30.9337285 90.37457837 34.23128032 89.05102539 37.52856445 C86.67709103 43.44047429 84.29977397 49.35101558 81.92041016 55.26074219 C78.15647425 64.60941344 74.39761163 73.9601197 70.63939285 83.31109047 C64.04307697 99.72313868 57.44254031 116.13348663 50.83984375 132.54296875 C41.87025287 154.83489171 32.90580472 177.12887981 23.94290161 199.42349243 C19.85795957 209.58448875 15.7727542 219.74537919 11.6875 229.90625 C11.28403917 230.90974298 10.88057835 231.91323597 10.46489143 232.94713783 C1.09638212 256.24848073 -8.2746583 279.54880551 -17.64587402 302.84906006 C-28.70555247 330.34747987 -39.76361991 357.84654675 -50.81979942 385.34637356 C-53.66836459 392.43154844 -56.5170167 399.51668836 -59.36572266 406.60180664 C-60.17589323 408.61681617 -60.98606372 410.63182573 -61.79623413 412.64683533 C-63.01109267 415.66836173 -64.22595198 418.68988782 -65.44081497 421.71141243 C-70.39619774 434.03613512 -75.35119155 446.36101406 -80.30567551 458.6860981 C-83.63335914 466.96418542 -86.96140614 475.24212661 -90.28969193 483.51997185 C-92.23920209 488.36868002 -94.18855639 493.21745069 -96.13745117 498.06640625 C-100.72073355 509.46960856 -105.30831063 520.87107077 -109.90074158 532.27059174 C-111.05975524 535.14836951 -112.21797026 538.0264679 -113.37609863 540.90460205 C-115.36798785 545.8540461 -117.36268469 550.80235063 -119.35928726 555.7498951 C-120.12057826 557.63751137 -120.88099268 559.52548143 -121.64049911 561.41381645 C-122.68648848 564.0139109 -123.7356515 566.61270192 -124.78564453 569.21118164 C-125.09791111 569.9894462 -125.41017769 570.76771076 -125.73190689 571.5695591 C-127.88587051 576.88587051 -127.88587051 576.88587051 -129 578 C-131.58639038 578.09507821 -134.1459856 578.12556376 -136.73266602 578.11352539 C-137.94720459 578.11374443 -137.94720459 578.11374443 -139.1862793 578.1139679 C-141.87551508 578.11326854 -144.56468249 578.1054751 -147.25390625 578.09765625 C-149.11335716 578.09579215 -150.97280856 578.09436821 -152.83226013 578.09336853 C-157.73629096 578.08954271 -162.64029236 578.07971188 -167.54431152 578.06866455 C-172.54451092 578.05845181 -177.54471506 578.05387121 -182.54492188 578.04882812 C-192.36329421 578.03808967 -202.18164466 578.02101248 -212 578 C-215.02289812 570.79082074 -217.99985038 563.56777183 -220.87109375 556.296875 C-221.22554565 555.40169662 -221.57999756 554.50651825 -221.94519043 553.58421326 C-223.11049782 550.63995023 -224.27408514 547.69501132 -225.4375 544.75 C-226.27350764 542.63581912 -227.1095268 540.5216428 -227.94555664 538.4074707 C-242.18986483 502.37047239 -256.3211485 466.28887569 -270.46508789 430.21240234 C-276.5954758 414.5766449 -282.73338241 398.9438497 -288.875 383.3125 C-289.33163025 382.15029938 -289.7882605 380.98809875 -290.25872803 379.79067993 C-293.50559312 371.52703132 -296.75276204 363.2635021 -300 355 C-303.24835102 346.73366543 -306.49660102 338.46729119 -309.74456787 330.20080566 C-310.66204838 327.86574738 -311.57956929 325.53070496 -312.49713135 323.19567871 C-317.49614008 310.47389247 -322.49119013 297.75057435 -327.4765625 285.0234375 C-327.92287018 283.88431412 -328.36917786 282.74519073 -328.82901001 281.57154846 C-330.93022631 276.20852431 -333.03068538 270.84520694 -335.12939453 265.48120117 C-335.89339638 263.53037419 -336.65755391 261.57960818 -337.421875 259.62890625 C-337.78912689 258.69094711 -338.15637878 257.75298798 -338.53475952 256.78660583 C-340.59796099 251.52967423 -342.68641967 246.28375334 -344.79882812 241.04638672 C-345.2623468 239.89573227 -345.72586548 238.74507782 -346.20343018 237.55955505 C-347.10423279 235.32689599 -348.00805465 233.09545218 -348.91522217 230.8653717 C-349.52034637 229.36568092 -349.52034637 229.36568092 -350.13769531 227.83569336 C-350.49776672 226.94877304 -350.85783813 226.06185272 -351.2288208 225.14805603 C-352 223 -352 223 -352 221 C-317.35 221 -282.7 221 -247 221 C-236.68255503 248.51318658 -236.68255503 248.51318658 -232.79296875 259.41015625 C-232.11310671 261.30692206 -231.43324224 263.20368701 -230.75328064 265.10041714 C-230.04695974 267.07152948 -229.3414307 269.04292351 -228.63613892 271.0144043 C-226.11368468 278.06467184 -223.58439326 285.11248801 -221.0546875 292.16015625 C-220.79873873 292.87334644 -220.54278996 293.58653664 -220.27908516 294.32133865 C-215.16694266 308.56342076 -209.99703006 322.78410644 -204.8125 337 C-197.05074719 358.28675818 -189.39413286 379.60943041 -181.79614258 400.95507812 C-178.04371656 411.4960916 -174.28418815 422.03455499 -170.484375 432.55859375 C-170.14674133 433.49985611 -169.80910767 434.44111847 -169.46124268 435.41090393 C-169.1514447 436.2658696 -168.84164673 437.12083527 -168.52246094 438.00170898 C-168.25141541 438.75306625 -167.98036987 439.50442352 -167.70111084 440.27854919 C-167.13015002 441.99923614 -167.13015002 441.99923614 -166 443 C-152.61222197 407.35359888 -139.29288477 371.68187343 -126 336 C-125.17562305 333.78727044 -124.35124168 331.57454252 -123.52685547 329.36181641 C-120.41230107 321.00195191 -117.2978714 312.64204097 -114.18383789 304.28198242 C-107.89210301 287.39144936 -101.59500783 270.50291708 -95.29693604 253.61474609 C-88.69474266 235.91102736 -82.09531217 218.20628342 -75.5 200.5 C-68.4364682 181.53669807 -61.36785539 162.5752945 -54.29693604 143.61474609 C-48.46632018 127.98000514 -42.63696228 112.34479823 -36.8125 96.70776367 C-35.28180997 92.59834251 -33.75053657 88.4891395 -32.21875 84.38012695 C-28.58285255 74.62566931 -24.95028755 64.87000269 -21.32910919 55.11007118 C-19.29988413 49.64094594 -17.26847349 44.17263555 -15.23571014 38.70482445 C-13.76257104 34.74177359 -12.29232945 30.77766401 -10.82424164 26.81273937 C-9.69803864 23.77389135 -8.56741496 20.73668813 -7.4375 17.69921875 C-7.03213013 16.6016777 -6.62676025 15.50413666 -6.20910645 14.37333679 C-5.63960266 12.84601677 -5.63960266 12.84601677 -5.05859375 11.2878418 C-4.56830688 9.96637398 -4.56830688 9.96637398 -4.06811523 8.61820984 C-2.86816969 5.6768519 -1.42066575 2.84133149 0 0 Z " fill="#F89A2F" transform="translate(352,0)"/>
<path d="M0 0 C1.21526367 0.26538574 1.21526367 0.26538574 2.45507812 0.53613281 C41.10780665 9.28512805 76.27891246 31.55855509 97.88232422 65.20947266 C127.99250608 113.44627339 131 162.80090557 131 219 C40.25 219 -50.5 219 -144 219 C-139.10249655 242.26314138 -133.8442346 260.1557654 -117 277 C-116.37609375 277.62390625 -115.7521875 278.2478125 -115.109375 278.890625 C-94.69346148 297.93404014 -67.41567223 303.72984754 -40.41601562 303.09326172 C-4.6798711 301.71379454 22.35438606 283.18383088 46 258 C46.66 257.01 47.32 256.02 48 255 C51.65862057 256.31231816 54.45359409 257.89389437 57.51953125 260.2734375 C58.36837891 260.92699219 59.21722656 261.58054687 60.09179688 262.25390625 C61.43854492 263.30384766 61.43854492 263.30384766 62.8125 264.375 C64.71444915 265.84165769 66.6167961 267.30779965 68.51953125 268.7734375 C69.45490723 269.4962793 70.3902832 270.21912109 71.35400391 270.96386719 C74.87819847 273.67578661 78.43458633 276.34265262 82 279 C89.40221183 284.52847867 96.74725036 290.13108801 104.08398438 295.74609375 C104.93927734 296.39964844 105.79457031 297.05320312 106.67578125 297.7265625 C107.43802002 298.31002441 108.20025879 298.89348633 108.9855957 299.49462891 C110.61921704 300.71543961 112.30312783 301.86875189 114 303 C113.40670323 306.36695916 112.30023359 308.12243105 110 310.625 C109.04673828 311.67107422 109.04673828 311.67107422 108.07421875 312.73828125 C107.38972656 313.48464844 106.70523437 314.23101563 106 315 C105.32582031 315.77730469 104.65164063 316.55460937 103.95703125 317.35546875 C72.74845044 353.11174804 27.7371818 372.52043891 -19.09936523 376.8190918 C-73.88242774 380.23582855 -130.85786482 367.93330277 -172.92431641 330.87207031 C-185.64233157 319.40162333 -196.67106041 307.38478856 -206 293 C-206.6796582 291.95875977 -206.6796582 291.95875977 -207.37304688 290.89648438 C-235.58499158 247.02504614 -242.0243327 192.41925955 -231.81640625 141.875 C-224.87930853 110.42614408 -209.80848662 81.5718566 -187.8828125 58.03515625 C-186.31538562 56.34090437 -184.86510793 54.62300939 -183.4375 52.8125 C-180.24948182 49.13401748 -176.75251153 46.09169189 -173 43 C-172.49791016 42.58556641 -171.99582031 42.17113281 -171.47851562 41.74414062 C-163.38658312 35.10779835 -155.12416656 29.16608422 -146 24 C-145.33468262 23.61489258 -144.66936523 23.22978516 -143.98388672 22.83300781 C-124.43797174 11.60668179 -103.12888583 4.17581355 -81 0 C-80.15985352 -0.16226074 -79.31970703 -0.32452148 -78.45410156 -0.49169922 C-53.46241575 -5.09043518 -24.87615378 -5.46345434 0 0 Z M-117.625 90.3125 C-128.54021964 101.56822909 -135.91323482 115.39871727 -140.4375 130.3125 C-140.68443604 131.12380371 -140.93137207 131.93510742 -141.18579102 132.77099609 C-142.86618021 138.66762366 -143.37287541 143.7287541 -144 150 C-83.28 150 -22.56 150 40 150 C38.38237123 127.35319722 33.55812901 109.6543364 19 92 C18.48308594 91.36964844 17.96617187 90.73929688 17.43359375 90.08984375 C0.31598796 71.25618726 -25.86626184 66.36606065 -50 65 C-76.02662762 65 -98.5917929 72.0803538 -117.625 90.3125 Z " fill="#F89A2F" transform="translate(591,213)"/>
<path d="M0 0 C0.84404388 0.00027191 1.68808777 0.00054382 2.55770874 0.00082397 C21.34213406 0.02866397 39.16311179 1.84660039 57.625 5.1875 C56.99142306 13.73331711 56.35685326 22.27905969 55.72105503 30.8247118 C55.42578223 34.79383182 55.13083706 38.7629756 54.83666992 42.73217773 C54.55217295 46.57073001 54.26677712 50.40921454 53.98078728 54.24765587 C53.8724433 55.70386113 53.76441004 57.16008954 53.65670967 58.61634254 C53.05023665 66.81364064 52.40593596 75.00468441 51.625 83.1875 C46.93936945 82.64886167 42.36955344 81.95807764 37.74169922 81.03149414 C18.79077989 77.39213074 -3.19789522 76.2983901 -20.375 86.375 C-33.38709011 95.6024642 -39.00018697 107.95745809 -41.83203125 123.38671875 C-43.36904075 134.14578526 -43.58551609 144.8137591 -43.69140625 155.6640625 C-43.70984686 157.24243635 -43.7286854 158.8208056 -43.7479248 160.39916992 C-43.81592189 166.20355898 -43.87626181 172.0080357 -43.9375 177.8125 C-44.081875 190.80625 -44.22625 203.8 -44.375 217.1875 C-16.655 217.1875 11.065 217.1875 39.625 217.1875 C39.625 242.9275 39.625 268.6675 39.625 295.1875 C11.905 295.1875 -15.815 295.1875 -44.375 295.1875 C-44.375 388.9075 -44.375 482.6275 -44.375 579.1875 C-74.405 579.1875 -104.435 579.1875 -135.375 579.1875 C-135.375 485.4675 -135.375 391.7475 -135.375 295.1875 C-160.125 295.1875 -184.875 295.1875 -210.375 295.1875 C-210.375 269.4475 -210.375 243.7075 -210.375 217.1875 C-185.625 217.1875 -160.875 217.1875 -135.375 217.1875 C-135.40980469 211.76054687 -135.44460938 206.33359375 -135.48046875 200.7421875 C-135.49585898 197.23306167 -135.51030477 193.72397946 -135.52148438 190.21484375 C-135.53918229 184.68659458 -135.55973565 179.158499 -135.60131836 173.63037109 C-135.95397379 125.44076351 -135.24104306 72.75253706 -102.375 34.1875 C-101.81554688 33.52621094 -101.25609375 32.86492188 -100.6796875 32.18359375 C-75.41807466 4.82742507 -35.0525502 -0.04229736 0 0 Z " fill="#F89A2F" transform="translate(1422.375,1.8125)"/>
<path d="M0 0 C0 29.04 0 58.08 0 88 C-5.55156868 87.38315904 -10.35093416 86.73760333 -15.68286133 85.48852539 C-41.60867281 79.63882465 -71.70239525 80.41915803 -95.18359375 93.81640625 C-98.21953558 95.77062108 -101.11548459 97.82885937 -104 100 C-105.0209375 100.763125 -106.041875 101.52625 -107.09375 102.3125 C-126.6088835 117.68805973 -136.99207574 140.70042937 -140 165 C-140.51255879 171.7432659 -140.43867637 178.50923439 -140.43237305 185.26757812 C-140.44141113 187.25021466 -140.45174329 189.23284565 -140.46325684 191.21546936 C-140.49061278 196.54701164 -140.50008198 201.87844728 -140.50611091 207.21005058 C-140.51555082 212.80076114 -140.54175837 218.39139378 -140.56611633 223.98205566 C-140.60963143 234.54609025 -140.63827019 245.11010958 -140.66143972 255.67420626 C-140.69365492 269.96549185 -140.74910315 284.25668662 -140.80318546 298.54790306 C-140.88766473 321.03190821 -140.94132114 343.51587842 -141 366 C-171.03 366 -201.06 366 -232 366 C-232 246.54 -232 127.08 -232 4 C-201.97 4 -171.94 4 -141 4 C-140.67 22.15 -140.34 40.3 -140 59 C-138.02 55.37 -136.04 51.74 -134 48 C-123.53485086 31.78610356 -109.85152431 18.3889961 -93 9 C-91.53240234 8.18208984 -91.53240234 8.18208984 -90.03515625 7.34765625 C-65.43047469 -5.6317261 -25.97720862 -12.98860431 0 0 Z " fill="#F89A2F" transform="translate(1008,215)"/>
<path d="M0 0 C30.03 0 60.06 0 91 0 C91 119.46 91 238.92 91 362 C60.97 362 30.94 362 0 362 C0 242.54 0 123.08 0 0 Z " fill="#F89A2F" transform="translate(1070,219)"/>
<path d="M0 0 C0.87398437 0.00563965 1.74796875 0.0112793 2.6484375 0.01708984 C19.77775611 0.33605393 33.21526472 6.11061562 45.25 18.3125 C46.24 19.28703125 46.24 19.28703125 47.25 20.28125 C57.6877132 31.25884491 59.86902197 45.00457793 59.5625 59.5390625 C59.0663117 69.97969137 55.19591663 78.83768718 49.25 87.3125 C48.62544922 88.23095703 48.62544922 88.23095703 47.98828125 89.16796875 C39.37434391 100.47214478 24.95784684 107.06161984 11.25 109.3125 C7.64082752 109.60097556 4.05704797 109.64703012 0.4375 109.625 C-0.53227783 109.61936035 -1.50205566 109.6137207 -2.5012207 109.60791016 C-19.38793848 109.32200646 -31.95999436 103.42496733 -43.75 91.3125 C-54.1360716 79.95463223 -58.30028558 66.90326655 -57.99609375 51.67578125 C-56.79060943 35.20082885 -49.50375844 23.37713421 -37.59375 12.30859375 C-26.90522331 3.34339836 -13.71015939 -0.09342982 0 0 Z " fill="#F89A2F" transform="translate(1114.75,41.6875)"/>
<path d="M0 0 C20 0 20 0 24.70703125 4.22265625 C26.33056641 7.01147461 26.33056641 7.01147461 27.8125 10.0625 C29.00171714 12.1705073 30.19319336 14.27724147 31.38671875 16.3828125 C31.97243652 17.47368164 32.5581543 18.56455078 33.16162109 19.68847656 C36.18427276 25.13326371 39.66825749 30.26191185 43.125 35.4375 C44.33889339 37.2884294 45.54998611 39.14119963 46.7578125 40.99609375 C47.2645752 41.77138428 47.77133789 42.5466748 48.29345703 43.34545898 C50.56280589 46.87544899 52.77584926 50.44135881 55 54 C55.33 36.18 55.66 18.36 56 0 C60.95 0 65.9 0 71 0 C71 25.74 71 51.48 71 78 C52 78 52 78 47.25 73.56640625 C46.09612226 71.60493046 45.01447537 69.59957164 44 67.5625 C42.78803011 65.43734617 41.57578854 63.31234726 40.36328125 61.1875 C39.79561035 60.13304687 39.22793945 59.07859375 38.64306641 57.9921875 C36.37568749 53.86306477 33.80669579 49.97381348 31.1875 46.0625 C25.9956185 38.12306609 21.02807616 30.04492186 16 22 C15.67 40.48 15.34 58.96 15 78 C10.05 78 5.1 78 0 78 C0 52.26 0 26.52 0 0 Z " fill="#818285" transform="translate(613,683)"/>
<path d="M0 0 C9.82791379 6.67743336 15.04866063 15.21979789 17.8125 26.75 C18.88630421 39.47333131 18.00826963 51.73448766 9.4921875 61.9453125 C1.05812974 71.00702107 -8.46857493 76.04217913 -20.9765625 76.953125 C-33.13860673 77.15415052 -43.72450295 74.74710334 -53.1875 66.75 C-62.26640407 56.66399896 -65.56471464 46.40394274 -65.3984375 32.96875 C-64.66206624 21.73227008 -60.73086635 11.76356964 -52.5 3.9375 C-38.18088782 -7.73299027 -15.91160257 -9.13109011 0 0 Z M-42.390625 15.69140625 C-48.67298693 22.88880785 -49.95245332 29.73378632 -49.609375 39.1875 C-48.72569034 46.64972599 -45.63286609 52.54138896 -40.1875 57.75 C-32.93869005 62.88118008 -25.91375876 63.89963258 -17.1875 62.75 C-9.93558941 60.98364962 -5.36490595 56.81177929 -1.1875 50.75 C3.06898122 43.14466959 3.87675243 35.20892696 1.6875 26.8125 C-1.01188627 18.58936962 -5.31380293 13.6711063 -12.94140625 9.66015625 C-23.52471889 5.37161391 -34.31536548 7.92300659 -42.390625 15.69140625 Z " fill="#818285" transform="translate(813.1875,686.25)"/>
<path d="M0 0 C2.16198574 1.41566558 4.23683081 2.87567338 6.2734375 4.46484375 C4.79622328 7.91686014 2.83549749 10.11446311 0.1484375 12.71484375 C-0.57601562 13.42125 -1.30046875 14.12765625 -2.046875 14.85546875 C-2.60117187 15.3865625 -3.15546875 15.91765625 -3.7265625 16.46484375 C-4.53480469 16.04332031 -5.34304688 15.62179687 -6.17578125 15.1875 C-7.24441406 14.63964844 -8.31304688 14.09179688 -9.4140625 13.52734375 C-10.46980469 12.98207031 -11.52554688 12.43679688 -12.61328125 11.875 C-20.16242351 8.45562691 -27.86489145 8.57915965 -35.5546875 11.4296875 C-42.32363811 14.65589597 -46.09503499 19.55346929 -48.7265625 26.46484375 C-51.13202494 34.28259668 -50.17243609 43.12513301 -46.7265625 50.46484375 C-42.60963479 56.46406047 -38.70122584 60.09126722 -31.7265625 62.46484375 C-28.97748944 62.74552989 -26.52220409 62.89487345 -23.7890625 62.83984375 C-23.08974609 62.83404297 -22.39042969 62.82824219 -21.66992188 62.82226562 C-16.39304888 62.68948317 -12.41716629 61.81014565 -7.7265625 59.46484375 C-7.3965625 53.85484375 -7.0665625 48.24484375 -6.7265625 42.46484375 C-12.0065625 42.46484375 -17.2865625 42.46484375 -22.7265625 42.46484375 C-22.7265625 38.17484375 -22.7265625 33.88484375 -22.7265625 29.46484375 C-12.8265625 29.46484375 -2.9265625 29.46484375 7.2734375 29.46484375 C7.2734375 42.99484375 7.2734375 56.52484375 7.2734375 70.46484375 C-10.29690417 77.22266747 -26.78188924 81.14860012 -44.7265625 73.46484375 C-54.41857449 68.47109367 -61.26561055 60.82909233 -64.7265625 50.46484375 C-67.67834967 39.24805249 -66.89368423 25.38504628 -61.5078125 15.1484375 C-55.350609 5.04036176 -47.13463828 -0.88528604 -35.84301758 -4.06567383 C-24.7594577 -6.52428331 -9.88412728 -5.56513184 0 0 Z " fill="#818285" transform="translate(537.7265625,685.53515625)"/>
<path d="M0 0 C6.373125 -0.0825 12.74625 -0.165 19.3125 -0.25 C21.30063721 -0.28641602 23.28877441 -0.32283203 25.3371582 -0.36035156 C38.41079082 -0.50029563 49.79258004 1.00591487 60 10 C67.41101997 18.46355782 70.58077909 27.26969087 70.4375 38.4375 C70.42992676 39.26934814 70.42235352 40.10119629 70.41455078 40.95825195 C70.24446871 47.30156821 69.34141188 52.50384588 66 58 C65.57589844 58.70125 65.15179688 59.4025 64.71484375 60.125 C57.47927385 70.76672955 47.32341268 75.53531746 35 78 C23.45 78 11.9 78 0 78 C0 52.26 0 26.52 0 0 Z M14 13 C14 29.83 14 46.66 14 64 C32.52883183 64.90964109 32.52883183 64.90964109 47.94921875 57.390625 C52.8876764 52.17714428 55.11063168 46.17841392 55.375 39.0625 C55.09620476 31.48856264 53.02171591 25.10703755 47.80859375 19.50390625 C38.12100245 11.44834977 26.0063296 13 14 13 Z " fill="#818285" transform="translate(127,683)"/>
<path d="M0 0 C4.62 0 9.24 0 14 0 C14.96655518 2.22762085 14.96655518 2.22762085 15.95263672 4.50024414 C18.39412026 10.12707159 20.83571683 15.75385 23.27734375 21.38061523 C24.32458319 23.79400981 25.3717756 26.20742478 26.41894531 28.62084961 C27.43637633 30.96572542 28.4538934 33.31056389 29.47149658 35.65536499 C30.48460487 37.99031224 31.49726015 40.32545611 32.50946045 42.66079712 C34.99026976 48.3821103 37.47982779 54.09928142 39.98925781 59.80810547 C40.69020065 61.40687782 40.69020065 61.40687782 41.40530396 63.03794861 C42.28758698 65.04917924 43.17276782 67.05914188 44.06124878 69.06764221 C44.44983063 69.95467331 44.83841248 70.84170441 45.23876953 71.75561523 C45.5805423 72.53090073 45.92231506 73.30618622 46.27444458 74.10496521 C47 76 47 76 47 78 C41.39 78 35.78 78 30 78 C27.13813621 71.8997114 24.86310497 66.5208674 23 60 C12.11 60 1.22 60 -10 60 C-10.99 63.3 -11.98 66.6 -13 70 C-13.97618706 72.67547565 -14.9677526 75.34564953 -16 78 C-21.61 78 -27.22 78 -33 78 C-31.09177416 72.0598541 -28.97087611 66.34638846 -26.4453125 60.64453125 C-25.93784233 59.48555328 -25.93784233 59.48555328 -25.42012024 58.30316162 C-24.32529912 55.80469848 -23.22515251 53.30861949 -22.125 50.8125 C-21.36552567 49.08149231 -20.6064968 47.3502891 -19.84790039 45.61889648 C-18.69431695 42.9861928 -17.54044285 40.35362094 -16.38508606 37.72169495 C-12.70898666 29.34691215 -9.06903858 20.95668018 -5.4375 12.5625 C-4.87846083 11.27122168 -4.31938017 9.97996132 -3.76025391 8.6887207 C-2.50640856 5.79266546 -1.25313001 2.89636484 0 0 Z M6 19 C4.57157089 22.66452852 3.14752324 26.33072569 1.72753906 29.99853516 C1.00558153 31.86060415 0.28014762 33.72132407 -0.4453125 35.58203125 C-0.89648438 36.74863281 -1.34765625 37.91523437 -1.8125 39.1171875 C-2.23144531 40.19597168 -2.65039062 41.27475586 -3.08203125 42.38623047 C-4.11045434 44.85278758 -4.11045434 44.85278758 -4 47 C2.93 47 9.86 47 17 47 C15.89388666 41.46943328 14.07342064 36.56224857 12.0625 31.3125 C11.70220703 30.35021484 11.34191406 29.38792969 10.97070312 28.39648438 C10.62072266 27.47802734 10.27074219 26.55957031 9.91015625 25.61328125 C9.59183838 24.77579346 9.27352051 23.93830566 8.94555664 23.07543945 C8.07334026 20.83980001 8.07334026 20.83980001 6 19 Z " fill="#818285" transform="translate(369,683)"/>
<path d="M0 0 C0.70108887 0.00491455 1.40217773 0.0098291 2.12451172 0.01489258 C10.98051449 0.21472138 16.73673893 2.25184206 23.125 8.3125 C19.91739749 12.11885497 16.71753891 15.85813567 13.125 19.3125 C12.609375 19.044375 12.09375 18.77625 11.5625 18.5 C10.758125 18.108125 9.95375 17.71625 9.125 17.3125 C8.031875 16.77625 6.93875 16.24 5.8125 15.6875 C0.59930136 13.74359542 -2.97151562 13.59420401 -8.1875 15.5625 C-11.54354871 17.73487322 -11.54354871 17.73487322 -12.875 21.3125 C-12.56373287 24.99453915 -12.56373287 24.99453915 -11.875 28.3125 C-8.79103142 29.60010399 -5.67800236 30.72946878 -2.51171875 31.79296875 C16.38798514 38.23985085 16.38798514 38.23985085 22.125 47.5625 C24.23156859 55.4621322 23.82563919 62.60465603 20.453125 70.0859375 C16.89181818 76.05636364 11.5229009 79.06138672 5.125 81.3125 C-5.00345087 83.71443777 -15.30593581 82.94433911 -24.4609375 77.8828125 C-30.66225 73.95075 -30.66225 73.95075 -31.875 70.3125 C-28.245 67.0125 -24.615 63.7125 -20.875 60.3125 C-18.85677083 61.84244792 -16.83854167 63.37239583 -14.8203125 64.90234375 C-10.20453135 68.24832165 -5.40199327 67.74379716 0.125 67.3125 C3.9183325 65.91903092 4.76141057 65.03967886 6.5625 61.4375 C7.2214993 57.7763928 6.90139496 56.53726244 5.125 53.3125 C2.67987225 51.54867033 2.67987225 51.54867033 -0.3125 50.25 C-1.38628906 49.74597656 -2.46007812 49.24195313 -3.56640625 48.72265625 C-6.60028142 47.42958785 -9.63792583 46.27608561 -12.75 45.1875 C-19.80140997 42.71189707 -24.08379456 39.91200576 -27.875 33.3125 C-30.10201241 26.63146276 -29.78071581 19.37626021 -26.9375 12.9375 C-23.39354915 6.69291805 -18.25243282 3.47699402 -11.578125 1.17578125 C-7.66725587 0.2640702 -3.99309963 -0.03318765 0 0 Z " fill="#818285" transform="translate(921.875,680.6875)"/>
<path d="M0 0 C1.43184411 1.16399337 2.79022263 2.41746682 4.12890625 3.6875 C0.92130374 7.49385497 -2.27855484 11.23313567 -5.87109375 14.6875 C-6.38671875 14.419375 -6.90234375 14.15125 -7.43359375 13.875 C-8.23796875 13.483125 -9.04234375 13.09125 -9.87109375 12.6875 C-10.90234375 12.130625 -11.93359375 11.57375 -12.99609375 11 C-17.60492883 9.04895966 -22.09377695 9.45571797 -26.87109375 10.6875 C-29.47865568 12.53187307 -30.46703015 13.72396373 -31.68359375 16.625 C-31.92772028 19.31039186 -31.80883238 21.14220943 -30.87109375 23.6875 C-28.57797208 24.7909229 -26.21676466 25.57025681 -23.80957031 26.38671875 C-2.72676114 33.54253009 -2.72676114 33.54253009 3.12890625 42.875 C5.1847135 50.71276515 5.21657071 58.41147613 1.45703125 65.71875 C-2.78692658 72.00979337 -8.92684069 75.51498228 -16.2265625 77.24609375 C-26.18624353 78.9084925 -35.5574875 77.77905272 -44.30859375 72.6875 C-45.15421875 72.0275 -45.99984375 71.3675 -46.87109375 70.6875 C-47.51046875 70.1925 -48.14984375 69.6975 -48.80859375 69.1875 C-49.87109375 67.6875 -49.87109375 67.6875 -49.6796875 65.828125 C-48.64033367 63.07659892 -47.22003062 61.8437316 -44.99609375 59.9375 C-44.29742188 59.32390625 -43.59875 58.7103125 -42.87890625 58.078125 C-40.87109375 56.6875 -40.87109375 56.6875 -37.87109375 56.6875 C-35.83411758 58.30876675 -33.83294791 59.97609531 -31.87109375 61.6875 C-27.94822929 63.64893223 -23.15780031 63.03440111 -18.87109375 62.6875 C-15.7800051 61.42583117 -14.48063356 60.4909843 -12.49609375 57.875 C-11.59900614 54.73519336 -11.89870381 52.79914779 -12.87109375 49.6875 C-17.02156738 45.52882386 -21.74712089 44.1604876 -27.18359375 42.375 C-35.84231474 39.34674179 -41.93941288 36.45148141 -46.87109375 28.4375 C-48.57506516 22.04760721 -49.0734028 15.62278517 -46.37109375 9.4375 C-42.62140847 3.03014305 -36.80140548 -1.87190939 -29.62109375 -3.87890625 C-19.88175963 -5.41451149 -8.38076462 -5.87878269 0 0 Z " fill="#818285" transform="translate(1380.87109375,685.3125)"/>
<path d="M0 0 C2.03893981 1.6766195 3.89330638 3.22951573 5.5546875 5.28125 C5.5546875 6.27125 5.5546875 7.26125 5.5546875 8.28125 C3.3671875 10.10546875 3.3671875 10.10546875 0.5546875 11.96875 C-0.3734375 12.59136719 -1.3015625 13.21398437 -2.2578125 13.85546875 C-2.9796875 14.32597656 -3.7015625 14.79648437 -4.4453125 15.28125 C-6.96848053 14.06860674 -9.11997606 12.81741881 -11.4453125 11.21875 C-16.18467754 8.15791008 -19.79937876 7.83316002 -25.4453125 8.28125 C-33.5707478 10.16003254 -38.88750195 13.23027813 -43.4453125 20.28125 C-47.26116817 26.72307086 -47.24039342 33.99446446 -46.4453125 41.28125 C-44.71673759 47.82324118 -42.09545882 53.783051 -36.390625 57.6875 C-29.82518914 61.46315001 -23.92828067 62.26670601 -16.4453125 61.28125 C-11.66193879 59.62881181 -8.84780018 56.98395718 -5.4453125 53.28125 C-0.35592439 54.87168379 3.42925393 58.0259451 7.5546875 61.28125 C4.4640291 68.20910264 -1.47103062 71.62618717 -8.234375 74.51953125 C-19.27032339 78.32166895 -31.35942475 76.81882589 -41.8828125 72.21484375 C-51.93851763 67.06808927 -57.32093919 59.7103978 -61.4453125 49.28125 C-65.0021595 37.89281328 -63.97664532 25.79184387 -58.94921875 15.03515625 C-53.51170271 5.07814635 -46.54125835 -0.67840255 -35.8828125 -4.59375 C-24.05544484 -7.70916073 -10.1758288 -7.15233973 0 0 Z " fill="#818285" transform="translate(1267.4453125,686.71875)"/>
<path d="M0 0 C20.46 0 40.92 0 62 0 C62 4.29 62 8.58 62 13 C54.08 13 46.16 13 38 13 C38 34.45 38 55.9 38 78 C33.38 78 28.76 78 24 78 C24 56.55 24 35.1 24 13 C16.08 13 8.16 13 0 13 C0 8.71 0 4.42 0 0 Z " fill="#818285" transform="translate(1003,683)"/>
<path d="M0 0 C4.95 0 9.9 0 15 0 C15 25.74 15 51.48 15 78 C10.05 78 5.1 78 0 78 C0 52.26 0 26.52 0 0 Z " fill="#818285" transform="translate(1125,683)"/>
<path d="M0 0 C4.62 0 9.24 0 14 0 C14 25.74 14 51.48 14 78 C9.38 78 4.76 78 0 78 C0 52.26 0 26.52 0 0 Z " fill="#818285" transform="translate(262,683)"/>
</svg>
